{
.formatVersion = 3;
DisplayStrings = (
"/uni1362.vs17 ።",
"󰀤󰀏󰀥󰀏󰀧󰀏󰀨󰀏󰀪󰀏󰀵󰀏󰀶󰀏󰀸󰀏󰀼󰀏󰀷󰀏",
"ቯ"
);
familyName = Brana;
customParameters = (
{
name = glyphOrder;
value = (
.notdef,
NULL,
CR,
space,
uni1200,
uni1201,
uni1202,
uni1203,
uni1204,
uni1205,
uni1206,
uni1207,
uni1208,
uni1209,
uni120A,
uni120B,
uni120C,
uni120D,
uni120E,
uni120F,
uni1210,
uni1211,
uni1212,
uni1213,
uni1214,
uni1215,
uni1216,
uni1217,
uni1218,
uni1219,
uni121A,
uni121B,
uni121C,
uni121D,
uni121E,
uni121F,
uni1220,
uni1221,
uni1222,
uni1223,
uni1224,
uni1225,
uni1226,
uni1227,
uni1228,
uni1229,
uni122A,
uni122B,
uni122C,
uni122D,
uni122E,
uni122F,
uni1230,
uni1231,
uni1232,
uni1233,
uni1234,
uni1235,
uni1236,
uni1237,
uni1238,
uni1239,
uni123A,
uni123B,
uni123C,
uni123D,
uni123E,
uni123F,
uni1240,
uni1241,
uni1242,
uni1243,
uni1244,
uni1245,
uni1246,
uni1247,
uni1248,
uni124A,
uni124B,
uni124C,
uni124D,
uni1250,
uni1251,
uni1252,
uni1253,
uni1254,
uni1255,
uni1256,
uni1258,
uni125A,
uni125B,
uni125C,
uni125D,
uni1260,
uni1261,
uni1262,
uni1263,
uni1264,
uni1265,
uni1266,
uni1267,
uni1268,
uni1269,
uni126A,
uni126B,
uni126C,
uni126D,
uni126E,
uni126F,
uni1270,
uni1271,
uni1272,
uni1273,
uni1274,
uni1275,
uni1276,
uni1277,
uni1278,
uni1279,
uni127A,
uni127B,
uni127C,
uni127D,
uni127E,
uni127F,
uni1280,
uni1281,
uni1282,
uni1283,
uni1284,
uni1285,
uni1286,
uni1287,
uni1288,
uni128A,
uni128B,
uni128C,
uni128D,
uni1290,
uni1291,
uni1292,
uni1293,
uni1294,
uni1295,
uni1296,
uni1297,
uni1298,
uni1299,
uni129A,
uni129B,
uni129C,
uni129D,
uni129E,
uni129F,
uni12A0,
uni12A1,
uni12A2,
uni12A3,
uni12A4,
uni12A5,
uni12A6,
uni12A7,
uni12A8,
uni12A9,
uni12AA,
uni12AB,
uni12AC,
uni12AD,
uni12AE,
uni12AF,
uni12B0,
uni12B2,
uni12B3,
uni12B4,
uni12B5,
uni12B8,
uni12B9,
uni12BA,
uni12BB,
uni12BC,
uni12BD,
uni12BE,
uni12C0,
uni12C2,
uni12C3,
uni12C4,
uni12C5,
uni12C8,
uni12C9,
uni12CA,
uni12CB,
uni12CC,
uni12CD,
uni12CE,
uni12CF,
uni12D0,
uni12D1,
uni12D2,
uni12D3,
uni12D4,
uni12D5,
uni12D6,
uni12D8,
uni12D9,
uni12DA,

glyphs = (
{
glyphname = uni1200;
layers = (
{
layerId = "5B9FE6CD-9A20-4D75-8A4E-A5261DDE1CE6";
shapes = (
{
closed = 1;
nodes = (
(455,156,o),
(482,315,o),
(482,469,cs),
(482,494,o),
(485,688,o),
(443,688,cs),
(432,688,o),
(318,659,o),
(318,647,cs),
(318,641,o),
(323,638,o),
(327,635,c),
(338,626,o),
(342,577,o),
(343,564,cs),
(346,527,o),
(346,490,o),
(346,453,cs),
(346,385,o),
(335,315,o),
(326,247,cs),
(320,200,o),
(302,32,o),
(227,32,cs),
(180,32,o),
(166,100,o),
(166,136,cs),
(166,266,o),
(202,396,o),
(202,525,cs),
(202,548,o),
(201,606,o),
(167,606,cs),
(152,606,o),
(48,576,o),
(48,563,cs),
(48,550,o),
(65,549,o),
(65,526,cs),
(65,518,o),
(63,508,o),
(62,500,c),
(56,426,o),
(47,353,o),
(38,279,cs),
(34,246,o),
(29,212,o),
(29,179,cs),
(29,84,o),
(65,0,o),
(173,0,cs),
(229,0,o),
(280,24,o),
(324,57,cs)
);
}
);
width = 538;
}
);
unicode = 4608;
},
{
glyphname = uni1201;
layers = (
{
layerId = "5B9FE6CD-9A20-4D75-8A4E-A5261DDE1CE6";
shapes = (
{
closed = 1;
nodes = (
(724,333,o),
(706,346,o),
(706,384,cs),
(706,409,o),
(725,435,o),
(725,452,cs),
(725,462,o),
(716,464,o),
(708,464,cs),
(659,464,o),
(534,401,o),
(482,401,c),
(482,442,o),
(472,599,o),
(450,626,cs),
(446,631,o),
(440,632,o),
(434,632,cs),
(415,632,o),
(302,608,o),
(302,592,cs),
(302,587,o),
(312,581,o),
(316,579,c),
(330,570,o),
(333,542,o),
(334,527,c),
(339,478,o),
(338,428,o),
(338,378,cs),
(338,303,o),
(314,117,o),
(276,55,cs),
(266,38,o),
(248,24,o),
(228,24,cs),
(184,24,o),
(166,79,o),
(166,115,cs),
(166,238,o),
(194,360,o),
(194,483,cs),
(194,507,o),
(199,558,o),
(165,558,cs),
(146.85,558,o),
(35,530.709,o),
(35,518,cs),
(35,502,o),
(58,507,o),
(58,469,cs),
(58,376,o),
(29,277,o),
(29,182,cs),
(29,93,o),
(60,0,o),
(165,0,cs),
(220,0,o),
(274,18,o),
(321,47,cs),
(441,120,o),
(482,239,o),
(482,372,c),
(507,385,o),
(536,391,o),
(562,401,c),
(562,331,o),
(592,280,o),
(667,280,cs),
(679,280,o),
(743,288,o),
(743,304,c)
);
}
);
width = 788;
}
);
unicode = 4609;
},
{
glyphname = uni1202;
layers = (
{
layerId = "5B9FE6CD-9A20-4D75-8A4E-A5261DDE1CE6";
shapes = (
{
closed = 1;
nodes = (
(572,-16,o),
(551,-9,o),
(551,25,cs),
(551,52,o),
(566,87,o),
(566,96,cs),
(566,104,o),
(543,104,o),
(538,104,cs),
(486,104,o),
(419,82,o),
(386,40,c),
(365,40,o),
(345,24,o),
(324,24,cs),
(297,24,o),
(266,34,o),
(266,66,cs),
(266,99,o),
(288,159,o),
(299,190,cs),
(326,266,o),
(356,340,o),
(386,415,cs),
(427,516,o),
(497,636,o),
(497,745,cs),
(497,772,o),
(483,768,o),
(459,768,cs),
(440,768,o),
(324,759,o),
(324,741,cs),
(324,729,o),
(347,730,o),
(347,704,cs),
(347,649,o),
(301,563,o),
(279,511,c),
(274,500,o),
(237,496,o),
(226,496,cs),
(194,496,o),
(194,521,o),
(194,547,cs),
(194,588,o),
(205,630,o),
(205,672,cs),
(205,709,o),
(207,733,o),
(163,733,cs),
(145,733,o),
(22,721,o),
(22,704,cs),
(22,697,o),
(34,692,o),
(40,689,c),
(49,684,o),
(51,668,o),
(53,659,c),
(59,624,o),
(54,467,o),
(68,450,cs),
(78,438,o),
(92,434,o),
(107,434,cs),
(155,434,o),
(207,473,o),
(251,473,c),
(253,473,o),
(254,472,o),
(257,472,c),
(257,459,o),
(244,433,o),
(239,421,cs),
(205,345,o),
(122,120,o),
(122,58,cs),
(122,6,o),
(177,0,o),
(216,0,cs),
(286,0,ls),
(320,0,o),
(352,16,o),
(385,16,c),
(396,-43,o),
(434,-72,o),
(494,-72,cs),
(514,-72,o),
(584,-63,o),
(591,-40,c)
);
}
);
width = 635;
}
);
unicode = 4610;
},
{
glyphname = uni1203;
layers = (
{
layerId = "5B9FE6CD-9A20-4D75-8A4E-A5261DDE1CE6";
shapes = (
{
closed = 1;
nodes = (
(285,45,o),
(247,33,o),
(247,65,cs),
(247,105.804,o),
(308.576,259.438,o),
(328,304,cs),
(358,372,o),
(442,552,o),
(437,626,c),
(439,629,l),
(438,651,o),
(444,675,o),
(444,697,cs),
(444,740,o),
(445,768,o),
(395,768,cs),
(377,768,o),
(279,761,o),
(279,741,cs),
(279,726,o),
(299,729,o),
(306,715,c),
(312,704,o),
(311,690,o),
(311,678,c),
(309,674,l),
(309,603,o),
(276,536,o),
(248,472,c),
(244,464,o),
(224,464,o),
(216,464,cs),
(205,464,o),
(173,465,o),
(173,481,c),
(169,488,o),
(169,497,o),
(169,505,cs),
(169,559,o),
(190,613,o),
(190,667,cs),
(190,700,o),
(185,724,o),
(147,724,cs),
(131,724,o),
(14,704,o),
(14,690,c),
(30,649,o),
(41,693,o),
(41,612,cs),
(41,573,o),
(35,535,o),
(35,496,cs),
(35,450,o),
(42,413,o),
(97,413,cs),
(137,413,o),
(185,440,o),
(219,440,cs),
(223,440,o),
(228,440,o),
(231,437,c),
(231,408,o),
(200,342,o),
(187,312,c),
(187,310,l),
(160,244,o),
(113,132,o),
(113,63,cs),
(113,54,o),
(112,44,o),
(114,35,cs),
(120,6,o),
(168,0,o),
(192,0,cs),
(206,0,o),
(285,8,o),
(285,24,cs)
);
}
);
width = 483;
}
);
unicode = 4611;
},
{
glyphname = uni1204;
layers = (
{
layerId = "5B9FE6CD-9A20-4D75-8A4E-A5261DDE1CE6";
shapes = (
{
closed = 1;
nodes = (
(540,227,o),
(542,261,o),
(498,261,cs),
(455,261,o),
(406,241,o),
(366,226,c),
(384,210,o),
(396,189,o),
(396,165,cs),
(396,103,o),
(320,48,o),
(262,48,cs),
(242,48,o),
(230,57,o),
(230,78,cs),
(230,126,o),
(293,242,o),
(316,288,cs),
(361,379,o),
(490,610,o),
(490,701,cs),
(490,735,o),
(478,744,o),
(444,744,cs),
(414,744,o),
(381,739,o),
(351,733,c),
(347,732,o),
(320,727,o),
(320,722,c),
(329,700,o),
(338,707,o),
(338,677,cs),
(338,665,o),
(337,653,o),
(334,641,cs),
(328,617,o),
(278,505,o),
(265,499,c),
(257,495,o),
(232,496,o),
(222,496,cs),
(184,496,o),
(180,515,o),
(180,549,cs),
(180,592,o),
(187,634,o),
(187,677,cs),
(187,716,o),
(192,731,o),
(146,731,cs),
(131,731,o),
(15,722,o),
(14,706,c),
(20,695,o),
(32,690,o),
(37,679,c),
(44,665,o),
(43,628,o),
(43,611,cs),
(43,583,o),
(36,556,o),
(36,527,cs),
(36,480,o),
(37,425,o),
(99,425,cs),
(146,425,o),
(203,465,o),
(243,465,c),
(245,465,o),
(247,464,o),
(249,464,c),
(246,446,o),
(226,413,o),
(218,397,cs),
(184,330,o),
(72,134,o),
(72,71,cs),
(72,32,o),
(109,0,o),
(146,0,cs),
(207,0,o),
(268,35,o),
(329,43,cs),
(420,56,o),
(540,76,o),
(540,192,cs)
);
}
);
width = 579;
}
);
unicode = 4612;
},
{
glyphname = uni1205;
layers = (
{
layerId = "5B9FE6CD-9A20-4D75-8A4E-A5261DDE1CE6";
shapes = (
{
closed = 1;
nodes = (
(493,115,o),
(511,287,o),
(511,430,cs),
(511,475,o),
(503,632,o),
(480,665,cs),
(476,671,o),
(469,672,o),
(462,672,cs),
(443,672,o),
(329,648,o),
(329,628,cs),
(329,622,o),
(335,620,o),
(339,618,c),
(350,611,o),
(358,599,o),
(362,587,cs),
(376,548,o),
(374,452,o),
(374,408,cs),
(374,333,o),
(353,117,o),
(312,56,cs),
(299,37,o),
(277,24,o),
(253,24,cs),
(209,24,o),
(194,64,o),
(194,101,cs),
(194,205,o),
(211,310,o),
(216,414,c),
(206,415,l),
(200,413,o),
(194,411,o),
(188,411,c),
(187,411,o),
(183,413,o),
(182,413,c),
(182,414,o),
(181,418,o),
(181,420,c),
(181,468,o),
(187,516,o),
(187,564,cs),
(187,590,o),
(183,603,o),
(152,603,cs),
(139.653,603,o),
(29,582.286,o),
(29,570,cs),
(29,559,o),
(50,550,o),
(50,524,cs),
(50,469,o),
(29,415,o),
(29,360,c),
(29,359,l),
(32,356,o),
(37,354,o),
(42,354,cs),
(51,354,o),
(59,357,o),
(68,357,cs),
(72,357,o),
(76,356,o),
(79,356,c),
(74,292,o),
(58,230,o),
(58,165,cs),
(58,63,o),
(80,0,o),
(193,0,cs),
(249,0,o),
(305,12,o),
(354,39,cs)
);
}
);
width = 543;
}
);
unicode = 4613;
},
{
glyphname = uni1206;
layers = (
{
layerId = "5B9FE6CD-9A20-4D75-8A4E-A5261DDE1CE6";
shapes = (
{
closed = 1;
nodes = (
(468,167,o),
(461,326,o),
(461,472,c),
(541,472,o),
(677,534,o),
(677,627,cs),
(677,684,o),
(657,728,o),
(593,728,cs),
(556,728,o),
(525,714,o),
(492,701,cs),
(433,678,o),
(346,681,o),
(292,648,c),
(286,644,o),
(279,640,o),
(279,632,cs),
(279,624,o),
(290,621,o),
(296,619,c),
(313,612,o),
(318,567,o),
(320,552,cs),
(326,507,o),
(324,460,o),
(324,415,c),
(322,410,l),
(329,349,o),
(320,122,o),
(294,68,cs),
(282,43,o),
(262,24,o),
(233,24,cs),
(165,24,o),
(166,138,o),
(166,184,cs),
(166,282,o),
(180,380,o),
(180,478,cs),
(180,512,o),
(187,604,o),
(139,604,cs),
(120,604,o),
(15,573,o),
(14,563,c),
(18,557,o),
(24,553,o),
(29,548,c),
(43,535,o),
(43,503,o),
(43,485,cs),
(43,376,o),
(36,268,o),
(36,159,cs),
(36,70,o),
(79,0,o),
(175,0,cs),
(236,0,o),
(296,28,o),
(343,66,cs)
);
},
{
closed = 1;
nodes = (
(464,496,l),
(461,506,o),
(461,540,o),
(461,551,cs),
(461,667,ls),
(461,683,o),
(473,688,o),
(487,688,cs),
(496,688,ls),
(534,688,o),
(540,620,o),
(540,593,cs),
(540,555,o),
(518,496,o),
(472,496,cs)
);
}
);
width = 725;
}
);
unicode = 4614;
},
{
glyphname = uni1208;
layers = (
{
layerId = "5B9FE6CD-9A20-4D75-8A4E-A5261DDE1CE6";
shapes = (
{
closed = 1;
nodes = (
(536,38,o),
(512,58,o),
(505,64,cs),
(486,80,o),
(481,153,o),
(479,176,cs),
(469,290,o),
(471,451,o),
(414,550,cs),
(397,580,o),
(375,603,o),
(354,630,cs),
(346,641,o),
(313,714,o),
(306,730,c),
(281,730,o),
(211,703,o),
(186,692,c),
(184,687,l),
(184,672,o),
(224,616,o),
(233,603,c),
(130,563,o),
(52,357,o),
(33,254,cs),
(25,211,o),
(22,166,o),
(22,122,cs),
(22,66,o),
(19,5,o),
(95,5,cs),
(110,5,o),
(218,11,o),
(218,28,cs),
(218,48,o),
(173,51,o),
(173,123,cs),
(173,249,o),
(176,293,o),
(231,409,cs),
(239,425,o),
(272,496,o),
(294,496,cs),
(312,496,o),
(324,437,o),
(326,426,cs),
(346,332,o),
(346,224,o),
(346,128,cs),
(346,88.099,o),
(356.755,0,o),
(411,0,cs),
(431,0,o),
(536,15,o),
(536,28,cs)
);
}
);
width = 585;
}
);
unicode = 4616;
},
{
glyphname = uni1209;
layers = (
{
layerId = "5B9FE6CD-9A20-4D75-8A4E-A5261DDE1CE6";
shapes = (
{
closed = 1;
nodes = (
(545,39,o),
(525,54,o),
(517,61,c),
(482,89,o),
(475,237,o),
(475,282,c),
(562,315,l),
(562,255,o),
(580,200,o),
(650,200,cs),
(670,200,o),
(714,209,o),
(727,224,c),
(707,250,o),
(689,293,o),
(689,326,cs),
(689,340,o),
(693,355,o),
(693,369,cs),
(693,374,o),
(692,379,o),
(686,379,cs),
(670,379,o),
(518,313,o),
(475,306,c),
(466,421,o),
(467,528,o),
(369,607,cs),
(364,611,o),
(314,712,o),
(304,730,c),
(284,729,o),
(174,692,o),
(174,683,cs),
(174,664,o),
(221,624,o),
(230,603,c),
(187,581,o),
(152,536,o),
(126,496,cs),
(56,389,o),
(29,259,o),
(29,133,cs),
(29,85,o),
(29,0,o),
(94,0,cs),
(110,0,o),
(221,17,o),
(221,29,cs),
(221,55,o),
(166,55,o),
(166,124,cs),
(166,245,o),
(170,301,o),
(224,411,cs),
(233,429,o),
(264,494,o),
(287,498,c),
(339,472,o),
(331,299,o),
(336,247,cs),
(339,214,o),
(342,181,o),
(344,148,cs),
(347,100,o),
(351,0,o),
(419,0,cs),
(438,0,o),
(545,-2,o),
(545,27,cs)
);
}
);
width = 770;
}
);
unicode = 4617;
},
{
glyphname = uni120A;
layers = (
{
layerId = "5B9FE6CD-9A20-4D75-8A4E-A5261DDE1CE6";
shapes = (
{
closed = 1;
nodes = (
(694,-30,o),
(675,-6,o),
(675,26,cs),
(675,56,o),
(682,77,o),
(693,105,c),
(693,113,o),
(673,112,o),
(667,112,cs),
(619,112,o),
(576,97,o),
(556,50,c),
(551,49,o),
(545,48,o),
(540,48,cs),
(520,48,o),
(509,62,o),
(500,78,cs),
(481,113,o),
(481,265,o),
(479,311,cs),
(475,382,o),
(453,510,o),
(410,569,cs),
(391,595,o),
(369,620,o),
(352,648,c),
(340,669,o),
(334,711,o),
(326,736,c),
(303,736,o),
(213,711,o),
(190,701,c),
(194,691,o),
(198,681,o),
(199,671,c),
(212,650,o),
(227,630,o),
(241,609,c),
(198,591,o),
(162,549,o),
(136,512,cs),
(59,403,o),
(29,265,o),
(29,133,cs),
(29,77,o),
(21,16,o),
(95,16,cs),
(111.691,16,o),
(216,20.484,o),
(216,44,cs),
(216,55,o),
(184,67,o),
(175,90,cs),
(169,105,o),
(166,121,o),
(166,137,cs),
(166,241,o),
(182,325,o),
(230,418,cs),
(241,439,o),
(272,495,o),
(298,498,c),
(370,410,o),
(305,66,o),
(370,15,cs),
(384,4,o),
(437,2,o),
(455,2,cs),
(491,2,o),
(519,15,o),
(554,24,c),
(560,-33,o),
(601,-72,o),
(659,-72,cs),
(669,-72,o),
(711,-67,o),
(711,-55,c)
);
}
);
width = 752;
}
);
unicode = 4618;
},
{
glyphname = uni120B;
layers = (
{
layerId = "5B9FE6CD-9A20-4D75-8A4E-A5261DDE1CE6";
shapes = (
{
closed = 1;
nodes = (
(465,28,o),
(441,49,o),
(436,79,cs),
(433,100,o),
(432,121,o),
(432,142,cs),
(432,196,o),
(439,250,o),
(439,304,cs),
(439,376,o),
(427,491,o),
(392,555,cs),
(378,581,o),
(363,604,o),
(346,628,c),
(340,636,o),
(311,718,o),
(306,730,c),
(288,730,o),
(195,712,o),
(185,703,c),
(183,701,o),
(182,698,o),
(182,695,cs),
(182,684,o),
(214,622,o),
(220,611,c),
(85,541,o),
(42,430,o),
(23,287,c),
(22,283,o),
(22,279,o),
(22,275,cs),
(22,231,o),
(61,224,o),
(96,224,cs),
(112,224,o),
(194,231,o),
(194,242,cs),
(194,255,o),
(173,246,o),
(173,273,cs),
(173,294,o),
(178,315,o),
(182,336,cs),
(192,390,o),
(207,478,o),
(267,500,c),
(308,477,o),
(302,331,o),
(302,291,cs),
(302,115,ls),
(302,65,o),
(297,0,o),
(367,0,cs),
(377,0,o),
(465,-1,o),
(465,16,cs)
);
}
);
width = 507;
}
);
unicode = 4619;
},
{
glyphname = uni120C;
layers = (
{
layerId = "5B9FE6CD-9A20-4D75-8A4E-A5261DDE1CE6";
shapes = (
{
closed = 1;
nodes = (
(734,204,o),
(701,242,o),
(631,242,cs),
(584,242,o),
(537,226,o),
(490,226,c),
(490,356,o),
(480,433,o),
(426,554,cs),
(411,588,o),
(385,611,o),
(365,640,cs),
(346,667,o),
(332,715,o),
(317,746,c),
(292,746,o),
(211,718,o),
(187,706,c),
(185,701,l),
(185,686,o),
(224,634,o),
(236,619,c),
(193,600,o),
(159,555,o),
(135,517,cs),
(61,401,o),
(29,234,o),
(29,97,cs),
(29,52,o),
(47,24,o),
(94,24,cs),
(110,24,o),
(222,32,o),
(222,51,cs),
(222,73,o),
(173,65,o),
(173,142,cs),
(173,236,o),
(188,331,o),
(230,416,cs),
(241,438,o),
(264,484,o),
(293,487,c),
(316,478,o),
(326,437,o),
(330,416,cs),
(338,378,o),
(341,338,o),
(343,299,cs),
(345,246,o),
(346,192,o),
(346,139,cs),
(346,49,o),
(387,0,o),
(478,0,cs),
(509,0,ls),
(587,0,o),
(734,38,o),
(734,136,cs)
);
},
{
closed = 1;
nodes = (
(605,103,o),
(588,48,o),
(545,48,cs),
(504,48,o),
(490,143,o),
(490,175,cs),
(490,180,o),
(490,192,o),
(493,197,c),
(512,202,o),
(529,208,o),
(549,208,cs),
(595,208,o),
(605,178,o),
(605,138,cs)
);
}
);
width = 774;
}
);
unicode = 4620;
},
{
glyphname = uni120D;
layers = (
{
layerId = "5B9FE6CD-9A20-4D75-8A4E-A5261DDE1CE6";
shapes = (
{
closed = 1;
nodes = (
(707,49,o),
(687,58,o),
(680,62,c),
(657,74,o),
(643,99,o),
(634,122,cs),
(619,159,o),
(613,198,o),
(606,237,cs),
(580,378,o),
(521,516,o),
(413,613,cs),
(381,642,o),
(349,710,o),
(325,730,c),
(299,730,o),
(227,685,o),
(203,670,c),
(207,662,o),
(212,655,o),
(216,647,c),
(234,632,o),
(251,616,o),
(267,599,c),
(175,534,o),
(113,440,o),
(76,334,cs),
(51,263,o),
(29,186,o),
(29,110,cs),
(29,70,o),
(27,24,o),
(79,24,cs),
(103,24,o),
(127,32,o),
(149,41,cs),
(175,51,o),
(210,73,o),
(229,80,cs),
(291,102,o),
(396,105,o),
(396,198,cs),
(396,239,o),
(382,304,o),
(329,304,cs),
(303,304,o),
(227,268,o),
(185,263,c),
(208,367,o),
(247,449,o),
(347,496,c),
(431,464,o),
(483,213,o),
(500,130,cs),
(506,103,o),
(512,73,o),
(523,48,cs),
(534,23,o),
(551,0,o),
(581,0,cs),
(599,0,o),
(707,25,o),
(707,39,cs)
);
},
{
closed = 1;
nodes = (
(172,96,o),
(166,100,o),
(166,126,cs),
(166,151,o),
(169,209,o),
(179,230,c),
(187,231,o),
(195,232,o),
(203,232,cs),
(248,232,o),
(259,218,o),
(259,174,cs),
(259,135,o),
(246,96,o),
(200,96,cs)
);
}
);
width = 747;
}
);
unicode = 4621;
},
{
glyphname = uni120E;
layers = (
{
layerId = "5B9FE6CD-9A20-4D75-8A4E-A5261DDE1CE6";
shapes = (
{
closed = 1;
nodes = (
(534,34,o),
(521,39,o),
(515,42,cs),
(496,51,o),
(488,73,o),
(482,91,cs),
(461,156,o),
(470,227,o),
(464,294,cs),
(461,336,o),
(452,378,o),
(439,418,c),
(462,431,o),
(506,436,o),
(533,441,c),
(529,420,o),
(526,399,o),
(526,378,cs),
(526,330,o),
(546,274,o),
(603,274,cs),
(635,274,o),
(665,292,o),
(697,296,cs),
(780,306,o),
(842,306,o),
(842,409,cs),
(842,460,o),
(828,520,o),
(765,520,cs),
(664,520,o),
(536,442,o),
(436,442,c),
(428,471,o),
(414,499,o),
(399,525,cs),
(383,553,o),
(358,577,o),
(343,605,cs),
(324,639,o),
(313,685,o),
(298,722,c),
(271,722,o),
(194,692,o),
(166,681,c),
(178,645,o),
(200,624,o),
(220,592,c),
(122,536,o),
(53,362,o),
(37,255,cs),
(32,220,o),
(29,184,o),
(29,149,cs),
(29,131,o),
(31,113,o),
(32,95,cs),
(35,43,o),
(36,2,o),
(100,2,cs),
(115,2,o),
(215,6,o),
(215,28,cs),
(215,39,o),
(185,55,o),
(177,68,c),
(166,87,o),
(166,110,o),
(166,131,cs),
(166,226,o),
(183,321,o),
(223,407,cs),
(231,424,o),
(251,468,o),
(275,468,cs),
(301,468,o),
(317,362,o),
(319,346,cs),
(329,275,o),
(331,203,o),
(331,132,cs),
(331,103,o),
(335,10,o),
(371,4,c),
(386,2,o),
(402,0,o),
(417,0,cs),
(432,0,o),
(534,10,o),
(534,26,cs)
);
},
{
closed = 1;
nodes = (
(673,312,o),
(662,320,o),
(659,337,cs),
(654,366,o),
(648,400,o),
(648,429,cs),
(648,445,o),
(650,480,o),
(673,480,cs),
(714,480,o),
(727,398,o),
(727,367,cs),
(727,343,o),
(719,312,o),
(690,312,cs)
);
}
);
width = 867;
}
);
unicode = 4622;
},
{
glyphname = uni120F;
layers = (
{
layerId = "5B9FE6CD-9A20-4D75-8A4E-A5261DDE1CE6";
shapes = (
{
closed = 1;
nodes = (
(644,-10,o),
(638,6,o),
(638,40,cs),
(638,62,o),
(645,84,o),
(645,106,cs),
(645,112,o),
(632,112,o),
(628,112,c),
(621,108,o),
(614,104,o),
(606,104,cs),
(429,104,l),
(429,140,o),
(427,177,o),
(425,213,cs),
(420,314,o),
(433,442,o),
(400,539,cs),
(391,564,o),
(379,591,o),
(365,614,cs),
(360,622,o),
(326,671,o),
(326,672,c),
(314,707,o),
(305,743,o),
(292,778,c),
(274,777,o),
(160,755,o),
(160,739,cs),
(160,725,o),
(193,679,o),
(199,660,c),
(76,589,o),
(29,499,o),
(29,359,cs),
(29,301,o),
(78,312,o),
(121,312,cs),
(127,312,o),
(183,309,o),
(183,324,cs),
(183,336,o),
(169,343,o),
(169,372,cs),
(169,439,o),
(187,521,o),
(256,548,c),
(299,519,o),
(296,408,o),
(296,362,cs),
(296,279,o),
(289,195,o),
(289,112,c),
(272,104,o),
(249,104,o),
(230,104,cs),
(185,104,o),
(139,112,o),
(93,112,cs),
(83,112,o),
(66,114,o),
(66,100,cs),
(66,88,o),
(70,74,o),
(70,61,cs),
(70,25,o),
(55,-4,o),
(34,-33,c),
(34,-40,o),
(49,-40,o),
(53,-40,cs),
(137,-40,o),
(209,-10,o),
(233,78,c),
(304,78,o),
(376,80,o),
(447,80,cs),
(486,80,l),
(498,4,o),
(554,-48,o),
(632,-48,cs),
(637,-48,o),
(660,-46,o),
(660,-39,c)
);
}
);
width = 682;
}
);
unicode = 4623;
},
{
glyphname = uni1210;
layers = (
{
layerId = "5B9FE6CD-9A20-4D75-8A4E-A5261DDE1CE6";
shapes = (
{
closed = 1;
nodes = (
(772,40,o),
(750,50,o),
(744,60,cs),
(739,68,o),
(741,131,o),
(741,137,cs),
(741,202,o),
(743,364,o),
(675,398,cs),
(660,405,o),
(641,407,o),
(625,407,cs),
(579,407,o),
(530,391,o),
(486,381,c),
(492,462,o),
(507,544,o),
(507,625,cs),
(507,635,o),
(506,665,o),
(500,672,c),
(488,677,o),
(475,680,o),
(462,680,cs),
(445,680,o),
(335,672,o),
(335,654,cs),
(335,642,o),
(365,642,o),
(370,627,cs),
(374,615,o),
(373,587,o),
(373,575,cs),
(373,505,o),
(364,436,o),
(355,367,c),
(249,348,o),
(144,338,o),
(77,243,cs),
(41,192,o),
(29,139,o),
(29,78,cs),
(29,33,o),
(24,1,o),
(79,1,cs),
(97,1,o),
(202,7,o),
(202,28,cs),
(202,34,o),
(193,38,o),
(189,41,cs),
(184,45,o),
(183,76,o),
(183,83,cs),
(183,174,o),
(212,339,o),
(330,339,cs),
(335,339,o),
(340,338,o),
(345,338,c),
(345,319,o),
(340,300,o),
(338,281,cs),
(330,206,o),
(317,128,o),
(317,52,cs),
(317,7,o),
(318,0,o),
(365,0,cs),
(382,0,o),
(475,4,o),
(475,28,cs),
(475,34,o),
(468,39,o),
(464,42,c),
(452,45,o),
(451,83,o),
(451,93,cs),
(451,111,o),
(453,128,o),
(455,146,cs),
(482,364,l),
(491,367,l),
(496,367,o),
(502,368,o),
(507,368,cs),
(543,368,o),
(578,345,o),
(589,310,cs),
(597,285,o),
(599,186,o),
(600,158,c),
(600,142,o),
(602,34,o),
(610,22,cs),
(621,5,o),
(643,0,o),
(662,0,cs),
(674,0,o),
(772,13,o),
(772,31,cs)
);
}
);
width = 841;
}
);
unicode = 4624;
},
{
glyphname = uni1211;
layers = (
{
layerId = "5B9FE6CD-9A20-4D75-8A4E-A5261DDE1CE6";
shapes = (
{
closed = 1;
nodes = (
(771,49,o),
(737,58,o),
(737,104,cs),
(737,175,o),
(740,253,o),
(733,324,c),
(774,339,l),
(774,278,o),
(799,229,o),
(866,229,cs),
(877,229,o),
(930,240,o),
(930,254,c),
(925,265,o),
(917,276,o),
(912,287,c),
(899,319,o),
(902,348,o),
(902,381,cs),
(902,388,o),
(901,402,o),
(891,402,cs),
(879,402,o),
(754,340,o),
(719,340,c),
(704,388,o),
(680,409,o),
(629,409,cs),
(580,409,o),
(532,384,o),
(482,384,c),
(482,393,ls),
(482,433,o),
(490,477,o),
(494,517,cs),
(498,556,o),
(500,596,o),
(500,636,cs),
(500,673,o),
(499,688,o),
(459,688,cs),
(439,688,o),
(417,682,o),
(398,683,c),
(392,680,o),
(332,676,o),
(332,664,cs),
(332,651,o),
(363,647,o),
(365,631,cs),
(367,614,o),
(366,596,o),
(366,579,cs),
(366,539,o),
(364,498,o),
(358,458,cs),
(354,431,o),
(346,400,o),
(346,373,c),
(290,363,o),
(230,353,o),
(178,330,cs),
(76,285,o),
(29,192,o),
(29,84,cs),
(29,38,o),
(30,0,o),
(88,0,cs),
(108,0,o),
(196,9,o),
(196,33,cs),
(196,40,o),
(191,45,o),
(184,47,c),
(176,55,o),
(176,69,o),
(176,80,cs),
(176,173,o),
(220,343,o),
(336,343,c),
(336,333,ls),
(336,301,o),
(329,268,o),
(326,236,cs),
(319,168,o),
(311,100,o),
(311,32,cs),
(311,12,o),
(334,3,o),
(350,3,cs),
(370,3,o),
(482,15,o),
(482,33,cs),
(482,40,o),
(475,42,o),
(470,44,c),
(449,54,o),
(444,71,o),
(444,93,cs),
(444,107,o),
(449,120,o),
(450,134,cs),
(456,213,o),
(463,294,o),
(480,371,c),
(490,373,o),
(500,376,o),
(510,376,cs),
(592,376,o),
(597,270,o),
(599,210,cs),
(603,83,ls),
(604,37,o),
(609,8,o),
(662,8,cs),
(678,8,o),
(771,16,o),
(771,36,cs)
);
}
);
width = 966;
}
);
unicode = 4625;
},
{
glyphname = uni1212;
layers = (
{
layerId = "5B9FE6CD-9A20-4D75-8A4E-A5261DDE1CE6";
shapes = (
{
closed = 1;
nodes = (
(904,-32,o),
(880,-7,o),
(880,28,cs),
(880,56,o),
(891,79,o),
(902,104,c),
(902,114,o),
(874,112,o),
(867,112,cs),
(826,112,o),
(771,84,o),
(761,41,c),
(758,40,o),
(755,40,o),
(752,40,cs),
(735,40,o),
(732,78,o),
(731,90,cs),
(725,160,o),
(743,360,o),
(665,395,cs),
(648,403,o),
(629,406,o),
(610,406,cs),
(595,406,o),
(500,387,o),
(477,384,c),
(485,464,o),
(500,546,o),
(500,626,cs),
(500,632,o),
(499,639,o),
(499,645,c),
(483,673,o),
(477,672,o),
(441,672,cs),
(424,672,o),
(335,668,o),
(335,650,cs),
(335,642,o),
(357,632,o),
(363,622,cs),
(366,617,o),
(366,598,o),
(366,592,cs),
(366,569,o),
(360,545,o),
(358,522,cs),
(354,469,o),
(351,416,o),
(341,364,c),
(289,357,o),
(230,352,o),
(180,333,cs),
(76,293,o),
(29,194,o),
(29,88,cs),
(29,74,o),
(29,61,o),
(32,48,c),
(32,46,l),
(33,44,l),
(33,16,o),
(43,8,o),
(71,8,cs),
(81,8,o),
(171,18,o),
(179,22,c),
(184,25,o),
(190,28,o),
(190,34,cs),
(190,43,o),
(178,47,o),
(172,50,cs),
(164,54,o),
(162,80,o),
(162,89,cs),
(162,107,o),
(163,126,o),
(167,144,c),
(188,227,o),
(221,340,o),
(325,340,cs),
(329,340,o),
(333,339,o),
(337,339,c),
(327,264,o),
(302,128,o),
(302,54,cs),
(302,43,o),
(304,27,o),
(308,17,c),
(308,4,o),
(367,3,o),
(375,3,cs),
(391,3,o),
(476,6,o),
(476,30,cs),
(476,42,o),
(454,38,o),
(444,58,c),
(439,69,o),
(437,80,o),
(437,92,cs),
(437,139,o),
(449,186,o),
(455,233,cs),
(460,274,o),
(467,315,o),
(472,356,c),
(481,360,o),
(491,360,o),
(501,360,cs),
(542,360,o),
(570,337,o),
(579,297,cs),
(590,249,o),
(588,195,o),
(589,146,c),
(589,128,o),
(590,33,o),
(598,19,c),
(607,2,o),
(635,-2,o),
(653,-2,cs),
(689,-2,o),
(727,6,o),
(761,16,c),
(770,-47,o),
(822,-72,o),
(880,-72,cs),
(888,-72,o),
(922,-71,o),
(922,-59,c)
);
}
);
width = 961;
}
);
unicode = 4626;
},
{
glyphname = uni1213;
layers = (
{
layerId = "5B9FE6CD-9A20-4D75-8A4E-A5261DDE1CE6";
shapes = (
{
closed = 1;
nodes = (
(734,26,o),
(726,30,o),
(721,33,c),
(704,44,o),
(704,75,o),
(704,93,cs),
(704,138,o),
(711,183,o),
(711,228,cs),
(711,334,o),
(701,414,o),
(574,414,cs),
(539,414,o),
(495,409,o),
(461,400,c),
(474,465,o),
(493,591,o),
(493,654,cs),
(493,705,o),
(472,704,o),
(426,704,cs),
(407,704,o),
(328,699,o),
(328,685,cs),
(328,677,o),
(341,668,o),
(347,664,c),
(362,653,o),
(358,617,o),
(358,602,cs),
(358,529,o),
(354,461,o),
(329,392,c),
(203,392,o),
(89,361,o),
(38,237,cs),
(32,223,o),
(28,209,o),
(28,194,cs),
(28,163,o),
(54,160,o),
(79,160,cs),
(159,160,ls),
(167,160,o),
(197,162,o),
(197,173,cs),
(197,186,o),
(176,181,o),
(176,211,cs),
(176,222,o),
(179,232,o),
(182,242,cs),
(202,311,o),
(245,368,o),
(323,368,c),
(323,315,o),
(296,248,o),
(296,186,cs),
(296,177,o),
(296,163,o),
(301,155,c),
(305,136,o),
(348,136,o),
(362,136,cs),
(375,136,o),
(459,139,o),
(459,154,cs),
(459,158,o),
(419,182,o),
(429,229,cs),
(461,376,l),
(468,379,o),
(476,380,o),
(484,380,cs),
(602,380,o),
(535,77,o),
(563,28,cs),
(576,5,o),
(620,0,o),
(644,0,cs),
(656,0,o),
(734,7,o),
(734,19,cs)
);
}
);
width = 773;
}
);
unicode = 4627;
},
{
glyphname = uni1214;
layers = (
{
layerId = "5B9FE6CD-9A20-4D75-8A4E-A5261DDE1CE6";
shapes = (
{
closed = 1;
nodes = (
(930,186,o),
(898,232,o),
(853,232,cs),
(733,232,l),
(720,304,o),
(729,408,o),
(625,408,cs),
(579,408,o),
(533,392,o),
(487,392,c),
(499,462,o),
(514,557,o),
(514,630,cs),
(514,675,o),
(507,680,o),
(461,680,cs),
(440,680,o),
(340,678,o),
(340,658,cs),
(340,648,o),
(353,642,o),
(361,639,c),
(377,632,o),
(373,601,o),
(373,588,cs),
(373,516,o),
(367,444,o),
(350,374,c),
(295,366,o),
(233,360,o),
(180,341,cs),
(77,305,o),
(29,207,o),
(29,103,cs),
(29,22,o),
(44,24,o),
(119,24,cs),
(129,24,o),
(190,16,o),
(190,36,cs),
(190,52,o),
(169,43,o),
(169,90,cs),
(169,171,o),
(220,342,o),
(321,342,cs),
(328,342,o),
(336,341,o),
(343,339,c),
(335,283,o),
(326,228,o),
(317,172,cs),
(311,131,o),
(302,92,o),
(302,50,cs),
(302,5,o),
(325,8,o),
(363,8,cs),
(381,8,o),
(451,11,o),
(464,23,c),
(467,24,o),
(471,27,o),
(471,31,cs),
(471,36,o),
(451,52,o),
(446,61,c),
(447,70,o),
(444,84,o),
(444,94,cs),
(444,168,o),
(469,290,o),
(483,366,c),
(492,366,o),
(500,368,o),
(509,368,cs),
(656,368,o),
(550,43,o),
(614,9,cs),
(628,2,o),
(645,0,o),
(660,0,cs),
(690,0,o),
(718,7,o),
(747,12,cs),
(817,24,o),
(930,55,o),
(930,144,cs)
);
},
{
closed = 1;
nodes = (
(728,48,o),
(733,103,o),
(733,123,cs),
(733,206,l),
(741,206,o),
(750,208,o),
(758,208,cs),
(795,208,o),
(810,185,o),
(810,150,cs),
(810,120,o),
(797,48,o),
(757,48,cs)
);
}
);
width = 966;
}
);
unicode = 4628;
},
{
glyphname = uni1215;
layers = (
{
layerId = "5B9FE6CD-9A20-4D75-8A4E-A5261DDE1CE6";
shapes = (
{
closed = 1;
nodes = (
(752,34,o),
(729,32,o),
(725,59,cs),
(721,88,o),
(724,118,o),
(724,147,cs),
(724,214,o),
(726,366,o),
(654,401,cs),
(637,409,o),
(618,411,o),
(600,411,cs),
(577,411,o),
(475,392,o),
(473,392,c),
(482,454,o),
(493,523,o),
(493,586,cs),
(493,609,o),
(494,621,o),
(467,621,cs),
(434,621,o),
(387,606,o),
(352,601,c),
(352,606,o),
(353,619,o),
(351,624,c),
(352,626,l),
(352,629,ls),
(352,729,o),
(289,728,o),
(209,728,cs),
(204,728,o),
(172,730,o),
(172,722,c),
(186,693,o),
(197,679,o),
(197,645,cs),
(197,617,o),
(191,605,o),
(182,580,c),
(184,577,o),
(187,576,o),
(190,576,cs),
(217,576,o),
(344,585,o),
(358,590,c),
(358,523,o),
(359,433,o),
(347,368,c),
(309,358,o),
(270,355,o),
(232,347,cs),
(200,340,o),
(172,333,o),
(144,315,cs),
(63,263,o),
(29,164,o),
(29,72,cs),
(29,33,o),
(29,3,o),
(75,3,cs),
(94,3,o),
(194,12,o),
(194,31,cs),
(194,38,o),
(178,43,o),
(173,60,cs),
(168,78,o),
(169,96,o),
(169,114,cs),
(169,123,o),
(171,129,o),
(173,138,c),
(199,231,o),
(218,340,o),
(338,340,c),
(326,264,o),
(302,126,o),
(302,56,cs),
(302,8,o),
(312,3,o),
(358,3,cs),
(373,3,o),
(470,8,o),
(470,23,cs),
(470,33,o),
(453,40,o),
(446,45,cs),
(438,51,o),
(437,79,o),
(437,88,cs),
(437,138,o),
(447,191,o),
(452,241,cs),
(456,282,o),
(462,322,o),
(469,363,c),
(479,365,o),
(490,368,o),
(500,368,cs),
(514,368,o),
(532,364,o),
(544,356,cs),
(585,328,o),
(585,198,o),
(587,152,cs),
(589,112,o),
(596,70,o),
(595,30,c),
(602,10,o),
(618,0,o),
(639,0,cs),
(662,0,o),
(685,6,o),
(707,9,c),
(719,16,o),
(742,8,o),
(752,23,c)
);
}
);
width = 779;
}
);
unicode = 4629;
},
{
glyphname = uni1216;
layers = (
{
layerId = "5B9FE6CD-9A20-4D75-8A4E-A5261DDE1CE6";
shapes = (
{
closed = 1;
nodes = (
(739,142,o),
(716,144,o),
(714,166,cs),
(706,242,o),
(713,406,o),
(602,406,cs),
(559,406,o),
(515,391,o),
(473,384,c),
(483,459,o),
(493,539,o),
(493,614,cs),
(493,660,o),
(491,672,o),
(442,672,cs),
(427,672,o),
(331,659,o),
(326,655,c),
(323,653,o),
(320,650,o),
(319,647,c),
(319,636,o),
(348,638,o),
(355,616,c),
(361,599,o),
(356,581,o),
(356,564,cs),
(356,494,o),
(357,435,o),
(342,365,c),
(301,356,o),
(259,354,o),
(219,344,cs),
(61,305,o),
(29,205,o),
(29,55,cs),
(29,16,o),
(32,0,o),
(76,0,cs),
(94,0,o),
(183,6,o),
(183,24,cs),
(183,32,o),
(175,36,o),
(169,39,c),
(162,43,o),
(162,74,o),
(162,82,cs),
(162,164,o),
(214,339,o),
(315,339,cs),
(321,339,o),
(326,338,o),
(332,337,c),
(332,314,o),
(325,289,o),
(322,266,cs),
(317,230,o),
(311,194,o),
(311,157,cs),
(311,112,o),
(315,104,o),
(363,104,cs),
(379,104,o),
(474,111,o),
(474,130,cs),
(474,135,o),
(466,140,o),
(462,142,c),
(445,153,o),
(444,184,o),
(444,202,cs),
(444,255,o),
(455,304,o),
(464,357,c),
(472,361,l),
(484,361,ls),
(595,361,o),
(552,172,o),
(575,120,cs),
(583,102,o),
(606,104,o),
(623,104,cs),
(654,104,o),
(683,119,o),
(712,120,c),
(715,122,o),
(718,122,o),
(721,123,c),
(722,124,l),
(728,125,o),
(735,127,o),
(739,133,c)
);
}
);
width = 790;
}
);
unicode = 4630;
},
{
glyphname = uni1217;
layers = (
{
layerId = "5B9FE6CD-9A20-4D75-8A4E-A5261DDE1CE6";
shapes = (
{
closed = 1;
nodes = (
(914,-12,o),
(906,9,o),
(906,40,cs),
(906,62,o),
(913,85,o),
(913,106,cs),
(913,112,o),
(900,112,o),
(896,112,c),
(889,108,o),
(882,104,o),
(874,104,cs),
(707,104,l),
(704,116,o),
(704,129,o),
(704,141,cs),
(704,186,o),
(711,231,o),
(711,276,cs),
(711,382,o),
(701,462,o),
(574,462,cs),
(539,462,o),
(495,457,o),
(461,448,c),
(474,513,o),
(493,639,o),
(493,702,cs),
(493,753,o),
(472,752,o),
(426,752,cs),
(407,752,o),
(328,747,o),
(328,733,cs),
(328,725,o),
(341,716,o),
(347,712,c),
(362,701,o),
(358,665,o),
(358,650,cs),
(358,577,o),
(354,509,o),
(329,440,c),
(323,440,ls),
(199,440,o),
(88,406,o),
(38,285,cs),
(32,271,o),
(28,257,o),
(28,242,cs),
(28,198,o),
(89,208,o),
(117,208,c),
(118,208,o),
(197,203,o),
(197,221,cs),
(197,234,o),
(176,229,o),
(176,259,cs),
(176,270,o),
(179,280,o),
(182,290,cs),
(202,359,o),
(245,416,o),
(323,416,c),
(323,363,o),
(296,296,o),
(296,234,cs),
(296,225,o),
(296,211,o),
(301,203,c),
(305,184,o),
(348,184,o),
(362,184,cs),
(376,184,o),
(459,187,o),
(459,202,cs),
(459,205,o),
(419,231,o),
(429,277,cs),
(461,424,l),
(468,427,o),
(476,428,o),
(484,428,cs),
(561,428,o),
(556,306,o),
(556,254,cs),
(556,208,o),
(552,158,o),
(557,112,c),
(537,103,o),
(510,104,o),
(488,104,cs),
(447,104,o),
(404,112,o),
(361,112,cs),
(351,112,o),
(334,114,o),
(334,100,cs),
(334,85,o),
(338,69,o),
(338,53,cs),
(338,22,o),
(319,-8,o),
(302,-33,c),
(302,-42,o),
(327,-40,o),
(332,-40,cs),
(411,-40,o),
(479,-2,o),
(501,78,c),
(585,78,o),
(670,81,o),
(754,80,c),
(766,4,o),
(823,-48,o),
(900,-48,cs),
(905,-48,o),
(928,-46,o),
(928,-39,c)
);
}
);
width = 773;
}
);
unicode = 4631;
},
{
glyphname = uni1218;
layers = (
{
layerId = "5B9FE6CD-9A20-4D75-8A4E-A5261DDE1CE6";
shapes = (
{
closed = 1;
nodes = (
(925,351,o),
(943,476,o),
(943,527,cs),
(943,549,o),
(933,603,o),
(920,620,cs),
(910,633,o),
(873,645,o),
(857,645,cs),
(817,645,o),
(777,636,o),
(738,630,c),
(738,656,l),
(591,656,o),
(442,642,o),
(296,626,cs),
(253.921,621.325,o),
(172.782,573.316,o),
(142,544,cs),
(82,486,o),
(29,390,o),
(29,304,cs),
(29,241,o),
(65,208,o),
(128,208,cs),
(139,208,o),
(150,210,o),
(161,213,c),
(162,214,l),
(177,219,o),
(192,223,o),
(208,227,cs),
(259,239,o),
(382,220,o),
(409,270,cs),
(430,309,o),
(444,353,o),
(461,394,cs),
(476,431,o),
(492,469,o),
(506,507,cs),
(513,525,o),
(545,611,o),
(551,619,cs),
(557,627,o),
(570,632,o),
(580,632,cs),
(600,632,o),
(605,617,o),
(605,600,c),
(605,599,o),
(574,472,o),
(571,460,cs),
(563,425,o),
(554,388,o),
(554,352,cs),
(554,314,o),
(575,291,o),
(614,291,cs),
(632,291,o),
(654,298,o),
(671,303,cs),
(707,314,o),
(772,316,o),
(810,320,cs),
(829,322,o),
(850,324,o),
(869,331,cs)
);
},
{
closed = 1;
nodes = (
(706,319,o),
(698,338,o),
(698,360,cs),
(698,432,o),
(721,543,o),
(736,616,c),
(754,616,ls),
(803,616,o),
(806,570,o),
(806,532,cs),
(806,490,o),
(793,319,o),
(732,319,cs)
);
},
{
closed = 1;
nodes = (
(409,590,o),
(402,564,o),
(393,538,cs),
(373,479,o),
(308,343,o),
(275,294,cs),
(262,275,o),
(247,262,o),
(223,262,cs),
(195,262,o),
(180,286,o),
(180,312,cs),
(180,398,o),
(226,490,o),
(275,558,cs),
(312.399,611.147,o),
(359.098,616,o),
(419,616,c)
);
}
);
width = 986;
}
);
unicode = 4632;
},
{
glyphname = uni1219;
layers = (
{
layerId = "5B9FE6CD-9A20-4D75-8A4E-A5261DDE1CE6";
shapes = (
{
closed = 1;
nodes = (
(1104,386,o),
(1094,405,o),
(1094,429,cs),
(1094,462,o),
(1110,504,o),
(1110,520,cs),
(1110,528,o),
(1099,528,o),
(1094,528,cs),
(1046,528,o),
(969,523,o),
(946,472,c),
(921,472,o),
(894,476,o),
(871,483,c),
(870,491,o),
(873,500,o),
(873,509,cs),
(873,565,o),
(825,656,o),
(761,656,cs),
(723,656,o),
(688,638,o),
(650,636,c),
(650,656,l),
(551,656,o),
(451,647,o),
(352,638,cs),
(321,635,o),
(289,632,o),
(258,632,cs),
(231,632,o),
(206,622,o),
(182,609,cs),
(77,552,o),
(29,429,o),
(29,314,cs),
(29,267,o),
(33,208,o),
(94,208,cs),
(127,208,o),
(158,230,o),
(190,236,cs),
(253,247,o),
(338,230,o),
(381,291,cs),
(425,353,o),
(442,584,o),
(463,611,cs),
(469,619,o),
(477,624,o),
(487,624,cs),
(508,624,o),
(516,597,o),
(516,580,cs),
(516,525,o),
(504,463,o),
(504,404,cs),
(504,342,o),
(507,293,o),
(583,293,cs),
(617,293,o),
(650,302,o),
(683,304,cs),
(779,310,o),
(849,343,o),
(867,446,c),
(888,446,o),
(916,444,o),
(936,448,c),
(936,378,o),
(985,344,o),
(1051,344,cs),
(1064,344,o),
(1116,348,o),
(1116,366,c)
);
},
{
closed = 1;
nodes = (
(635,328,o),
(641,393,o),
(641,419,cs),
(641,450,o),
(644,592,o),
(653,616,c),
(673,616,ls),
(734,616,o),
(734,535,o),
(734,492,cs),
(734,455,o),
(726,328,o),
(675,328,cs)
);
},
{
closed = 1;
nodes = (
(176,266,o),
(166,302,o),
(166,328,cs),
(166,407,o),
(202,608,o),
(306,608,c),
(310,605,o),
(310,597,o),
(310,593,cs),
(310,548,o),
(273,338,o),
(255,301,cs),
(246,282,o),
(231,266,o),
(208,266,cs)
);
}
);
width = 1159;
}
);
unicode = 4633;
},
{
glyphname = uni121A;
layers = (
{
layerId = "5B9FE6CD-9A20-4D75-8A4E-A5261DDE1CE6";
shapes = (
{
closed = 1;
nodes = (
(973,-47,o),
(958,-35,o),
(958,-4,cs),
(958,27,o),
(970,49,o),
(988,74,c),
(988,85,o),
(937,88,o),
(927,88,cs),
(878,88,o),
(815,81,o),
(800,24,c),
(728,24,l),
(709,24,o),
(691,28,o),
(691,51,cs),
(691,83,o),
(731,182,o),
(743,209,cs),
(771,276,o),
(798,344,o),
(825,411,cs),
(851,476,o),
(886,542,o),
(886,614,cs),
(886,637,o),
(881,665,o),
(867,684,cs),
(854,702,o),
(819,720,o),
(797,720,cs),
(769,720,o),
(742,709,o),
(716,701,cs),
(699,696,o),
(680,694,o),
(662,691,c),
(662,712,l),
(527,708,o),
(392,704,o),
(257,704,cs),
(230,704,o),
(204,694,o),
(180,682,cs),
(94,639,o),
(29,578,o),
(29,475,cs),
(29,418,o),
(55,359,o),
(121,359,cs),
(126,359,o),
(210,382,o),
(225,386,cs),
(258,394,o),
(299,392,o),
(333,396,cs),
(360,399,o),
(382,407,o),
(392,434,cs),
(409,478,o),
(459,667,o),
(468,678,c),
(475,686,o),
(484,688,o),
(494,688,cs),
(513,688,o),
(526,674,o),
(526,655,cs),
(526,652,o),
(521,636,o),
(520,632,cs),
(510,594,o),
(497,549,o),
(497,509,cs),
(497,457,o),
(522,437,o),
(572,437,cs),
(610,437,o),
(646,448,o),
(684,448,cs),
(689,448,o),
(694,447,o),
(698,446,c),
(670,362,o),
(554,127,o),
(554,54,cs),
(554,6,o),
(616,-2,o),
(652,-2,cs),
(699,-2,o),
(745,0,o),
(792,0,c),
(792,-68,o),
(844,-88,o),
(903,-88,cs),
(914,-88,o),
(988,-83,o),
(988,-71,c)
);
},
{
closed = 1;
nodes = (
(651,472,o),
(641,501,o),
(641,534,cs),
(641,578,o),
(648,629,o),
(658,672,c),
(672,675,o),
(688,682,o),
(702,682,cs),
(738,682,o),
(749,662,o),
(749,629,cs),
(749,599,o),
(726,472,o),
(689,472,cs)
);
},
{
closed = 1;
nodes = (
(175,406,o),
(166,427,o),
(166,447,cs),
(166,515,o),
(198,580,o),
(235,635,cs),
(249,657,o),
(264,680,o),
(293,680,cs),
(328,680,l),
(329,678,o),
(329,676,o),
(329,674,c),
(329,635,o),
(274,498,o),
(259,457,cs),
(250.166,433.443,o),
(225.174,406,o),
(198,406,cs)
);
}
);
width = 1026;
}
);
unicode = 4634;
},
{
glyphname = uni121B;
layers = (
{
layerId = "5B9FE6CD-9A20-4D75-8A4E-A5261DDE1CE6";
shapes = (
{
closed = 1;
nodes = (
(680,34,o),
(655,32,o),
(655,59,cs),
(655,87,o),
(693,183,o),
(705,217,cs),
(726,276,o),
(744,336,o),
(764,395,cs),
(785,459,o),
(814,529,o),
(814,597,cs),
(814,660,o),
(789,708,o),
(720,708,cs),
(694,708,o),
(643,694,o),
(617,688,c),
(617,692,o),
(618,702,o),
(614,704,c),
(236,704,ls),
(210,704,o),
(185,693,o),
(163,681,cs),
(80,635,o),
(29,542,o),
(29,447,cs),
(29,402,o),
(44,365,o),
(95,365,cs),
(130,365,o),
(164,392,o),
(201,392,cs),
(242,392,o),
(327,381,o),
(349,428,cs),
(372,478,o),
(389,644,o),
(418,671,c),
(425,678,o),
(431,680,o),
(441,680,cs),
(455,680,o),
(461,675,o),
(466,663,c),
(465,658,o),
(468,652,o),
(468,647,cs),
(468,604,o),
(454,562,o),
(454,519,cs),
(454,460,o),
(470,431,o),
(533,431,cs),
(557,431,o),
(582,435,o),
(606,435,cs),
(617,435,o),
(633,435,o),
(643,429,c),
(615,340,o),
(518,149,o),
(518,66,cs),
(518,21,o),
(572,0,o),
(610,0,cs),
(623,0,o),
(680,8,o),
(680,22,cs)
);
},
{
closed = 1;
nodes = (
(627,457,o),
(620,462,o),
(614,467,cs),
(591,487,o),
(590,511,o),
(590,540,cs),
(590,581,o),
(594,623,o),
(599,664,c),
(626,664,ls),
(666,664,o),
(677,645,o),
(677,607,cs),
(677,586,o),
(660,457,o),
(635,457,cs)
);
},
{
closed = 1;
nodes = (
(164,416,o),
(158,440,o),
(158,459,cs),
(158,523,o),
(189,580,o),
(219,634,c),
(224,642,o),
(234,663,o),
(241,669,cs),
(252,678,o),
(269,680,o),
(282,680,c),
(283,677,o),
(284,674,o),
(284,671,cs),
(284,633,o),
(241,449,o),
(216,428,cs),
(208,421,o),
(198,416,o),
(187,416,cs)
);
}
);
width = 853;
}
);
unicode = 4635;
},
{
glyphname = uni121C;
layers = (
{
layerId = "5B9FE6CD-9A20-4D75-8A4E-A5261DDE1CE6";
shapes = (
{
closed = 1;
nodes = (
(925,25,o),
(936,74,o),
(936,139,cs),
(936,185,o),
(922,219,o),
(869,219,cs),
(839,219,o),
(809,208,o),
(779,208,cs),
(770,208,o),
(761,209,o),
(752,211,c),
(788,325,o),
(871,500,o),
(871,615,cs),
(871,678,o),
(847,720,o),
(780,720,cs),
(739,720,o),
(689,712,o),
(649,700,c),
(649,709,l),
(575,709,o),
(501,706,o),
(427,704,cs),
(371,702,o),
(298,702,o),
(244,691,cs),
(220,686,o),
(196,676,o),
(174,667,cs),
(77,625,o),
(29,554,o),
(29,446,cs),
(29,394,o),
(37,367,o),
(87,347,c),
(98,343,o),
(110,340,o),
(122,340,cs),
(173,340,o),
(195,371,o),
(224,375,cs),
(277,382,o),
(346,360,o),
(379,416,cs),
(398,447,o),
(414,490,o),
(423,525,cs),
(431,558,o),
(446,645,o),
(455,668,cs),
(459,679,o),
(471,685,o),
(482,685,cs),
(502,685,o),
(509,670,o),
(509,653,cs),
(509,614,o),
(482,549,o),
(482,499,cs),
(482,444,o),
(512,432,o),
(561,432,cs),
(597,432,o),
(632,440,o),
(668,440,cs),
(676,440,o),
(687,440,o),
(694,436,c),
(686,401,o),
(665,363,o),
(650,330,cs),
(623,270,o),
(554,113,o),
(554,51,cs),
(554,7,o),
(600,0,o),
(634,0,cs),
(656,0,o),
(674,5,o),
(695,8,cs),
(712,10,o),
(731,9,o),
(748,10,cs),
(781,12,o),
(815,15,o),
(848,18,cs)
);
},
{
closed = 1;
nodes = (
(661,672,o),
(682,674,o),
(701,674,cs),
(736,674,o),
(742,657,o),
(742,625,cs),
(742,601,o),
(716,485,o),
(698,469,c),
(694,466,o),
(689,464,o),
(684,464,cs),
(640,464,o),
(626,503,o),
(626,540,cs),
(626,583,o),
(634,628,o),
(642,670,c)
);
},
{
closed = 1;
nodes = (
(698,73,o),
(710,104,o),
(716,123,cs),
(718,129,o),
(734,183,o),
(740,183,cs),
(744,183,o),
(749,184,o),
(753,184,cs),
(786,184,o),
(799,171,o),
(799,138,cs),
(799,99,o),
(783,32,o),
(734,32,cs),
(718,32,o),
(704,38,o),
(698,54,c)
);
},
{
closed = 1;
nodes = (
(174,393,o),
(166,422,o),
(166,442,cs),
(166,496,o),
(215,646,o),
(266,668,cs),
(283,675,o),
(302,676,o),
(320,676,c),
(321,673,o),
(322,669,o),
(322,666,cs),
(322,624,o),
(275,476,o),
(254,436,cs),
(242,414,o),
(225,393,o),
(198,393,cs)
);
}
);
width = 977;
}
);
unicode = 4636;
},
{
glyphname = uni121D;
layers = (
{
layerId = "5B9FE6CD-9A20-4D75-8A4E-A5261DDE1CE6";
shapes = (
{
closed = 1;
nodes = (
(793,412,o),
(821,479,o),
(821,552,cs),
(821,607,o),
(790,688,o),
(724,688,cs),
(709,688,o),
(623,662,o),
(598,656,c),
(597,685,l),
(518,682,o),
(438,674,o),
(359,669,cs),
(327,667,o),
(294,664,o),
(262,664,cs),
(225.782,664,o),
(161.017,636.538,o),
(131,616,cs),
(68,575,o),
(29,478,o),
(29,405,cs),
(29,329,o),
(68,320,o),
(134,320,cs),
(170,320,o),
(209,323,o),
(245,329,c),
(202,245,o),
(50,121,o),
(50,26,cs),
(50,18,o),
(52,11,o),
(59,6,c),
(71,-2,o),
(166,-2,o),
(188,-2,cs),
(198,-2,o),
(223,2,o),
(223,15,cs),
(223,28,o),
(209,26,o),
(209,42,cs),
(209,88,o),
(390,293,o),
(399,329,cs),
(411,378,o),
(418,632,o),
(424,640,cs),
(431,649,o),
(440,653,o),
(451,653,cs),
(461,653,o),
(472,647,o),
(473,636,c),
(478,597,o),
(490,422,o),
(519,400,cs),
(534,389,o),
(553,386,o),
(571,386,cs),
(601,386,o),
(624,397,o),
(650,400,cs),
(671,402,o),
(693,399,o),
(714,402,cs)
);
},
{
closed = 1;
nodes = (
(642,424,o),
(631,432,o),
(622,442,cs),
(604,463,o),
(598,575,o),
(598,606,cs),
(598,613,o),
(598,621,o),
(599,628,c),
(608,629,o),
(619,632,o),
(628,632,cs),
(677,632,o),
(691,557,o),
(691,520,cs),
(691,497,o),
(691,424,o),
(656,424,cs)
);
},
{
closed = 1;
nodes = (
(262,342,o),
(247,339,o),
(236,339,cs),
(176,339,o),
(166,386,o),
(166,436,cs),
(166,498,o),
(189,641,o),
(271,641,c),
(274.825,641,o),
(279.682,640.953,o),
(281,637,c),
(285,622,o),
(284,600,o),
(284,585,cs),
(284,550,o),
(278,371,o),
(268,353,cs)
);
}
);
width = 869;
}
);
unicode = 4637;
},
{
glyphname = uni121E;
layers = (
{
layerId = "5B9FE6CD-9A20-4D75-8A4E-A5261DDE1CE6";
shapes = (
{
closed = 1;
nodes = (
(813,623,o),
(778,728,o),
(702,728,cs),
(666,728,o),
(624,717,o),
(590,704,c),
(514,704,o),
(435,692,o),
(359,686,cs),
(327,683,o),
(295,680,o),
(263,680,cs),
(240,680,o),
(218,673,o),
(197,666,cs),
(89,628,o),
(29,535,o),
(29,421,cs),
(29,374,o),
(45,310,o),
(103,310,cs),
(152,310,o),
(205,344,o),
(249,344,c),
(249,252,o),
(223,158,o),
(223,64,cs),
(223,20,o),
(220,0,o),
(272,0,cs),
(288,0,o),
(388,14,o),
(388,30,cs),
(388,38,o),
(368,47,o),
(363,64,c),
(360,76,o),
(360,89,o),
(360,101,cs),
(360,174,o),
(411,655,o),
(422,668,cs),
(428,675,o),
(435,683,o),
(445,683,cs),
(452,683,o),
(456,677,o),
(459,672,c),
(464,619,o),
(485,402,o),
(509,365,c),
(518,352,o),
(529,347,o),
(545,347,cs),
(582,347,o),
(622,374,o),
(654,392,c),
(764,392,o),
(804,442,o),
(812,548,c),
(812,552,o),
(813,557,o),
(813,560,cs)
);
},
{
closed = 1;
nodes = (
(694,439,o),
(680,416,o),
(648,416,cs),
(634,416,o),
(625,427,o),
(619,438,cs),
(608,458,o),
(581,629,o),
(581,659,cs),
(581,664,o),
(581,670,o),
(582,675,c),
(593,677,o),
(605,680,o),
(617,680,cs),
(690,680,o),
(686,565,o),
(691,515,cs),
(693,499,o),
(694,484,o),
(694,468,cs)
);
},
{
closed = 1;
nodes = (
(253,369,o),
(235,368,o),
(222,368,cs),
(169,368,o),
(166,410,o),
(166,452,cs),
(166,500,o),
(186,619,o),
(230,646,cs),
(241,653,o),
(254,656,o),
(267,656,cs),
(283,656,l),
(284,652,o),
(284,648,o),
(284,644,cs),
(284,571,o),
(265,462,o),
(255,385,cs)
);
}
);
width = 851;
}
);
unicode = 4638;
},
{
glyphname = uni121F;
layers = (
{
layerId = "5B9FE6CD-9A20-4D75-8A4E-A5261DDE1CE6";
shapes = (
{
closed = 1;
nodes = (
(874,-14,o),
(866,9,o),
(866,35,cs),
(866,45,o),
(871,96,o),
(865,102,c),
(859,103,o),
(853,104,o),
(847,104,cs),
(640,104,l),
(640,232,o),
(746,443,o),
(778,578,cs),
(785,606,o),
(796,637,o),
(796,667,cs),
(796,722,o),
(794,771,o),
(733,793,cs),
(725,796,o),
(715,800,o),
(707,800,cs),
(671,800,o),
(636,784,o),
(600,784,cs),
(221,784,ls),
(195,784,o),
(171,771,o),
(149,758,cs),
(62,708,o),
(29,622,o),
(29,524,cs),
(29,473,o),
(39,430,o),
(99,430,cs),
(128,430,o),
(151,457,o),
(172,458,cs),
(208,460,o),
(244,461,o),
(279,465,cs),
(306,468,o),
(337,478,o),
(347,506,cs),
(368,565,o),
(365,728,o),
(411,758,c),
(416,758,o),
(420,760,o),
(425,760,cs),
(446,760,o),
(454,738,o),
(454,720,cs),
(454,680,o),
(444,640,o),
(444,600,cs),
(444,554,o),
(454,519,o),
(507,519,cs),
(538,519,o),
(605,525,o),
(625,515,c),
(583,400,o),
(500,223,o),
(500,104,c),
(439,101,o),
(379,96,o),
(318,96,cs),
(297.778,96,o),
(291,90.387,o),
(291,70,cs),
(291,63,o),
(291,54,o),
(293,48,c),
(293,-15,o),
(285,-4,o),
(257,-55,c),
(257,-61,o),
(270,-64,o),
(274,-64,cs),
(361,-64,o),
(441,-16,o),
(459,73,c),
(533,73,o),
(607,80,o),
(681,80,cs),
(704,80,l),
(704,-9,o),
(784,-46,o),
(862,-46,cs),
(865,-46,o),
(883,-46,o),
(881,-39,cs)
);
},
{
closed = 1;
nodes = (
(574,544,o),
(570,597,o),
(570,626,cs),
(570,665,o),
(574,705,o),
(574,744,c),
(612,744,ls),
(649,744,o),
(654,719,o),
(654,688,cs),
(654,664,o),
(647,544,o),
(616,544,cs)
);
},
{
closed = 1;
nodes = (
(152,482,o),
(148,506,o),
(148,523,cs),
(148,577,o),
(180,717,o),
(226,749,cs),
(238,757,o),
(252,760,o),
(266,760,c),
(267,757,o),
(267,753,o),
(267,750,cs),
(267,698,o),
(235,587,o),
(222,531,cs),
(218,512,o),
(195,482,o),
(174,482,cs)
);
}
);
width = 900;
}
);
unicode = 4639;
},
{
glyphname = uni1220;
layers = (
{
layerId = "5B9FE6CD-9A20-4D75-8A4E-A5261DDE1CE6";
shapes = (
{
closed = 1;
nodes = (
(764,360,o),
(774,432,o),
(774,504,cs),
(774,525,o),
(773,583,o),
(752,593,c),
(743,597,o),
(723,597,o),
(713,597,cs),
(699,597,o),
(619,593,o),
(619,573,cs),
(619,569,o),
(634,547,o),
(634,526,cs),
(634,495,o),
(631,466,o),
(628,436,cs),
(624,393,o),
(618,319,o),
(560,319,cs),
(533,319,o),
(486,377,o),
(486,402,cs),
(486,406,o),
(504,465,o),
(506,474,c),
(514,503,o),
(521,534,o),
(521,564,cs),
(521,599,o),
(515,624,o),
(476,624,cs),
(456,624,o),
(352,621,o),
(352,597,cs),
(352,581,o),
(381,589,o),
(381,549,cs),
(381,545,l),
(380,539,l),
(378,536,l),
(374,490,o),
(311,290,o),
(292,263,cs),
(276,241,o),
(245,232,o),
(219,232,cs),
(196,232,o),
(169,240,o),
(169,268,cs),
(169,345,o),
(247,472,o),
(247,580,cs),
(247,614,o),
(246,624,o),
(209,624,cs),
(192,624,o),
(147,619,o),
(134,614,c),
(124,614,o),
(89,609,o),
(89,596,cs),
(89,591,o),
(105,585,o),
(105,554,cs),
(105,487,o),
(29,369,o),
(29,276,cs),
(29,231,o),
(62,192,o),
(108,192,cs),
(145,192,o),
(182,208,o),
(220,208,cs),
(231,208,o),
(242,204,o),
(253,204,cs),
(363,204,o),
(386,216,o),
(452,297,c),
(465,284,o),
(482,276,o),
(501,276,cs),
(533,276,o),
(555,290,o),
(583,296,cs),
(621,304,o),
(657,304,o),
(693,323,cs)
);
}
);
width = 814;
}
);
unicode = 4640;
},
{
glyphname = uni1221;
layers = (
{
layerId = "5B9FE6CD-9A20-4D75-8A4E-A5261DDE1CE6";
shapes = (
{
closed = 1;
nodes = (
(917,252,o),
(887,285,o),
(889,316,c),
(887,320,l),
(887,323,ls),
(887,347,o),
(896,371,o),
(896,394,cs),
(896,401,o),
(893,404,o),
(886,404,cs),
(841,404,o),
(772,368,o),
(721,368,c),
(752,407,o),
(761,467,o),
(761,515,cs),
(761,536,o),
(758,554,o),
(754,574,cs),
(747,611,o),
(723,609,o),
(689,609,cs),
(675,609,o),
(605,607,o),
(605,591,cs),
(605,584,o),
(614,580,o),
(618,575,cs),
(628,563,o),
(627,544,o),
(627,530,cs),
(627,490,o),
(618,418,o),
(608,378,cs),
(601,350,o),
(586,328,o),
(554,328,cs),
(525,328,o),
(479,382,o),
(479,410,cs),
(479,423,o),
(487,444,o),
(490,457,cs),
(498,494,o),
(507,532,o),
(507,570,cs),
(507,603,o),
(501,624,o),
(464,624,cs),
(450,624,o),
(355,618,o),
(347,605,c),
(346,603,o),
(346,598,o),
(346,597,c),
(346,584,o),
(366,584,o),
(366,547,cs),
(366,508,o),
(297,292,o),
(278,265,cs),
(265,246,o),
(235,232,o),
(212,232,cs),
(191,232,o),
(169,246,o),
(169,269,cs),
(169,360,o),
(247,498,o),
(247,591,cs),
(247,622,o),
(229,618,o),
(204,618,cs),
(186,618,o),
(85,613,o),
(85,594,c),
(92,577,o),
(105,582,o),
(105,552,cs),
(105,521,o),
(90,489,o),
(79,461,cs),
(60,410,o),
(29,324,o),
(29,269,cs),
(29,224,o),
(63,176,o),
(111,176,cs),
(151,176,o),
(183,208,o),
(219,208,cs),
(238,208,o),
(257,200,o),
(277,200,cs),
(368,200,o),
(392,245,o),
(441,308,c),
(455,292,o),
(470,288,o),
(491,288,cs),
(522,288,o),
(545,303,o),
(574,309,cs),
(614,317,o),
(679,311,o),
(711,343,c),
(761,344,l),
(761,283,o),
(778,224,o),
(850,224,cs),
(861,224,o),
(917,231,o),
(917,242,cs)
);
}
);
width = 955;
}
);
unicode = 4641;
},
{
glyphname = uni1222;
layers = (
{
layerId = "5B9FE6CD-9A20-4D75-8A4E-A5261DDE1CE6";
shapes = (
{
closed = 1;
nodes = (
(805,-55,o),
(796,-42,o),
(796,-6,cs),
(796,19,o),
(801,54,o),
(812,76,c),
(812,86,o),
(789,88,o),
(782,88,cs),
(743,88,o),
(701,81,o),
(684,41,c),
(680,42,o),
(676,40,o),
(672,40,cs),
(657,40,o),
(584,35,o),
(575,53,c),
(572,60,o),
(570,69,o),
(570,76,cs),
(570,172,o),
(618,287,o),
(648,378,cs),
(670,445,o),
(698,508,o),
(698,581,cs),
(698,652,o),
(657,640,o),
(600,640,cs),
(583,640,o),
(538,643,o),
(538,621,cs),
(538,610,o),
(563,601,o),
(563,574,cs),
(563,550,o),
(537,426,o),
(521,418,c),
(518,418,l),
(516,417,l),
(485,417,o),
(442,482,o),
(442,512,cs),
(442,522,o),
(447,531,o),
(446,542,c),
(447,545,o),
(451,566,o),
(451,570,cs),
(451,618,o),
(442,624,o),
(396,624,cs),
(384,624,o),
(296,626,o),
(296,605,cs),
(296,601,o),
(299,599,o),
(302,598,c),
(309,593,o),
(311,574,o),
(311,566,cs),
(311,563,l),
(309,558,o),
(309,551,o),
(308,545,cs),
(300,490,o),
(299,429,o),
(248,397,cs),
(234,388,o),
(221,384,o),
(204,384,cs),
(189,384,o),
(169,395,o),
(169,412,cs),
(169,455,o),
(204,521,o),
(204,577,cs),
(204,597,o),
(207,633,o),
(178,633,cs),
(160,633,o),
(61,626,o),
(61,609,cs),
(61,598,o),
(77,604,o),
(77,579,cs),
(77,525,o),
(29,471,o),
(29,407,cs),
(29,364,o),
(56,346,o),
(97,346,cs),
(131,346,o),
(164,360,o),
(197,360,cs),
(325,360,o),
(316,360,o),
(414,440,c),
(449,419,o),
(479,406,o),
(519,397,c),
(489,312,o),
(429,142,o),
(429,57,cs),
(429,11,o),
(464,3,o),
(503,3,cs),
(540,3,o),
(577,16,o),
(614,16,cs),
(636,16,o),
(657,12,o),
(675,-2,c),
(675,-65,o),
(722,-96,o),
(781,-96,cs),
(790,-96,o),
(823,-91,o),
(823,-83,c)
);
}
);
width = 860;
}
);
unicode = 4642;
},
{
glyphname = uni1223;
layers = (
{
layerId = "5B9FE6CD-9A20-4D75-8A4E-A5261DDE1CE6";
shapes = (
{
closed = 1;
nodes = (
(593,33,o),
(563,32,o),
(563,71,cs),
(563,123.14,o),
(609.437,258.942,o),
(629,316,cs),
(647,368,o),
(675,437,o),
(683,493,cs),
(688.384,537.148,o),
(689,581.583,o),
(689,626,c),
(687,643,o),
(586,641,o),
(573,641,cs),
(563,641,o),
(548,642,o),
(539,637,c),
(539,625,o),
(549,612,o),
(549,598,cs),
(549,548,o),
(533,478,o),
(517,431,c),
(473,431,o),
(429,498,o),
(429,539,cs),
(429,562,o),
(444,586,o),
(444,609,cs),
(444,627,o),
(437,640,o),
(417,640,c),
(315,638,l),
(308,638,o),
(296,637,o),
(296,627,cs),
(296,611,o),
(317,608,o),
(317,572,cs),
(317,541,o),
(306,511,o),
(299,481,cs),
(288,435,o),
(265,392,o),
(210,392,cs),
(193,392,o),
(169,402,o),
(169,422,cs),
(169,434,o),
(199,530,o),
(203,537,c),
(202,555,o),
(212,576,o),
(212,596,cs),
(212,643,o),
(186,640,o),
(148,640,cs),
(136,640,o),
(58,647,o),
(58,621,cs),
(58,611,o),
(70,615,o),
(70,588,cs),
(70,563,o),
(50,509,o),
(41,483,c),
(41,481,o),
(41,480,o),
(40,478,c),
(33,456,o),
(29,434,o),
(29,411,cs),
(29,370,o),
(52,348,o),
(93,348,cs),
(132,348,o),
(170,368,o),
(208,368,cs),
(301,368,o),
(355,370,o),
(402,456,c),
(439,436,o),
(471,413,o),
(514,406,c),
(485,319,o),
(429,150,o),
(429,59,cs),
(429,12,o),
(464,0,o),
(505,0,cs),
(519,0,o),
(593,1,o),
(593,16,cs)
);
}
);
width = 733;
}
);
unicode = 4643;
},
{
glyphname = uni1224;
layers = (
{
layerId = "5B9FE6CD-9A20-4D75-8A4E-A5261DDE1CE6";
shapes = (
{
closed = 1;
nodes = (
(845,205,o),
(767,214,o),
(714,214,cs),
(679,214,o),
(643,216,o),
(608,216,c),
(627,292,o),
(704,496,o),
(704,569,cs),
(704,635,o),
(695,640,o),
(630,640,cs),
(616,640,o),
(549,642,o),
(549,624,cs),
(549,614,o),
(563,598,o),
(563,565,cs),
(563,523,o),
(536,463,o),
(525,424,c),
(507,424,o),
(494,432,o),
(480,443,cs),
(445,471,o),
(444,499,o),
(444,541,cs),
(444,560,o),
(451,582,o),
(451,596,cs),
(451,617,o),
(446,624,o),
(424,624,cs),
(325,624,ls),
(317,624,o),
(288,625,o),
(288,613,cs),
(288,600,o),
(311,599,o),
(311,569,cs),
(311,550,o),
(306,528,o),
(303,509,cs),
(295,460,o),
(294,433,o),
(248,405,c),
(234,397,o),
(222,392,o),
(206,392,cs),
(191,392,o),
(177,397,o),
(170,411,c),
(170,415,o),
(169,419,o),
(169,423,cs),
(169,434,o),
(179,458,o),
(183,469,cs),
(195,501,o),
(212,563,o),
(212,597,cs),
(212,637,o),
(191,633,o),
(158,633,cs),
(135,633,o),
(110,624,o),
(86,624,cs),
(78,624,o),
(58,624,o),
(58,612,cs),
(58,608,o),
(70,601,o),
(70,579,cs),
(70,537,o),
(29,472,o),
(29,407,cs),
(29,366,o),
(48,347,o),
(89,347,cs),
(130,347,o),
(169,368,o),
(209,368,cs),
(222,368,o),
(235,366,o),
(248,366,cs),
(303,366,o),
(376,381,o),
(407,432,c),
(444,415,o),
(476,400,o),
(517,400,c),
(490,319,o),
(429,134,o),
(429,57,cs),
(429,49,o),
(430,39,o),
(434,32,c),
(440,4,o),
(472,0,o),
(496,0,cs),
(596,0,ls),
(694,0,o),
(845,2,o),
(845,134,cs)
);
},
{
closed = 1;
nodes = (
(570,67,o),
(589,183,o),
(599,185,c),
(619,188,o),
(642,192,o),
(663,192,cs),
(700,192,o),
(725,187,o),
(725,144,cs),
(725,118,o),
(714,85,o),
(705,61,cs),
(695,35,o),
(635,24,o),
(610,24,cs),
(599,24,o),
(570,26,o),
(570,43,cs)
);
}
);
width = 885;
}
);
unicode = 4644;
},
{
glyphname = uni1225;
layers = (
{
layerId = "5B9FE6CD-9A20-4D75-8A4E-A5261DDE1CE6";
shapes = (
{
closed = 1;
nodes = (
(965,544,o),
(964,553,o),
(922,553,cs),
(908,553,o),
(816,552,o),
(816,538,cs),
(816,529,o),
(846,523,o),
(846,483,cs),
(846,426,o),
(835,373,o),
(794,330,cs),
(785,321,o),
(775,312,o),
(761,312,cs),
(725,312,o),
(689,354,o),
(689,389,cs),
(689,402,o),
(718,463,o),
(718,504,cs),
(718,550,o),
(693,550,o),
(655,550,cs),
(644,550,o),
(570,548,o),
(570,532,cs),
(570,527,o),
(575,523,o),
(579,520,c),
(584,511,o),
(584,501,o),
(584,491,cs),
(584,465,ls),
(584,401,o),
(556,356,o),
(519,307,cs),
(504,287,o),
(485,280,o),
(460,280,cs),
(424,280,o),
(396,308,o),
(396,344,cs),
(396,391,o),
(464,436,o),
(464,523,cs),
(464,561,o),
(456,560,o),
(421,560,cs),
(401,560,o),
(315,556,o),
(315,541,cs),
(315,535,o),
(318,528,o),
(323,524,c),
(323,522,l),
(323,511,o),
(324,499,o),
(319,489,cs),
(305,461,o),
(291,435,o),
(274,409,cs),
(238,353,o),
(21,88,o),
(21,31,cs),
(21,18,o),
(24,9,o),
(38,5,cs),
(63,-2,o),
(96,0,o),
(122,0,cs),
(128,0,o),
(183,-5,o),
(183,14,cs),
(183,26,o),
(167,24,o),
(167,41,cs),
(167,78,o),
(314,237,o),
(346,287,c),
(382,266,o),
(414,256,o),
(456,256,cs),
(513,256,o),
(605,280,o),
(644,326,c),
(661,295,o),
(711,288,o),
(743,288,cs),
(880,288,o),
(965,364,o),
(965,504,cs)
);
}
);
width = 1001;
}
);
unicode = 4645;
},
{
glyphname = uni1226;
layers = (
{
layerId = "5B9FE6CD-9A20-4D75-8A4E-A5261DDE1CE6";
shapes = (
{
closed = 1;
nodes = (
(669,623,o),
(666,644,o),
(658,663,cs),
(654,672,o),
(635,672,o),
(627,672,cs),
(613,672,o),
(530,663,o),
(521,654,cs),
(518,651,o),
(517,648,o),
(517,644,cs),
(517,634,o),
(531,630,o),
(535,621,c),
(540,611,o),
(543,566,o),
(543,553,cs),
(543,504,o),
(537,416,o),
(471,416,cs),
(451,416,o),
(424,444,o),
(424,463,cs),
(424,500,o),
(457,550,o),
(457,596,cs),
(457,624,o),
(450,628,o),
(422,628,cs),
(405,628,o),
(302,620,o),
(302,598,cs),
(302,585,o),
(317,594,o),
(317,575,cs),
(317,530,o),
(256,416,o),
(230,376,c),
(221,370,o),
(210,368,o),
(199,368,cs),
(179,368,o),
(162,377,o),
(162,399,cs),
(162,460,o),
(190,518,o),
(190,578,cs),
(190,602,o),
(185,603,o),
(164,603,cs),
(147,603,o),
(35,596,o),
(35,575,cs),
(35,564,o),
(55,568,o),
(55,534,cs),
(55,495,o),
(29,443,o),
(29,387,cs),
(29,351,o),
(41,316,o),
(83,316,cs),
(108,316,o),
(179,333,o),
(200,343,c),
(203,343,l),
(203,344,l),
(203,343,l),
(204,342,l),
(204,309,o),
(64,128,o),
(64,35,cs),
(64,12,o),
(75,0,o),
(98,0,cs),
(111,0,o),
(207,16,o),
(213,23,c),
(214,24,o),
(218,29,o),
(218,31,c),
(218,42,o),
(204,40,o),
(204,57,cs),
(204,72,o),
(212,89,o),
(219,102,cs),
(273,204,o),
(335,301,o),
(387,404,c),
(397,393,o),
(420,392,o),
(434,392,cs),
(502,392,o),
(606,426,o),
(638,491,cs),
(656,528,o),
(669,561,o),
(669,603,cs)
);
}
);
width = 708;
}
);
unicode = 4646;
},
{
glyphname = uni1227;
layers = (
{
layerId = "5B9FE6CD-9A20-4D75-8A4E-A5261DDE1CE6";
shapes = (
{
closed = 1;
nodes = (
(749,0,o),
(739,9,o),
(739,23,cs),
(739,37,o),
(743,50,o),
(743,64,cs),
(743,72,o),
(739,76,o),
(731,76,c),
(594,74,l),
(582,87,o),
(574,99,o),
(574,117,cs),
(574,166,o),
(595,210,o),
(608,257,cs),
(625,315,o),
(644,372,o),
(662,429,cs),
(690.302,521.625,o),
(701,557.839,o),
(701,657,c),
(701,659,o),
(700,664,o),
(699,665,c),
(699,672,ls),
(699,689,o),
(588,687,o),
(570,687,cs),
(564,687,o),
(555,686,o),
(549,683,c),
(554,664,o),
(560,652,o),
(560,632,cs),
(560,602,o),
(528,482,o),
(529,479,c),
(528,477,l),
(484,477,o),
(440,543,o),
(440,585,cs),
(440,609,o),
(455,632,o),
(455,655,cs),
(455,674,o),
(449,686,o),
(428,686,c),
(325,684,l),
(318,684,o),
(306,683,o),
(306,673,cs),
(306,656,o),
(328,654,o),
(328,618,cs),
(328,593,o),
(321,567,o),
(315,543,cs),
(303,493,o),
(283,438,o),
(221,438,cs),
(205,438,o),
(190,443,o),
(183,458,c),
(180,461,o),
(179,464,o),
(179,468,cs),
(179,505,o),
(222,582,o),
(222,642,cs),
(222,697,o),
(180,686,o),
(135,686,cs),
(122,686,o),
(68,689,o),
(68,667,cs),
(68,657,o),
(81,663,o),
(81,634,cs),
(81,578,o),
(39,521,o),
(39,457,cs),
(39,414,o),
(62,394,o),
(104,394,cs),
(143,394,o),
(180,414,o),
(218,414,cs),
(310,414,o),
(365,415,o),
(412,502,c),
(449,483,o),
(482,458,o),
(525,452,c),
(496,367,o),
(440,194,o),
(440,105,cs),
(440,94,o),
(441,82,o),
(445,72,c),
(278,69,l),
(275,69,o),
(269,69,o),
(269,64,cs),
(269,51,o),
(278,37,o),
(278,21,cs),
(278,3,o),
(248,-16,o),
(248,-22,cs),
(248,-26,o),
(264,-26,o),
(266,-26,c),
(326,-26,o),
(400,-19,o),
(420,49,c),
(593,54,l),
(593,-7,o),
(663,-23,o),
(712,-23,cs),
(719,-23,o),
(756,-25,o),
(756,-12,c)
);
}
);
width = 794;
}
);
unicode = 4647;
},
{
glyphname = uni1228;
layers = (
{
layerId = "5B9FE6CD-9A20-4D75-8A4E-A5261DDE1CE6";
shapes = (
{
closed = 1;
nodes = (
(533,80,o),
(511,91,o),
(511,147,cs),
(511,165,o),
(519,187,o),
(525,203,c),
(525,209,o),
(513,209,o),
(509,209,cs),
(450,209,o),
(360,161,o),
(360,94,c),
(339,82,o),
(280,56,o),
(257,56,cs),
(208,56,o),
(180,100,o),
(180,145,cs),
(180,163,o),
(183,183,o),
(189,200,cs),
(225,309,o),
(270,365,o),
(346,447,cs),
(412.112,518.621,o),
(446.913,569.746,o),
(466,669,c),
(467,672,o),
(468,676,o),
(468,679,cs),
(468,708,o),
(460,720,o),
(429,720,cs),
(406,720,o),
(295,702,o),
(295,678,cs),
(295,659,o),
(320,673,o),
(320,641,cs),
(320,570.023,o),
(235.229,463.621,o),
(190,415,cs),
(120,338,o),
(29,266,o),
(29,153,cs),
(29,73,o),
(78,0,o),
(164,0,cs),
(219,0,o),
(324,36,o),
(366,72,c),
(390,37,o),
(418,8,o),
(463,8,cs),
(481,8,o),
(568,27,o),
(569,46,c)
);
}
);
width = 599;
}
);
unicode = 4648;
},
{
glyphname = uni1229;
layers = (
{
layerId = "5B9FE6CD-9A20-4D75-8A4E-A5261DDE1CE6";
shapes = (
{
closed = 1;
nodes = (
(626,208,o),
(612,241,o),
(612,275,cs),
(612,291,o),
(621,336,o),
(598,336,cs),
(591,336,o),
(585,335,o),
(578,334,cs),
(545,329,o),
(513,326,o),
(480,324,cs),
(431,321,o),
(382,316,o),
(332,312,cs),
(311,310,o),
(288,306,o),
(266,306,cs),
(230,306,o),
(180,321,o),
(180,365,cs),
(180,410,o),
(225,470,o),
(259,497,cs),
(281,514,o),
(306,527,o),
(329,543,cs),
(350.9,558.817,o),
(410,624.366,o),
(410,652,cs),
(410,693,o),
(375,688,o),
(343,688,cs),
(280,688,ls),
(273,688,o),
(235,688,o),
(235,675,cs),
(235,660,o),
(252,664,o),
(252,640,cs),
(252,612,o),
(236,580,o),
(213,565,cs),
(132,514,ls),
(84,484,o),
(29,436,o),
(29,374,cs),
(29,296,o),
(102,274,o),
(167,274,cs),
(189,274,o),
(211,276,o),
(233,280,c),
(226,206,o),
(202,113,o),
(202,43,cs),
(202,7,o),
(226,0,o),
(257,0,cs),
(275,0,o),
(367,8,o),
(367,22,cs),
(367,39,o),
(338,35,o),
(338,66,cs),
(338,83,o),
(344,102,o),
(348,119,cs),
(384,289,l),
(454,293,l),
(454,211,o),
(494,160,o),
(579,160,cs),
(591,160,o),
(641,164,o),
(641,178,c)
);
}
);
width = 687;
}
);
unicode = 4649;
},
{
glyphname = uni122A;
layers = (
{
layerId = "5B9FE6CD-9A20-4D75-8A4E-A5261DDE1CE6";
shapes = (
{
closed = 1;
nodes = (
(533,251,o),
(526,284,o),
(488,284,cs),
(464,284,o),
(435,274,o),
(412,267,c),
(404,264,o),
(358,247,o),
(357,247,c),
(354,246,o),
(349,243,o),
(349,239,cs),
(349,230,o),
(372,220,o),
(380,216,c),
(382,210,o),
(382,204,o),
(382,198,cs),
(382,107,o),
(327,48,o),
(235,48,cs),
(187,48,o),
(173,95,o),
(173,135,cs),
(173,208.513,o),
(223.227,292.904,o),
(269,347,cs),
(345,437,o),
(490,532,o),
(490,663,cs),
(490,687,o),
(462,688,o),
(444,688,cs),
(429,688,o),
(317,676,o),
(317,659,c),
(327,639,o),
(338,646,o),
(338,617,cs),
(338,544,o),
(217,430,o),
(168,382,cs),
(98,312,o),
(29,260,o),
(29,151,cs),
(29,75,o),
(75,0,o),
(158,0,cs),
(194,0,o),
(231,15,o),
(265,26,cs),
(366,59,o),
(533,78,o),
(533,218,cs)
);
}
);
width = 570;
}
);
unicode = 4650;
},
{
glyphname = uni122B;
layers = (
{
layerId = "5B9FE6CD-9A20-4D75-8A4E-A5261DDE1CE6";
shapes = (
{
closed = 1;
nodes = (
(727,202,o),
(696,246,o),
(696,301,cs),
(696,308,o),
(702,338,o),
(691,337,c),
(689,336,l),
(683,337,o),
(558,317,o),
(541,314,cs),
(386,289,o),
(302,227,o),
(302,60,c),
(287,53,o),
(271,48,o),
(254,48,cs),
(205,48,o),
(180,90,o),
(180,135,cs),
(180,202.268,o),
(232.156,295.018,o),
(271,346,cs),
(344,444,o),
(482,520,o),
(482,656,cs),
(482,680,o),
(480,704,o),
(450,704,cs),
(442,704,o),
(328,682,o),
(325,680,cs),
(322,678,o),
(319,675,o),
(317,671,c),
(322,655,o),
(331,665,o),
(331,637,cs),
(331,566.579,o),
(274.079,499.772,o),
(231,449,cs),
(152,358,o),
(29,280,o),
(29,146,cs),
(29,58,o),
(86,0,o),
(174,0,cs),
(246,0,o),
(383,65,o),
(454,93,c),
(454,154,o),
(450,295,o),
(540,295,cs),
(545,295,o),
(549,294,o),
(554,294,c),
(564,222,o),
(608,176,o),
(683,176,cs),
(691,176,o),
(727,176,o),
(727,187,cs)
);
}
);
width = 763;
}
);
unicode = 4651;
},
{
glyphname = uni122C;
layers = (
{
layerId = "5B9FE6CD-9A20-4D75-8A4E-A5261DDE1CE6";
shapes = (
{
closed = 1;
nodes = (
(669,169,o),
(670,178,o),
(670,187,cs),
(670,232,o),
(637,292,o),
(586,292,cs),
(535,292,o),
(487,267,o),
(437,264,cs),
(361,259,o),
(281,246,o),
(281,151,cs),
(281,120,o),
(286,87,o),
(295,58,c),
(275,51,o),
(263,48,o),
(241,48,cs),
(191,48,o),
(173,82,o),
(173,127,cs),
(173,376,o),
(482,454,o),
(482,673,cs),
(482,692,o),
(463,696,o),
(447,696,cs),
(427,696,o),
(310,679,o),
(310,664,cs),
(310,653,o),
(324,648,o),
(324,623,cs),
(324,595,o),
(312,566,o),
(296,544,cs),
(244,473,o),
(180,409,o),
(120,345,cs),
(66,287,o),
(29,221,o),
(29,139,cs),
(29,68,o),
(67,0,o),
(146,0,cs),
(205,0,o),
(263,13,o),
(319,32,c),
(337,28,o),
(356,24,o),
(375,24,cs),
(411,24,o),
(442,44,o),
(477,50,cs),
(558,63,o),
(652,55,o),
(668,161,c)
);
},
{
closed = 1;
nodes = (
(410,221,o),
(431,240,o),
(471,240,cs),
(525,240,o),
(526,160,o),
(526,122,cs),
(526,88,o),
(499,72,o),
(468,72,cs),
(459,72,o),
(450,72,o),
(442,76,cs),
(419,87,o),
(410,157,o),
(410,181,cs)
);
}
);
width = 709;
}
);
unicode = 4652;
},
{
glyphname = uni122D;
layers = (
{
layerId = "5B9FE6CD-9A20-4D75-8A4E-A5261DDE1CE6";
shapes = (
{
closed = 1;
nodes = (
(519,48,o),
(504,63,o),
(504,94,cs),
(504,122,o),
(511,149,o),
(525,173,c),
(518,180,l),
(517,180,o),
(501,184,o),
(497,184,cs),
(441,184,o),
(346,159,o),
(346,88,c),
(318,76,o),
(283,64,o),
(252,64,cs),
(189,64,o),
(166,114,o),
(166,171,cs),
(166,283,o),
(192,567,o),
(297,630,cs),
(321,645,o),
(350,650,o),
(378,650,cs),
(395,650,l),
(400,628,o),
(404,604,o),
(410,582,cs),
(425,531,o),
(489,520,o),
(535,520,cs),
(548,520,o),
(584,521,o),
(589,536,c),
(589,537,l),
(581,556,o),
(567,570,o),
(563,591,c),
(556,623,o),
(558,656,o),
(558,688,c),
(444,688,o),
(174,679,o),
(109,569,cs),
(46.306,463.205,o),
(29,274.903,o),
(29,154,cs),
(29,65,o),
(84,32,o),
(167,32,cs),
(225,32,o),
(294,45,o),
(349,64,c),
(364,16,o),
(412,0,o),
(458,0,cs),
(472,0,o),
(534,8,o),
(536,24,c)
);
}
);
width = 626;
}
);
unicode = 4653;
},
{
glyphname = uni122E;
layers = (
{
layerId = "5B9FE6CD-9A20-4D75-8A4E-A5261DDE1CE6";
shapes = (
{
closed = 1;
nodes = (
(514,13,o),
(495,29,o),
(495,69,cs),
(495,96,o),
(514,121,o),
(514,139,cs),
(514,144,o),
(508,144,o),
(505,144,cs),
(440,144,o),
(354,144,o),
(346,59,c),
(321,51,o),
(282,40,o),
(256,40,cs),
(180,40,o),
(166,115,o),
(166,176,cs),
(166,257,o),
(199,461,o),
(234,533,cs),
(248,561,o),
(268,576,o),
(300,576,cs),
(306,576,o),
(312,573,o),
(317,574,c),
(317,505,o),
(305,393,o),
(405,393,cs),
(436,393,o),
(480,405,o),
(509,416,c),
(600,416,o),
(684,436,o),
(684,546,cs),
(684,656,o),
(574,656,o),
(492,656,cs),
(420,656,o),
(378,645,o),
(321,600,c),
(257,600,o),
(165,589,o),
(120,538,cs),
(39,445,o),
(29,304,o),
(29,186,cs),
(29,136,o),
(24,26,o),
(86,7,c),
(104,2,o),
(122,0,o),
(140,0,cs),
(203,0,o),
(272,12,o),
(332,32,c),
(351,-19,o),
(393,-40,o),
(446,-40,cs),
(459,-40,o),
(532,-32,o),
(533,-18,c)
);
},
{
closed = 1;
nodes = (
(455,440,o),
(454,475,o),
(454,515,cs),
(454,557,o),
(450,632,o),
(511,632,cs),
(554,632,o),
(562,593,o),
(562,558,cs),
(562,521,o),
(557,440,o),
(505,440,cs)
);
}
);
width = 716;
}
);
unicode = 4654;
},
{
glyphname = uni122F;
layers = (
{
layerId = "5B9FE6CD-9A20-4D75-8A4E-A5261DDE1CE6";
shapes = (
{
closed = 1;
nodes = (
(714,144,o),
(704,192,o),
(704,220,cs),
(704,236,o),
(708,253,o),
(708,269,cs),
(708,277,o),
(707,280,o),
(697,280,cs),
(582,280,o),
(386,279,o),
(319,167,cs),
(300,135,o),
(289,92,o),
(282,56,c),
(263,55,o),
(247,48,o),
(227,48,cs),
(190,48,o),
(169,67,o),
(169,104,cs),
(169,247,o),
(318,360,o),
(412,449,cs),
(454,489,o),
(487,543,o),
(500,600,c),
(561,600,o),
(623,592,o),
(684,592,cs),
(700,592,o),
(702,611,o),
(703,623,cs),
(705,654,o),
(712,685,o),
(724,713,c),
(725,716,o),
(734,734,o),
(734,737,cs),
(734,743,o),
(728,744,o),
(723,744,cs),
(647,744,o),
(572,710,o),
(561,627,c),
(543,624,o),
(525,624,o),
(507,624,cs),
(296,624,l),
(296,719,o),
(236,752,o),
(149,752,cs),
(144,752,o),
(134,751,o),
(134,744,c),
(145,727,o),
(155,698,o),
(155,678,cs),
(155,657,o),
(145,618,o),
(145,612,cs),
(145,600,o),
(165,600,o),
(174,600,cs),
(345,600,l),
(345,597,o),
(346,593,o),
(346,590,cs),
(346,501,o),
(247,422,o),
(184,373,cs),
(93,302,o),
(29,253,o),
(29,127,cs),
(29,65,o),
(53,0,o),
(125,0,cs),
(136,0,o),
(146,2,o),
(157,3,c),
(169,5,o),
(183,9,o),
(195,12,c),
(219,16,o),
(243,19,o),
(267,22,c),
(306,28,o),
(345,36,o),
(384,40,c),
(399,42,o),
(416,42,o),
(431,47,c),
(443,134,o),
(453,242,o),
(563,242,c),
(563,144,o),
(627,112,o),
(716,112,cs),
(720,112,o),
(725,113,o),
(725,118,c)
);
}
);
width = 790;
}
);
unicode = 4655;
},
{
glyphname = uni1230;
layers = (
{
layerId = "5B9FE6CD-9A20-4D75-8A4E-A5261DDE1CE6";
shapes = (
{
closed = 1;
nodes = (
(533,44,o),
(510,39,o),
(502,71,cs),
(497,92,o),
(497,118,o),
(497,139,cs),
(497,210,o),
(504,281,o),
(504,352,cs),
(504,388,o),
(506,452,o),
(496,484,cs),
(475,554,o),
(429,600,o),
(353,600,c),
(353,642,o),
(360,685,o),
(360,727,cs),
(360,750,o),
(338,752,o),
(320,752,cs),
(303,752,o),
(202,741,o),
(202,722,cs),
(202,715,o),
(221,709,o),
(222,691,c),
(222,682,o),
(224,668,o),
(223,659,c),
(227,655,o),
(228,650,o),
(228,645,cs),
(228,638,o),
(226,632,o),
(223,626,c),
(224,608,o),
(220,589,o),
(221,571,c),
(91,524,o),
(36,489,o),
(36,332,cs),
(36,202,ls),
(36,159,o),
(38,61,o),
(50,22,cs),
(55,5,o),
(72,0,o),
(88,0,cs),
(103,0,o),
(214,10,o),
(214,28,cs),
(214,33,o),
(189,50,o),
(181,76,cs),
(174,99,o),
(174,120,o),
(174,143,cs),
(174,191,o),
(174,240,o),
(175,288,cs),
(177,363,o),
(165,560,o),
(280,560,cs),
(370,560,o),
(367,448,o),
(367,383,cs),
(367,334,o),
(360,285,o),
(360,235,cs),
(360,193,o),
(358,67,o),
(366,32,c),
(370.832,7.838,o),
(387.05,0,o),
(410,0,cs),
(443,0,o),
(477,9,o),
(509,14,c),
(518,15,o),
(533,18,o),
(533,30,cs)
);
}
);
width = 563;
}
);
unicode = 4656;
},
{
glyphname = uni1231;
layers = (
{
layerId = "5B9FE6CD-9A20-4D75-8A4E-A5261DDE1CE6";
shapes = (
{
closed = 1;
nodes = (
(711,242,o),
(707,249,o),
(704,256,c),
(687,290,o),
(691,326,o),
(691,363,cs),
(691,372,o),
(689,383,o),
(678,383,cs),
(667,383,o),
(539,339,o),
(504,333,c),
(504,402,o),
(515,521,o),
(453,574,cs),
(429,594,o),
(390,598,o),
(360,598,c),
(360,646,o),
(367,693,o),
(367,741,cs),
(367,767,o),
(344,768,o),
(323,768,cs),
(292,768,o),
(261,761,o),
(230,757,c),
(220,756,o),
(202,752,o),
(202,739,cs),
(202,732,o),
(223,723,o),
(223,689,cs),
(223,653,o),
(222,618,o),
(220,582,c),
(189,571,o),
(137,553,o),
(112,530,cs),
(32,456,o),
(29,273,o),
(29,163,cs),
(29,122,o),
(29,68,o),
(46,30,cs),
(54,12,o),
(72,8,o),
(90,8,cs),
(104,8,o),
(198,15,o),
(198,34,cs),
(198,40,o),
(191,45,o),
(187,48,cs),
(168,63,o),
(166,118,o),
(166,141,cs),
(166,220,o),
(165,454,o),
(195,519,cs),
(209,550,o),
(243,576,o),
(279,576,cs),
(365,576,o),
(367,454,o),
(367,394,cs),
(367,362,o),
(364,329,o),
(361,297,cs),
(359,278,o),
(360,259,o),
(360,240,cs),
(360,188,o),
(353,136,o),
(353,84,cs),
(353,31,o),
(359,0,o),
(420,0,cs),
(439,0,o),
(530,5,o),
(530,29,cs),
(530,44,o),
(501,40,o),
(494,67,cs),
(491,79,o),
(490,91,o),
(490,103,cs),
(490,171,o),
(497,240,o),
(497,308,c),
(514,318,o),
(535,319,o),
(554,323,c),
(554,262,o),
(576,211,o),
(645,211,cs),
(661,211,o),
(709,217,o),
(714,235,c)
);
}
);
width = 756;
}
);
unicode = 4657;
},
{
glyphname = uni1232;
layers = (
{
layerId = "5B9FE6CD-9A20-4D75-8A4E-A5261DDE1CE6";
shapes = (
{
closed = 1;
nodes = (
(671,-34,o),
(648,-16,o),
(648,20,cs),
(648,48,o),
(662,83,o),
(680,105,c),
(680,112,o),
(666,112,o),
(662,112,cs),
(609,112,o),
(538,86,o),
(535,24,c),
(491,36,o),
(490,43,o),
(490,90,cs),
(490,195,o),
(497,301,o),
(497,406,cs),
(497,428,o),
(498,450,o),
(495,472,cs),
(486,542,o),
(427,596,o),
(356,596,c),
(356,619,o),
(357,643,o),
(359,666,c),
(360,674,o),
(367,732,o),
(367,734,c),
(368,736,l),
(368,754,o),
(325,752,o),
(314,752,cs),
(294,752,o),
(202,749,o),
(202,732,cs),
(202,721,o),
(223,717,o),
(223,703,cs),
(223,661,o),
(220,619,o),
(218,577,c),
(183,567,o),
(141,552,o),
(112,529,cs),
(20,455,o),
(22,284,o),
(22,174,cs),
(22,137,o),
(23,100,o),
(28,64,cs),
(35,16,o),
(91,24,o),
(127,24,cs),
(153,24,l),
(162,27,o),
(202,25,o),
(202,40,cs),
(202,50,o),
(188,58,o),
(181,63,c),
(164,74,o),
(158,134,o),
(158,155,cs),
(158,202,o),
(164,248,o),
(166,295,cs),
(169,385,o),
(153,560,o),
(287,560,cs),
(360,560,o),
(360,447,o),
(360,396,cs),
(360,364,o),
(356,330,o),
(353,298,cs),
(346,219,o),
(346,138,o),
(346,58,c),
(343,52,l),
(346,45,l),
(346,4,o),
(386,-1,o),
(418,-1,cs),
(457,-1,o),
(495,16,o),
(533,16,c),
(533,-51,o),
(586,-72,o),
(644,-72,cs),
(653,-72,o),
(691,-70,o),
(691,-60,c)
);
}
);
width = 747;
}
);
unicode = 4658;
},
{
glyphname = uni1233;
layers = (
{
layerId = "5B9FE6CD-9A20-4D75-8A4E-A5261DDE1CE6";
shapes = (
{
closed = 1;
nodes = (
(518,37,o),
(495,50,o),
(489,65,cs),
(484,78,o),
(482,90,o),
(482,103,cs),
(482,146,o),
(490,188,o),
(491,231,cs),
(493,286,o),
(497,342,o),
(497,397,cs),
(497,423,o),
(498,452,o),
(491,477,cs),
(473,541,o),
(431,597,o),
(360,603,c),
(360,648,o),
(374,691,o),
(374,732,cs),
(374,759,o),
(355,760,o),
(333,760,cs),
(316,760,o),
(202,748,o),
(202,729,cs),
(202,720,o),
(221,715,o),
(222,705,c),
(223,690,o),
(223,674,o),
(223,658,cs),
(223,631,o),
(224,602,o),
(219,576,c),
(75,525,o),
(29,424,o),
(29,274,cs),
(29,223,o),
(31,200,o),
(90,200,cs),
(124,200,o),
(159,204,o),
(193,205,c),
(200,205,o),
(209,207,o),
(209,216,cs),
(209,233,o),
(182,227,o),
(176,256,cs),
(173,270,o),
(173,285,o),
(173,299,cs),
(173,391,ls),
(173,462,o),
(192,568,o),
(283,568,cs),
(365,568,o),
(360,434,o),
(360,379,cs),
(360,241,ls),
(360,188,o),
(346,137,o),
(346,84,cs),
(346,41,o),
(345,0,o),
(401,0,cs),
(415,0,o),
(518,15,o),
(518,31,cs)
);
}
);
width = 554;
}
);
unicode = 4659;
},
{
glyphname = uni1234;
layers = (
{
layerId = "5B9FE6CD-9A20-4D75-8A4E-A5261DDE1CE6";
shapes = (
{
closed = 1;
nodes = (
(706,228,o),
(649,224,o),
(587,224,cs),
(502,224,l),
(502,243,o),
(506,263,o),
(508,282,cs),
(514,331,o),
(518,380,o),
(518,429,cs),
(518,509,o),
(465,587,o),
(382,597,c),
(382,645,o),
(390,679,o),
(396,725,c),
(396,728,l),
(397,730,l),
(397,753,o),
(366,752,o),
(350,752,cs),
(334,752,o),
(223,744,o),
(223,726,cs),
(223,717,o),
(240,717,o),
(240,694,cs),
(240,657,o),
(237,618,o),
(235,581,c),
(123,560,o),
(58,468,o),
(44,360,cs),
(35,292,o),
(29,224,o),
(29,155,cs),
(29,135,o),
(30,115,o),
(32,95,cs),
(36,45,o),
(44,24,o),
(99,24,cs),
(114,24,o),
(205,32,o),
(205,45,cs),
(205,50,o),
(200,54,o),
(197,57,cs),
(173,80,o),
(173,119,o),
(173,150,cs),
(173,186,o),
(176,222,o),
(178,258,cs),
(182,327,o),
(183,560,o),
(285,560,cs),
(368,560,o),
(374,480,o),
(374,416,cs),
(374,309,o),
(353,204,o),
(353,97,cs),
(353,34,o),
(346,0,o),
(424,0,cs),
(468,0,o),
(512,12,o),
(554,22,cs),
(627,39,o),
(706,57,o),
(706,147,cs)
);
},
{
closed = 1;
nodes = (
(510,206,o),
(519,208,o),
(527,208,cs),
(568,208,o),
(583,178,o),
(583,142,cs),
(583,127,o),
(581,113,o),
(575,99,c),
(575,98,l),
(565,78,o),
(543,48,o),
(518,48,cs),
(495,48,o),
(497,92,o),
(497,107,cs),
(497,139,o),
(503,171,o),
(503,202,c)
);
}
);
width = 745;
}
);
unicode = 4660;
},
{
glyphname = uni1235;
layers = (
{
layerId = "5B9FE6CD-9A20-4D75-8A4E-A5261DDE1CE6";
shapes = (
{
closed = 1;
nodes = (
(521,40,o),
(494,33,o),
(488,67,cs),
(486,78,o),
(487,98,o),
(482,107,c),
(482,206,o),
(490,306,o),
(490,405,cs),
(490,421,o),
(490,440,o),
(488,455,cs),
(478,525,o),
(431,592,o),
(354,592,c),
(341,612,o),
(288,688,o),
(288,704,cs),
(288,714,o),
(293,724,o),
(293,734,cs),
(293,745,o),
(279,744,o),
(271,744,cs),
(234,744,o),
(195,738,o),
(158,731,cs),
(141,728,o),
(130,721,o),
(130,702,cs),
(130,668,o),
(189,593,o),
(189,569,cs),
(189,566,o),
(187,562,o),
(186,559,c),
(91,529,o),
(29,432,o),
(29,334,cs),
(29,148,ls),
(29,109,o),
(28,61,o),
(38,24,cs),
(43,4,o),
(64,0,o),
(82,0,cs),
(99,0,o),
(197,16,o),
(197,29,cs),
(197,38,o),
(175,41,o),
(170,70,cs),
(166,93,o),
(166,117,o),
(166,140,cs),
(166,381,ls),
(166,457,o),
(172,552,o),
(270,552,cs),
(351,552,o),
(353,436,o),
(353,379,cs),
(353,282,o),
(346,186,o),
(346,90,cs),
(346,41,o),
(340,0,o),
(403,0,cs),
(420,0,o),
(521,9,o),
(521,24,cs)
);
}
);
width = 556;
}
);
unicode = 4661;
},
{
glyphname = uni1236;
layers = (
{
layerId = "5B9FE6CD-9A20-4D75-8A4E-A5261DDE1CE6";
shapes = (
{
closed = 1;
nodes = (
(531,209,o),
(506,202,o),
(500,223,cs),
(497,234,o),
(497,245,o),
(497,256,cs),
(497,302,o),
(504,348,o),
(504,394,cs),
(504,474,o),
(472,582,o),
(374,582,c),
(374,608,o),
(375,633,o),
(378,659,cs),
(380,678,o),
(389,704,o),
(389,721,cs),
(389,742,o),
(360,744,o),
(345,744,cs),
(323,744,o),
(223,727,o),
(223,714,c),
(229,698,o),
(238,705,o),
(238,678,cs),
(238,567,l),
(126.073,524.361,o),
(56.673,482.266,o),
(44,353,cs),
(36,274,o),
(29,194,o),
(29,114,cs),
(29,90,o),
(26,16,o),
(52,5,c),
(63,1,o),
(75,0,o),
(86,0,cs),
(105,0,o),
(188,2,o),
(195,18,c),
(195,24,o),
(188,28,o),
(184,30,c),
(161.378,42.181,o),
(158,108.497,o),
(158,131,cs),
(158,167,o),
(162,204,o),
(165,239,cs),
(170,289,o),
(173,339,o),
(177,389,cs),
(181,444,o),
(209,544,o),
(278,544,cs),
(359,544,o),
(367,457,o),
(367,394,cs),
(367,340,o),
(360,285,o),
(360,230,cs),
(360,189,o),
(370,168,o),
(414,168,cs),
(429,168,o),
(531,174,o),
(531,193,cs)
);
}
);
width = 572;
}
);
unicode = 4662;
},
{
glyphname = uni1237;
layers = (
{
layerId = "5B9FE6CD-9A20-4D75-8A4E-A5261DDE1CE6";
shapes = (
{
closed = 1;
nodes = (
(675,-3,o),
(655,26,o),
(655,54,cs),
(655,73,o),
(667,103,o),
(667,114,cs),
(667,119,o),
(662,120,o),
(658,120,cs),
(587,120,o),
(516,112,o),
(444,112,c),
(444,157,o),
(453,201,o),
(455,246,cs),
(456,274,o),
(461,301,o),
(464,329,cs),
(473,421,o),
(486,522,o),
(486,614,cs),
(486,626,o),
(485,637,o),
(484,649,c),
(445,660,o),
(400,650,o),
(363,665,c),
(359,669,o),
(358,676,o),
(358,682,cs),
(358,723,o),
(373,764,o),
(373,805,cs),
(373,809,o),
(372,812,o),
(372,816,c),
(363,825,o),
(344,824,o),
(332,824,cs),
(238,824,ls),
(231,824,o),
(204,824,o),
(204,812,cs),
(204,805,o),
(213,795,o),
(217,790,c),
(223,782,o),
(222,754,o),
(222,744,cs),
(222,733,o),
(221,723,o),
(221,712,c),
(220,711,l),
(221,700,o),
(218,689,o),
(218,678,cs),
(218,671,o),
(188,667,o),
(183,666,c),
(154,661,o),
(124,661,o),
(95,661,c),
(77,601,o),
(76,530,o),
(69,468,cs),
(63,413,o),
(56,358,o),
(56,303,cs),
(56,272,o),
(51,208,o),
(95,208,cs),
(109,208,o),
(218,222,o),
(218,237,cs),
(218,251,o),
(197,244,o),
(197,290,cs),
(197,333,o),
(203,377,o),
(203,420,cs),
(203,470,o),
(207,656,o),
(279,656,cs),
(340,656,o),
(346,603,o),
(346,553,cs),
(346,496,o),
(330,387,o),
(321,336,cs),
(314,298,o),
(314,255,o),
(312,216,cs),
(310,181,o),
(308,147,o),
(305,112,c),
(274,109,o),
(84,106,o),
(75,99,c),
(69,95,o),
(68,88,o),
(68,81,cs),
(68,67,o),
(73,50,o),
(73,36,cs),
(73,10,o),
(51,-21,o),
(35,-40,c),
(35,-46,o),
(45,-48,o),
(50,-48,cs),
(136,-48,o),
(216,-14,o),
(229,80,c),
(322,80,o),
(414,86,o),
(507,88,c),
(517,1,o),
(587,-32,o),
(667,-32,cs),
(672,-32,o),
(675,-30,o),
(675,-25,cs)
);
}
);
width = 707;
}
);
unicode = 4663;
},
{
glyphname = uni1238;
layers = (
{
layerId = "5B9FE6CD-9A20-4D75-8A4E-A5261DDE1CE6";
shapes = (
{
closed = 1;
nodes = (
(488,31,o),
(480,35,o),
(474,39,c),
(463,47,o),
(461,100,o),
(461,115,cs),
(461,214,o),
(467,316,o),
(474,415,c),
(475,424,o),
(475,432,o),
(475,441,c),
(475,443,l),
(474,444,l),
(474,447,o),
(475,449,o),
(475,452,c),
(479,486,o),
(466,542,o),
(437,564,cs),
(421,576,o),
(395,581,o),
(375,583,c),
(375,591,o),
(374,598,o),
(374,606,cs),
(374,648,o),
(385,693,o),
(382,735,c),
(442,739,l),
(470,693,o),
(486,672,o),
(544,672,cs),
(551,672,o),
(590,671,o),
(590,682,c),
(580,702,o),
(566,725,o),
(566,748,cs),
(566,785,o),
(576,815,o),
(590,849,c),
(590,855,o),
(582,856,o),
(578,856,cs),
(563,856,o),
(548,851,o),
(533,850,c),
(474,844,o),
(448,815,o),
(439,758,c),
(192,736,l),
(176,788,o),
(158,808,o),
(101,808,cs),
(86,808,o),
(31,805,o),
(24,792,c),
(36,767,o),
(52,744,o),
(52,715,cs),
(52,687,o),
(33,661,o),
(14,641,c),
(14,631,o),
(65,632,o),
(71,632,cs),
(119,632,o),
(185,656,o),
(192,711,c),
(252,715,l),
(252,579,l),
(195,552,ls),
(167,538,o),
(132,503,o),
(115,477,cs),
(76,417,o),
(76,362,o),
(75,293,cs),
(74,228,o),
(72,162,o),
(72,97,cs),
(72,56,o),
(66,8,o),
(122,8,cs),
(137,8,o),
(224,21,o),
(224,35,cs),
(224,47,o),
(207,53,o),
(203,75,c),
(201,90,o),
(202,108,o),
(202,123,cs),
(202,223,o),
(207,363,o),
(228,459,cs),
(235.087,493.252,o),
(271.305,573,o),
(314,573,cs),
(355,573,o),
(360,522,o),
(360,492,cs),
(360,455,o),
(353,417,o),
(349,380,cs),
(340,297,o),
(331,213,o),
(331,130,cs),
(331,86,o),
(324,0,o),
(386,0,cs),
(400.584,0,o),
(488,4.056,o),
(488,23,cs)
);
}
);
width = 639;
}
);
unicode = 4664;
},
{
glyphname = uni1239;
layers = (
{
layerId = "5B9FE6CD-9A20-4D75-8A4E-A5261DDE1CE6";
shapes = (
{
closed = 1;
nodes = (
(760,246,o),
(742,278,o),
(742,306,cs),
(742,315,o),
(749,378,o),
(735,378,cs),
(714,378,o),
(541,296,o),
(482,296,c),
(482,347,o),
(490,398,o),
(490,446,cs),
(490,530,o),
(468,573,o),
(382,585,c),
(382,735,l),
(447,741,l),
(475,696,o),
(512,680,o),
(564,680,cs),
(569,680,o),
(599,680,o),
(599,689,c),
(588,717,o),
(570,745,o),
(570,776,cs),
(570,809,o),
(581,828,o),
(598,855,c),
(599,866,o),
(568,864,o),
(560,864,cs),
(490,864,o),
(445,835,o),
(440,761,c),
(183,733,l),
(172,778,o),
(150,808,o),
(100,808,cs),
(85,808,o),
(17,799,o),
(17,788,c),
(33,757,o),
(42,747,o),
(42,710,cs),
(42,678,o),
(25,663,o),
(14,635,c),
(14,623,o),
(57,624,o),
(64,624,cs),
(119,624,o),
(173,657,o),
(183,714,c),
(245,724,l),
(238,585,l),
(124,534,o),
(72,468,o),
(72,338,cs),
(72,199,ls),
(72,164,o),
(71,69,o),
(80,38,cs),
(87.471,13.096,o),
(107.282,8,o),
(131,8,cs),
(148,8,o),
(233,16,o),
(233,34,cs),
(233,44,o),
(211,53,o),
(206,73,cs),
(202,89,o),
(202,106,o),
(202,122,cs),
(202,190,o),
(202,258,o),
(206,326,cs),
(209,384,o),
(215,573,o),
(304,573,cs),
(351,573,o),
(353,527,o),
(353,492,cs),
(353,392,ls),
(353,301,o),
(338,209,o),
(338,118,cs),
(338,72,o),
(336,0,o),
(399,0,cs),
(416,0,o),
(509,14,o),
(509,30,cs),
(509,43,o),
(483,44,o),
(477,84,cs),
(475,97,o),
(475,111,o),
(475,125,cs),
(475,278,l),
(605,313,l),
(605,250,o),
(629,200,o),
(699,200,cs),
(711,200,o),
(774,207,o),
(774,223,c)
);
}
);
width = 810;
}
);
unicode = 4665;
},
{
glyphname = uni123A;
layers = (
{
layerId = "5B9FE6CD-9A20-4D75-8A4E-A5261DDE1CE6";
shapes = (
{
closed = 1;
nodes = (
(739,-38,o),
(717,-21,o),
(717,18,cs),
(717,39,o),
(731,74,o),
(741,92,c),
(741,106,o),
(712,104,o),
(703,104,cs),
(649,104,o),
(615,75,o),
(600,24,c),
(507,24,ls),
(470,24,o),
(468,93,o),
(468,118,cs),
(468,174,o),
(474,229,o),
(477,285,cs),
(480,328,o),
(481,371,o),
(484,414,cs),
(485,434,o),
(490,456,o),
(490,475,cs),
(490,543,o),
(455,588,o),
(386,601,c),
(386,626,o),
(390,726,o),
(394,744,c),
(457,753,l),
(470,705,o),
(533,696,o),
(575,696,cs),
(583,696,o),
(611,697,o),
(611,708,c),
(600,729,o),
(590,752,o),
(590,776,cs),
(590,807,o),
(601,837,o),
(614,865,c),
(614,872,o),
(599,872,o),
(595,872,cs),
(531,872,o),
(454,847,o),
(454,771,c),
(202,748,l),
(202,803,o),
(171,824,o),
(119,824,cs),
(103,824,o),
(48,821,o),
(40,806,c),
(53,777,o),
(65,768,o),
(65,733,cs),
(65,706,o),
(44,676,o),
(29,655,c),
(29,648,o),
(63,648,o),
(67,648,cs),
(116,648,o),
(193,664,o),
(202,722,c),
(266,733,l),
(257,590,l),
(216,574,o),
(166,549,o),
(138,514,cs),
(68,426,o),
(72,261,o),
(72,154,cs),
(72,102,o),
(62,24,o),
(135,24,cs),
(149,24,o),
(233,32,o),
(233,52,c),
(233,54,o),
(215,74,o),
(212,85,cs),
(208,101,o),
(209,122,o),
(209,139,cs),
(209,248,o),
(208,463,o),
(275,554,cs),
(286,569,o),
(302,588,o),
(323,588,cs),
(326,588,o),
(330,586,o),
(333,587,c),
(365,575,o),
(367,536,o),
(367,507,cs),
(367,462,o),
(355,417,o),
(352,372,cs),
(345,286,o),
(331,212,o),
(331,123,cs),
(331,0,o),
(351,0,o),
(465,0,cs),
(509,0,o),
(552,2,o),
(596,2,c),
(603,-53,o),
(647,-88,o),
(702,-88,cs),
(715,-88,o),
(752,-83,o),
(752,-70,c)
);
}
);
width = 806;
}
);
unicode = 4666;
},
{
glyphname = uni123B;
layers = (
{
layerId = "5B9FE6CD-9A20-4D75-8A4E-A5261DDE1CE6";
shapes = (
{
closed = 1;
nodes = (
(502,36,o),
(495,38,o),
(490,40,cs),
(478,45,o),
(475,59,o),
(473,70,c),
(469,86,o),
(468,102,o),
(468,119,cs),
(468,230,o),
(482,341,o),
(482,452,cs),
(482,507,o),
(445,584,o),
(382,584,c),
(382,635,o),
(383,685,o),
(385,736,c),
(444,736,l),
(457,691,o),
(516,672,o),
(558,672,cs),
(566,672,o),
(598,676,o),
(598,684,c),
(583,711,o),
(569,726,o),
(569,759,cs),
(569,790,o),
(580,821,o),
(598,846,c),
(598,855,o),
(576,856,o),
(569,856,cs),
(518,856,o),
(432,826,o),
(432,765,c),
(432,763,o),
(427,761,o),
(426,761,c),
(403,752,o),
(335,747,o),
(310,746,cs),
(269,744,o),
(228,743,o),
(187,739,c),
(183,799,o),
(139,816,o),
(86,816,cs),
(74,816,o),
(18,814,o),
(18,799,c),
(34,773,o),
(43,751,o),
(43,721,cs),
(43,689,o),
(32,668,o),
(14,642,c),
(14,635,o),
(34,632,o),
(38,632,cs),
(88,632,o),
(187,645,o),
(187,712,c),
(252,714,l),
(245,576,l),
(214,576,o),
(176,537,o),
(157,517,cs),
(97,454,o),
(72,392,o),
(72,306,cs),
(72,263,o),
(74,203,o),
(130,203,cs),
(147,203,o),
(231,212,o),
(237,222,c),
(237,232,o),
(215,239,o),
(211,260,cs),
(208,275,o),
(209,291,o),
(209,306,cs),
(209,355,o),
(215,407,o),
(222,455,cs),
(226.775,493.202,o),
(273.331,573,o),
(318,573,cs),
(356,573,o),
(360,525,o),
(360,497,cs),
(360,472,o),
(353,444,o),
(349,419,cs),
(341,362,o),
(342,300,o),
(338,242,cs),
(335,197,o),
(331,151,o),
(331,106,cs),
(331,56,o),
(329,0,o),
(394,0,cs),
(408,0,o),
(502,13,o),
(502,29,cs)
);
}
);
width = 642;
}
);
unicode = 4667;
},
{
glyphname = uni123C;
layers = (
{
layerId = "5B9FE6CD-9A20-4D75-8A4E-A5261DDE1CE6";
shapes = (
{
closed = 1;
nodes = (
(742,238,o),
(697,244,o),
(640,254,c),
(631,256,o),
(623,256,o),
(614,256,cs),
(564,256,o),
(514,245,o),
(464,245,c),
(464,317,o),
(482,388,o),
(482,459,cs),
(482,521,o),
(455,592,o),
(382,592,c),
(382,603,ls),
(382,639,o),
(391,699,o),
(395,736,c),
(454,736,l),
(474,686,o),
(526,664,o),
(577,664,cs),
(585,664,o),
(607,664,o),
(607,676,c),
(593,702,o),
(577,731,o),
(577,761,cs),
(577,791,o),
(593,815,o),
(612,837,c),
(612,846,o),
(576,848,o),
(569,848,cs),
(512,848,o),
(464,818,o),
(452,760,c),
(209,743,l),
(200,796,o),
(163,816,o),
(112,816,cs),
(96,816,o),
(36,811,o),
(27,796,c),
(38,767,o),
(56,746,o),
(56,713,cs),
(56,686,o),
(36,664,o),
(22,643,c),
(22,631,o),
(69,632,o),
(77,632,cs),
(129,632,o),
(198,664,o),
(209,720,c),
(258,722,l),
(251,592,l),
(218,570,o),
(174,547,o),
(147,518,cs),
(100,469,o),
(82,408,o),
(77,342,cs),
(71,270,o),
(65,199,o),
(65,127,cs),
(65,75,o),
(62,24,o),
(129,24,cs),
(141,24,o),
(231,30,o),
(231,44,cs),
(231,51,o),
(214,62,o),
(211,86,cs),
(209,104,o),
(209,121,o),
(209,139,cs),
(209,244,o),
(208,446,o),
(263,535,cs),
(275,555,o),
(293,580,o),
(319,580,cs),
(355,580,o),
(360,541,o),
(360,514,cs),
(360,477,o),
(353,438,o),
(349,402,cs),
(339,305,o),
(331,206,o),
(331,109,cs),
(331,59,o),
(327,0,o),
(395,0,cs),
(431,0,o),
(461,13,o),
(495,21,cs),
(581,41,o),
(742,44,o),
(742,167,cs)
);
},
{
closed = 1;
nodes = (
(493,218,o),
(523,224,o),
(553,224,cs),
(595,224,o),
(612,215,o),
(612,171,cs),
(612,124,o),
(603,89,o),
(557,70,cs),
(537,62,o),
(516,56,o),
(494,56,cs),
(457,56,o),
(461,74,o),
(461,105,cs),
(461,141,o),
(464,177,o),
(464,213,c)
);
}
);
width = 781;
}
);
unicode = 4668;
},
{
glyphname = uni123D;
layers = (
{
layerId = "5B9FE6CD-9A20-4D75-8A4E-A5261DDE1CE6";
shapes = (
{
closed = 1;
nodes = (
(598,29,o),
(587,36,o),
(583,39,cs),
(569,50,o),
(569,99,o),
(569,117,cs),
(569,218,o),
(590,318,o),
(590,419,cs),
(590,498,o),
(591,581,o),
(493,592,c),
(451,636,o),
(412,683,o),
(390,740,c),
(453,748,l),
(469,696,o),
(513,680,o),
(563,680,cs),
(577,680,o),
(647,687,o),
(647,705,c),
(626,740,o),
(611,732,o),
(611,779,cs),
(611,805,o),
(623,829,o),
(636,851,c),
(636,858,o),
(613,856,o),
(607,856,cs),
(539,856,o),
(475,846,o),
(455,770,c),
(197,746,l),
(189,798,o),
(157,823,o),
(105,823,cs),
(90,823,o),
(21,819,o),
(21,808,c),
(35,780,o),
(47,767,o),
(47,733,cs),
(47,707,o),
(28,674,o),
(14,653,c),
(14,647,o),
(27,647,o),
(30,647,cs),
(87,647,o),
(186,653,o),
(197,725,c),
(254,727,l),
(270,705,o),
(347,594,o),
(347,576,c),
(306,557,o),
(257,530,o),
(232,491,cs),
(183,416,o),
(180,231,o),
(180,139,cs),
(180,94,o),
(170,24,o),
(231,24,cs),
(246,24,o),
(339,30,o),
(339,46,cs),
(339,57,o),
(322,62,o),
(319,86,cs),
(317,103,o),
(317,120,o),
(317,137,cs),
(317,190,o),
(322,244,o),
(326,297,cs),
(332,369,o),
(335,485,o),
(385,541,cs),
(399,556,o),
(417,571,o),
(439,571,cs),
(471,571,o),
(468,498,o),
(468,477,cs),
(468,448,o),
(464,418,o),
(460,390,cs),
(446,295,o),
(432,198,o),
(432,101,cs),
(432,50,o),
(434,0,o),
(499,0,cs),
(514,0,o),
(598,6,o),
(598,24,cs)
);
}
);
width = 687;
}
);
unicode = 4669;
},
{
glyphname = uni123E;
layers = (
{
layerId = "5B9FE6CD-9A20-4D75-8A4E-A5261DDE1CE6";
shapes = (
{
closed = 1;
nodes = (
(472,197,o),
(463,202,o),
(456,209,c),
(454,216,o),
(454,224,o),
(454,231,cs),
(454,290,o),
(461,349,o),
(461,408,cs),
(461,487,o),
(457,546,o),
(365,557,c),
(365,604,o),
(374,649,o),
(374,696,c),
(442,704,l),
(455,663,o),
(507,640,o),
(547,640,cs),
(553,640,o),
(584,644,o),
(584,652,c),
(566,674,o),
(554,685,o),
(554,714,cs),
(554,749,o),
(570,778,o),
(590,806,c),
(590,813,o),
(562,816,o),
(555,816,cs),
(492,816,o),
(444,791,o),
(436,723,c),
(181,712,l),
(169,764,o),
(142,792,o),
(87,792,cs),
(76,792,o),
(25,790,o),
(25,777,c),
(37,755,o),
(43,723,o),
(43,699,cs),
(43,674,o),
(32,649,o),
(14,631,c),
(14,621,o),
(49,616,o),
(57,616,cs),
(106,616,o),
(165,637,o),
(181,688,c),
(238,688,l),
(230,551,l),
(43,483,o),
(43,285,o),
(43,116,cs),
(43,101,o),
(44,86,o),
(44,71,cs),
(44,28,o),
(46,0,o),
(98,0,cs),
(113,0,o),
(200,6,o),
(200,20,cs),
(200,33,o),
(175,33,o),
(169,66,cs),
(166,82,o),
(166,99,o),
(166,115,cs),
(166,168,o),
(172,221,o),
(178,273,cs),
(187,346,o),
(193,461,o),
(248,515,cs),
(263,530,o),
(282,544,o),
(304,544,cs),
(342,544,o),
(353,514,o),
(353,482,cs),
(353,446,o),
(343,408,o),
(338,372,cs),
(331,325,o),
(324,277,o),
(324,229,cs),
(324,190,o),
(328,168,o),
(373,168,cs),
(397,168,o),
(476,175,o),
(476,188,c)
);
}
);
width = 624;
}
);
unicode = 4670;
},
{
glyphname = uni123F;
layers = (
{
layerId = "5B9FE6CD-9A20-4D75-8A4E-A5261DDE1CE6";
shapes = (
{
closed = 1;
nodes = (
(681,-6,o),
(682,9,o),
(675,20,c),
(673,32,o),
(671,45,o),
(671,57,cs),
(671,77,o),
(675,98,o),
(675,118,cs),
(675,133,o),
(623,128,o),
(613,128,cs),
(437,128,l),
(437,175,o),
(445,224,o),
(451,271,cs),
(458,320,o),
(463,369,o),
(469,418,cs),
(479,494,o),
(493,577,o),
(493,654,cs),
(493,663,o),
(492,672,o),
(491,681,c),
(485,683,o),
(469,688,o),
(464,688,cs),
(442,688,l),
(438,686,o),
(430,680,o),
(425,680,cs),
(411,680,o),
(381,679,o),
(368,686,c),
(366,713,o),
(366,740,o),
(366,767,cs),
(366,800,l),
(396,800,o),
(591,802,o),
(608,813,c),
(613,816,o),
(614,820,o),
(614,825,cs),
(614,835,o),
(609,845,o),
(609,855,cs),
(609,888,o),
(627,916,o),
(649,938,c),
(645,941,o),
(633,944,o),
(629,944,cs),
(553,944,o),
(477,908,o),
(467,824,c),
(131,824,l),
(120,894,o),
(85,935,o),
(12,935,cs),
(2,935,o),
(-29,934,o),
(-35,928,c),
(-32,922,l),
(-32,921,l),
(-30,916,o),
(-28,912,o),
(-24,908,c),
(-18,890,o),
(-9,875,o),
(-9,855,cs),
(-9,847,o),
(-15,797,o),
(-5,794,c),
(10,790,o),
(200,792,o),
(226,792,c),
(216,713,o),
(245,695,o),
(164,685,cs),
(140,682,o),
(115,680,o),
(91,680,c),
(67,635,o),
(50,358,o),
(50,290,cs),
(50,261,o),
(48,232,o),
(86,232,cs),
(116,232,o),
(212,244,o),
(212,258,cs),
(212,263,o),
(202,269,o),
(198,272,cs),
(190,278,o),
(190,305,o),
(190,314,cs),
(190,336,o),
(198,401,o),
(196,413,c),
(197,415,l),
(196,422,o),
(208,521,o),
(209,531,cs),
(211,549,o),
(211,568,o),
(214,586,cs),
(220,624,o),
(244,672,o),
(288,672,cs),
(333,672,o),
(346,643,o),
(346,603,cs),
(346,561,o),
(335,517,o),
(332,475,cs),
(322,351,o),
(303,227,o),
(288,104,c),
(225,104,o),
(162,112,o),
(99,112,cs),
(82,112,o),
(59,116,o),
(59,93,cs),
(59,80,o),
(63,67,o),
(63,55,cs),
(63,21,o),
(42,-14,o),
(24,-42,c),
(24,-48,o),
(32,-48,o),
(36,-48,cs),
(122,-48,o),
(209,-15,o),
(227,80,c),
(320,80,o),
(414,96,o),
(507,96,c),
(517,23,o),
(591,-26,o),
(662,-26,cs),
(669,-26,o),
(689,-26,o),
(689,-17,c)
);
}
);
width = 726;
}
);
unicode = 4671;
},
{
glyphname = uni1240;
layers = (
{
layerId = "5B9FE6CD-9A20-4D75-8A4E-A5261DDE1CE6";
shapes = (
{
closed = 1;
nodes = (
(415,40,o),
(392,37,o),
(385,59,cs),
(382,68,o),
(382,107,o),
(382,117,cs),
(382,177,o),
(394,240,o),
(401,300,c),
(492,300,o),
(639,339,o),
(653,448,c),
(653,452,o),
(655,459,o),
(655,462,cs),
(655,544,o),
(627,573,o),
(543,573,cs),
(505,573,o),
(466,565,o),
(429,559,c),
(427,578,o),
(435,611,o),
(437,632,cs),
(439,652,o),
(439,671,o),
(439,691,cs),
(439,725,o),
(441,752,o),
(399,752,cs),
(380,752,o),
(258,744,o),
(258,726,cs),
(258,719,o),
(276,712,o),
(281,710,c),
(298,702,o),
(302,683,o),
(302,666,cs),
(302,619,o),
(296,566,o),
(284,520,c),
(187,520,o),
(29,473,o),
(29,355,cs),
(29,277,o),
(79,253,o),
(149,253,cs),
(185,253,o),
(222,262,o),
(258,269,c),
(257,198,o),
(238,127,o),
(238,54,cs),
(238,10,o),
(262,0,o),
(302,0,cs),
(317,0,o),
(415,14,o),
(415,28,cs)
);
},
{
closed = 1;
nodes = (
(404,358,o),
(408,399,o),
(415,437,cs),
(421,469,o),
(421,502,o),
(426,534,c),
(435,536,o),
(444,537,o),
(453,537,cs),
(504,537,o),
(516,487,o),
(516,445,cs),
(516,387,o),
(486,318,o),
(419,318,cs),
(414,318,o),
(409,318,o),
(404,319,c)
);
},
{
closed = 1;
nodes = (
(166,416,o),
(195,496,o),
(268,496,cs),
(272,496,o),
(277,495,o),
(281,494,c),
(258,291,l),
(249,285,o),
(238,285,o),
(227,285,cs),
(178,285,o),
(166,310,o),
(166,355,cs)
);
}
);
width = 700;
}
);
unicode = 4672;
},
{
glyphname = uni1241;
layers = (
{
layerId = "5B9FE6CD-9A20-4D75-8A4E-A5261DDE1CE6";
shapes = (
{
closed = 1;
nodes = (
(642,128,o),
(621,143,o),
(621,178,cs),
(621,203,o),
(638,232,o),
(638,246,cs),
(638,256,o),
(620,256,o),
(614,256,cs),
(558,256,o),
(493,239,o),
(467,184,c),
(442,179,o),
(417,176,o),
(392,176,c),
(399,296,l),
(486,306,o),
(648,325,o),
(648,445,cs),
(648,519,o),
(626,566,o),
(545,566,cs),
(510,566,o),
(469,552,o),
(430,552,c),
(435,593,o),
(439,633,o),
(439,674,cs),
(439,732,o),
(441,752,o),
(377,752,cs),
(355,752,o),
(259,744,o),
(259,728,cs),
(259,721,o),
(276,714,o),
(281,712,c),
(298,704,o),
(302,684,o),
(302,667,cs),
(302,619,o),
(300,567,o),
(290,520,c),
(193,520,o),
(29,476,o),
(29,356,cs),
(29,281,o),
(77,254,o),
(146,254,cs),
(182,254,o),
(225,261,o),
(259,271,c),
(245,203,o),
(238,123,o),
(238,54,cs),
(238,9,o),
(260,0,o),
(302,0,cs),
(316,0,o),
(416,14,o),
(416,28,cs),
(416,40,o),
(392,32,o),
(385,63,cs),
(382,77,o),
(382,92,o),
(382,106,cs),
(382,122,o),
(383,137,o),
(383,153,c),
(408,159,o),
(436,160,o),
(461,160,c),
(461,95,o),
(517,80,o),
(571,80,cs),
(584,80,o),
(660,85,o),
(660,102,c)
);
},
{
closed = 1;
nodes = (
(265,295,l),
(254,291,o),
(243,289,o),
(231,289,cs),
(180,289,o),
(166,318,o),
(166,364,cs),
(166,429,o),
(200,496,o),
(273,496,cs),
(276,496,o),
(280,496,o),
(283,495,c)
);
},
{
closed = 1;
nodes = (
(407,312,o),
(404,312,o),
(400,313,c),
(400,361,o),
(411,413,o),
(417,461,cs),
(420,483,o),
(422,505,o),
(425,526,c),
(432,526,o),
(439,528,o),
(446,528,cs),
(499,528,o),
(511,480,o),
(511,436,cs),
(511,368,o),
(488,312,o),
(411,312,cs)
);
}
);
width = 696;
}
);
unicode = 4673;
},
{
glyphname = uni1242;
layers = (
{
layerId = "5B9FE6CD-9A20-4D75-8A4E-A5261DDE1CE6";
shapes = (
{
closed = 1;
nodes = (
(679,-13,o),
(635,-2,o),
(635,57,cs),
(635,79,o),
(646,108,o),
(657,127,c),
(657,136,o),
(633,136,o),
(628,136,cs),
(576,136,o),
(500,106,o),
(487,51,c),
(476,48,o),
(464,48,o),
(452,48,cs),
(434,48,o),
(416,49,o),
(399,52,c),
(391,66,o),
(389,80,o),
(389,96,cs),
(389,162,o),
(396,231,o),
(407,296,c),
(489,296,o),
(639,343,o),
(658,436,cs),
(661,449,o),
(662,463,o),
(662,477,cs),
(662,553,o),
(609,573,o),
(542,573,cs),
(508,573,o),
(473,565,o),
(439,562,c),
(443,607,o),
(454,651,o),
(454,696,cs),
(454,740,o),
(449,752,o),
(406,752,cs),
(389,752,o),
(276,746,o),
(276,726,cs),
(276,712,o),
(303,717,o),
(303,684,cs),
(303,640,o),
(307,579,o),
(298,536,c),
(197,536,o),
(29,483,o),
(29,361,cs),
(29,280,o),
(96,261,o),
(164,261,cs),
(197,261,o),
(233,265,o),
(266,271,c),
(256,199,o),
(238,123,o),
(238,50,cs),
(238,12,o),
(257,1,o),
(294,1,cs),
(330,1,o),
(362,16,o),
(397,20,cs),
(426,23,o),
(455,19,o),
(484,24,c),
(492,-36,o),
(531,-56,o),
(588,-56,cs),
(604,-56,o),
(679,-47,o),
(679,-27,cs)
);
},
{
closed = 1;
nodes = (
(266,312,l),
(258,310,o),
(249,309,o),
(241,309,cs),
(192,309,o),
(173,332,o),
(173,379,cs),
(173,440,o),
(210,512,o),
(279,512,cs),
(285,512,o),
(291,509,o),
(297,510,c)
);
},
{
closed = 1;
nodes = (
(492,323,o),
(449,320,o),
(411,320,c),
(434,532,l),
(439,532,o),
(444,534,o),
(448,534,cs),
(461,534,ls),
(512,534,o),
(526,490,o),
(526,446,cs),
(526,418,o),
(520,390,o),
(509,364,cs)
);
}
);
width = 716;
}
);
unicode = 4674;
},
{
glyphname = uni1243;
layers = (
{
layerId = "5B9FE6CD-9A20-4D75-8A4E-A5261DDE1CE6";
shapes = (
{
closed = 1;
nodes = (
(770,511,o),
(724,540,o),
(642,540,cs),
(608,540,o),
(573,534,o),
(540,527,c),
(540,556,o),
(543,685,o),
(517,700,c),
(511,703,o),
(504,706,o),
(497,706,cs),
(481,706,o),
(370,695,o),
(370,678,cs),
(370,672,o),
(394,658,o),
(399,645,cs),
(404,631,o),
(403,611,o),
(403,596,cs),
(403,563,o),
(404,530,o),
(401,497,c),
(321,489,o),
(158,461,o),
(158,353,cs),
(158,272,o),
(212,247,o),
(284,247,cs),
(324,247,o),
(364,255,o),
(403,264,c),
(403,245,ls),
(403,213,o),
(401,186,o),
(392,156,cs),
(376.863,105.181,o),
(132.054,40,o),
(62,40,cs),
(56,40,o),
(42,40,o),
(42,31,cs),
(42,10,o),
(43,-9,o),
(41,-30,cs),
(39,-49,o),
(22,-86,o),
(22,-96,cs),
(22,-105,o),
(37,-104,o),
(44,-104,cs),
(146,-104,o),
(194,-72,o),
(194,37,c),
(259,55,o),
(325,74,o),
(390,92,cs),
(513,127,o),
(540,143,o),
(540,277,c),
(636,277,o),
(770,303,o),
(770,425,cs)
);
},
{
closed = 1;
nodes = (
(295,377,o),
(300,409,o),
(312,423,cs),
(330,444,o),
(376,473,o),
(403,473,c),
(403,290,l),
(391,283,o),
(377,280,o),
(363,280,cs),
(307,280,o),
(295,307,o),
(295,358,cs)
);
},
{
closed = 1;
nodes = (
(536,334,o),
(536,376,o),
(536,414,cs),
(536,490,l),
(545,494,o),
(556,496,o),
(565,496,cs),
(615,496,o),
(634,455,o),
(634,410,cs),
(634,352,o),
(606,296,o),
(540,296,c)
);
}
);
width = 813;
}
);
unicode = 4675;
},
{
glyphname = uni1244;
layers = (
{
layerId = "5B9FE6CD-9A20-4D75-8A4E-A5261DDE1CE6";
shapes = (
{
closed = 1;
nodes = (
(612,185,o),
(591,234,o),
(540,234,cs),
(493,234,o),
(446,216,o),
(399,216,c),
(399,247,o),
(403,279,o),
(403,310,c),
(516,323,o),
(655,356,o),
(655,497,cs),
(655,569,o),
(613,596,o),
(546,596,cs),
(508,596,o),
(468,590,o),
(432,578,c),
(436,619,o),
(439,661,o),
(439,702,cs),
(439,746,o),
(435,760,o),
(390,760,cs),
(375,760,o),
(264,747,o),
(264,732,cs),
(264,714,o),
(295,727,o),
(295,674,cs),
(295,636,o),
(288,598,o),
(288,560,c),
(189,560,o),
(29,508,o),
(29,388,cs),
(29,306,o),
(87,284,o),
(159,284,cs),
(192,284,o),
(231,288,o),
(264,295,c),
(253,221,o),
(245,146,o),
(245,72,cs),
(245,29,o),
(250,0,o),
(301,0,cs),
(336,0,o),
(369,13,o),
(403,16,cs),
(498,24,o),
(612,4,o),
(612,141,cs)
);
},
{
closed = 1;
nodes = (
(280,536,o),
(284,536,o),
(288,535,c),
(268,339,l),
(257,337,o),
(246,334,o),
(235,334,cs),
(188,334,o),
(173,371,o),
(173,412,cs),
(173,477,o),
(204,536,o),
(276,536,cs)
);
},
{
closed = 1;
nodes = (
(402,189,o),
(412,192,o),
(422,192,cs),
(471,192,o),
(482,155,o),
(482,113,cs),
(482,80,o),
(462,40,o),
(424,40,cs),
(394,40,o),
(389,66,o),
(389,90,cs),
(389,122,o),
(393,153,o),
(393,185,c)
);
},
{
closed = 1;
nodes = (
(428,557,l),
(434,557,o),
(440,558,o),
(446,558,cs),
(499,558,o),
(511,515,o),
(511,470,cs),
(511,402,o),
(488,344,o),
(411,344,c)
);
}
);
width = 696;
}
);
unicode = 4676;
},
{
glyphname = uni1245;
layers = (
{
layerId = "5B9FE6CD-9A20-4D75-8A4E-A5261DDE1CE6";
shapes = (
{
closed = 1;
nodes = (
(407,41,o),
(381,46,o),
(377,74,cs),
(375,87,o),
(373,102,o),
(374,115,cs),
(390,297,l),
(502,297,o),
(641,336,o),
(641,472,cs),
(641,545,o),
(577,563,o),
(516,563,cs),
(494,563,o),
(442,562,o),
(423,556,c),
(427,594,o),
(432,633,o),
(432,671,cs),
(432,711,o),
(441,755,o),
(388,755,cs),
(356,755,o),
(324,745,o),
(292,745,cs),
(256,745,o),
(284,795,o),
(269,833,cs),
(259,859,o),
(212,864,o),
(188,864,cs),
(174,864,o),
(96,861,o),
(96,848,c),
(108,826,o),
(122,801,o),
(122,776,cs),
(122,751,o),
(110,727,o),
(97,707,c),
(97,698,o),
(132,696,o),
(139,696,cs),
(181,696,o),
(224,713,o),
(261,732,c),
(278,724,o),
(295,692,o),
(295,673,cs),
(295,623,o),
(289,570,o),
(281,520,c),
(185,520,o),
(22,474,o),
(22,355,cs),
(22,277,o),
(80,256,o),
(148,256,cs),
(183,256,o),
(223,262,o),
(257,273,c),
(249,203,o),
(238,131,o),
(238,60,cs),
(238,21,o),
(245,0,o),
(289,0,cs),
(305,0,o),
(407,14,o),
(407,30,cs)
);
},
{
closed = 1;
nodes = (
(257,294,l),
(248,291,o),
(238,289,o),
(229,289,cs),
(179,289,o),
(166,320,o),
(166,364,cs),
(166,428,o),
(190,496,o),
(266,496,cs),
(271,496,o),
(275,495,o),
(280,495,c)
);
},
{
closed = 1;
nodes = (
(413,323,o),
(405,323,o),
(398,324,c),
(406,350,o),
(413,491,o),
(416,520,c),
(425,522,o),
(437,523,o),
(446,523,cs),
(495,523,o),
(504,479,o),
(504,438,cs),
(504,386,o),
(481,323,o),
(420,323,cs)
);
}
);
width = 680;
}
);
unicode = 4677;
},
{
glyphname = uni1246;
layers = (
{
layerId = "5B9FE6CD-9A20-4D75-8A4E-A5261DDE1CE6";
shapes = (
{
closed = 1;
nodes = (
(414,41,o),
(394,35,o),
(386,54,cs),
(382,63,o),
(382,83,o),
(382,93,cs),
(382,139,o),
(391,158,o),
(397,200,c),
(453,200,o),
(510,211,o),
(560,237,cs),
(611,263,o),
(629,291,o),
(645,344,c),
(646,346,l),
(645,349,o),
(648,354,o),
(648,357,cs),
(648,445,o),
(604,464,o),
(523,464,cs),
(491,464,o),
(460,456,o),
(428,456,c),
(425,488,l),
(489,521,o),
(569,580,o),
(569,660,cs),
(569,744,o),
(467,752,o),
(405,752,cs),
(316,752,o),
(238,680,o),
(238,589,cs),
(238,555,o),
(265,503,o),
(288,478,c),
(288,471,o),
(289,459,o),
(285,453,c),
(191,428,o),
(29,398,o),
(29,272,cs),
(29,194,o),
(94,176,o),
(159,176,cs),
(191,176,o),
(225,178,o),
(257,183,c),
(251,138,o),
(245,94,o),
(245,48,cs),
(245,9,o),
(259,0,o),
(297,0,cs),
(322,0,o),
(414,9,o),
(414,25,cs)
);
},
{
closed = 1;
nodes = (
(263,216,l),
(255,213,o),
(246,212,o),
(238,212,cs),
(190,212,o),
(166,237,o),
(166,284,cs),
(166,346,o),
(188,384,o),
(245,408,c),
(261.401,413.964,o),
(272.929,418,o),
(290,418,c)
);
},
{
closed = 1;
nodes = (
(417,298,o),
(421,367,o),
(433,432,c),
(514,432,o),
(511,383,o),
(511,317,cs),
(511,270,o),
(465,232,o),
(420,232,cs),
(414,232,o),
(408,233,o),
(402,234,c)
);
},
{
closed = 1;
nodes = (
(384,533,o),
(353,629,o),
(353,648,cs),
(353,680,o),
(364,728,o),
(404,728,cs),
(443,728,o),
(446,684,o),
(446,654,cs),
(446,608,o),
(435,561,o),
(402,528,c)
);
}
);
width = 696;
}
);
unicode = 4678;
},
{
glyphname = uni1248;
layers = (
{
layerId = "5B9FE6CD-9A20-4D75-8A4E-A5261DDE1CE6";
shapes = (
{
closed = 1;
nodes = (
(694,118,o),
(698,136,o),
(698,152,cs),
(698,223,o),
(641,248,o),
(579,248,cs),
(518,248,o),
(420,225,o),
(363,209,c),
(372,299,l),
(465,312,o),
(592,339,o),
(592,458,cs),
(592,528,o),
(577,609,o),
(491,609,cs),
(463,609,o),
(432,601,o),
(406,591,c),
(406,628,o),
(416,665,o),
(416,702,cs),
(416,741,o),
(412,760,o),
(366,760,cs),
(340,760,o),
(243,751,o),
(243,735,cs),
(243,724,o),
(264,725,o),
(271,706,c),
(276,694,o),
(275,672,o),
(275,659,cs),
(275,642,o),
(270,596,o),
(271,584,c),
(169,571,o),
(122,565,o),
(41,496,c),
(40,460,o),
(29,424,o),
(29,387,cs),
(29,301,o),
(78,269,o),
(158,269,cs),
(184,269,o),
(213,274,o),
(238,281,c),
(226,200,o),
(212,115,o),
(212,33,cs),
(212,7,o),
(249,0,o),
(269,0,cs),
(284,0,o),
(373,11,o),
(373,27,cs),
(373,37,o),
(353,46,o),
(353,59,cs),
(353,102.166,o),
(354.071,143.78,o),
(358,187,c),
(373,190,o),
(387,190,o),
(401,192,c),
(401,189,ls),
(401,160,o),
(394,131,o),
(394,102,cs),
(394,73,o),
(398,24,o),
(437,24,cs),
(472,24,o),
(503,48,o),
(539,48,cs),
(594,48,ls),
(649,48,o),
(669,47,o),
(689,103,c)
);
},
{
closed = 1;
nodes = (
(241,308,l),
(236,305,o),
(223,304,o),
(218,304,cs),
(170,304,o),
(162,358,o),
(162,395,cs),
(162,476,o),
(178,545,o),
(267,562,c)
);
},
{
closed = 1;
nodes = (
(401,566,l),
(455,564,o),
(457,505,o),
(457,464,c),
(457,462,l),
(456,460,l),
(457,414,o),
(440,328,o),
(380,328,cs),
(376,328,o),
(371,329,o),
(367,330,c)
);
},
{
closed = 1;
nodes = (
(510,72,o),
(507,112,o),
(507,133,cs),
(507,157,o),
(516,224,o),
(549,224,cs),
(579,224,o),
(584,192,o),
(584,168,cs),
(584,143,o),
(572,72,o),
(538,72,cs)
);
}
);
width = 734;
}
);
unicode = 4680;
},
{
glyphname = uni124A;
layers = (
{
layerId = "5B9FE6CD-9A20-4D75-8A4E-A5261DDE1CE6";
shapes = (
{
closed = 1;
nodes = (
(986,260,l),
(964,301,o),
(955,317,o),
(955,365,c),
(952,368,o),
(952,372,o),
(952,376,cs),
(952,381,o),
(952,386,o),
(955,390,c),
(955,394,o),
(955,408,o),
(949,408,cs),
(912,408,o),
(876,396,o),
(838,396,cs),
(806,396,o),
(774,388,o),
(774,429,cs),
(774,454,o),
(797,557,o),
(808,580,cs),
(810,584,o),
(812,588,o),
(812,592,cs),
(812,618,o),
(778,619,o),
(759,619,cs),
(728,619,o),
(695,614,o),
(664,610,c),
(660,609,o),
(634,606,o),
(634,600,cs),
(634,589,o),
(658,588,o),
(658,555,cs),
(658,529,o),
(651,503,o),
(643,479,c),
(625,475,o),
(610,475,o),
(592,475,c),
(587,554,o),
(553,607,o),
(469,607,cs),
(438,607,o),
(407,600,o),
(377,592,c),
(381,633,o),
(387,674,o),
(387,716,cs),
(387,755,o),
(373,760,o),
(336,760,cs),
(315,760,o),
(222,752,o),
(222,734,cs),
(222,725,o),
(240,725,o),
(244,702,cs),
(246,690,o),
(247,678,o),
(247,666,cs),
(247,640,o),
(243,615,o),
(243,589,c),
(220,583,o),
(196,581,o),
(173,576,cs),
(70,555,o),
(21,488,o),
(21,382,cs),
(21,303,o),
(63,268,o),
(139,268,cs),
(154,268,o),
(210,273,o),
(222,278,c),
(214,203,o),
(204,124,o),
(204,49,cs),
(204,12,o),
(215,0,o),
(253,0,cs),
(267,0,o),
(372,18,o),
(372,30,c),
(370,34,o),
(367,38,o),
(363,41,c),
(345,56,o),
(346,86,o),
(346,107,cs),
(346,166,o),
(342,230,o),
(350,288,c),
(456,288,o),
(573,326,o),
(592,445,c),
(596,447,o),
(601,448,o),
(605,448,cs),
(634,448,l),
(634,377,o),
(621,359,o),
(697,359,cs),
(733,359,o),
(771,371,o),
(799,371,cs),
(802,371,l),
(814,294,o),
(881,248,o),
(957,248,cs),
(962,248,o),
(970,251,o),
(975,250,c),
(978,252,o),
(981,253,o),
(984,254,c)
);
},
{
closed = 1;
nodes = (
(363,396,o),
(370,480,o),
(376,564,c),
(383,567,o),
(391,568,o),
(398,568,cs),
(441,568,o),
(446,513,o),
(446,481,cs),
(446,442,o),
(438,358,o),
(411,328,cs),
(398,313,o),
(374,312,o),
(355,312,c)
);
},
{
closed = 1;
nodes = (
(226,313,l),
(216,310,o),
(207,306,o),
(197,306,cs),
(153,306,o),
(148,359,o),
(148,392,cs),
(148,468,o),
(158,542,o),
(246,554,c)
);
}
);
width = 1025;
}
);
unicode = 4682;
},
{
glyphname = uni124B;
layers = (
{
layerId = "5B9FE6CD-9A20-4D75-8A4E-A5261DDE1CE6";
shapes = (
{
closed = 1;
nodes = (
(510,33,o),
(493,30,o),
(489,53,cs),
(487,66,o),
(486,79,o),
(486,93,cs),
(486,241,o),
(493,229,o),
(346,250,c),
(346,282,o),
(349,313,o),
(351,345,c),
(352,354,o),
(356,367,o),
(355,376,c),
(453,376,o),
(590,417,o),
(596,535,c),
(596,539,l),
(598,542,o),
(599,552,o),
(599,555,cs),
(599,636,o),
(559,697,o),
(473,697,cs),
(450,697,o),
(428,689,o),
(408,680,c),
(406,709,o),
(415,749,o),
(415,781,cs),
(415,829,o),
(395,832,o),
(351,832,cs),
(327,832,o),
(246,833,o),
(246,814,cs),
(246,808,o),
(258,801,o),
(262,798,cs),
(281,784,o),
(282,755,o),
(282,734,cs),
(282,717,o),
(282,704,o),
(278,688,c),
(150,681,o),
(29,641,o),
(29,491,cs),
(29,406,o),
(87,376,o),
(164,376,cs),
(185,376,o),
(206,379,o),
(227,384,c),
(224,337,o),
(216,290,o),
(212,243,c),
(191,238,o),
(67,231,o),
(64,229,c),
(59,226,o),
(58,220,o),
(58,215,cs),
(58,155,o),
(62,145,o),
(36,87,c),
(36,79,o),
(57,80,o),
(63,80,c),
(64,79,o),
(67,79,o),
(68,79,c),
(147,79,o),
(196,151,o),
(209,221,c),
(274,221,ls),
(297,221,o),
(322,221,o),
(345,215,c),
(345,198,o),
(341,34,o),
(355,16,c),
(356,0,o),
(390,0,o),
(402,0,cs),
(416,0,o),
(510,7,o),
(510,24,cs)
);
},
{
closed = 1;
nodes = (
(372,441,o),
(376,481,o),
(381,521,cs),
(385,552,o),
(391,627,o),
(401,655,c),
(403,656,o),
(405,656,o),
(407,656,c),
(452,656,o),
(457,586,o),
(457,554,cs),
(457,489,o),
(436,416,o),
(365,401,c)
);
},
{
closed = 1;
nodes = (
(160,416,o),
(169,472,o),
(169,527,cs),
(169,574,o),
(194,656,o),
(253,656,cs),
(258,656,o),
(263,655,o),
(268,654,c),
(264,625,o),
(259,596,o),
(256,567,c),
(254,564,l),
(238,460,ls),
(236,445,o),
(231,431,o),
(231,416,c)
);
}
);
width = 635;
}
);
unicode = 4683;
},
{
glyphname = uni124C;
layers = (
{
layerId = "5B9FE6CD-9A20-4D75-8A4E-A5261DDE1CE6";
shapes = (
{
closed = 1;
nodes = (
(592,56,o),
(640,105,o),
(640,187,cs),
(640,257,o),
(613,280,o),
(544,280,cs),
(510,280,o),
(479,273,o),
(446,268,c),
(447,294,o),
(455,321,o),
(455,347,c),
(467,345,o),
(478,344,o),
(490,344,cs),
(564,344,o),
(704,378,o),
(704,473,cs),
(704,564,o),
(676,618,o),
(579,618,cs),
(554,618,o),
(529,615,o),
(504,610,c),
(512,635,o),
(521,669,o),
(521,695,cs),
(521,743,o),
(493,744,o),
(452,744,cs),
(436,744,o),
(360,735,o),
(357,735,c),
(353,733,o),
(350,730,o),
(350,726,cs),
(350,713,o),
(372,710,o),
(377,689,cs),
(380,677,o),
(381,665,o),
(381,653,cs),
(381,640,o),
(379,626,o),
(376,613,c),
(336,600,o),
(291,601,o),
(251,591,cs),
(175,572,o),
(127,504,o),
(127,428,cs),
(127,339,o),
(194,304,o),
(274,304,cs),
(289,304,o),
(304,306,o),
(318,309,c),
(279,96,l),
(224,58,o),
(83,71,o),
(63,61,c),
(58,59,o),
(56,54,o),
(56,49,cs),
(56,45,o),
(58,41,o),
(59,37,c),
(61,28,o),
(59,16,o),
(59,7,cs),
(59,-11,o),
(57,-25,o),
(50,-42,c),
(50,-44,l),
(44,-54,o),
(41,-65,o),
(35,-75,c),
(35,-80,o),
(52,-80,o),
(55,-80,cs),
(139,-80,o),
(200,-32,o),
(216,51,c),
(272,63,o),
(334,80,o),
(392,80,cs),
(406,80,o),
(469,56,o),
(511,56,cs)
);
},
{
closed = 1;
nodes = (
(473,411,o),
(494,565,o),
(503,579,c),
(560.381,579,o),
(563,549.743,o),
(563,499,cs),
(563,450,o),
(532,368,o),
(473,368,cs),
(470,368,o),
(467,368,o),
(464,369,c)
);
},
{
closed = 1;
nodes = (
(278,344,o),
(267,372,o),
(267,421,cs),
(267,471,o),
(287,587,o),
(353,587,cs),
(359,587,o),
(366,586,o),
(372,583,c),
(357,504,o),
(345,424,o),
(332,344,c)
);
},
{
closed = 1;
nodes = (
(435,96,o),
(416,113,o),
(416,130,cs),
(416,168,o),
(433,212,o),
(430,246,c),
(437,246,o),
(444,248,o),
(450,248,cs),
(496,248,o),
(500,216,o),
(500,178,cs),
(500,148,o),
(490,96,o),
(451,96,cs)
);
}
);
width = 739;
}
);
unicode = 4684;
},
{
glyphname = uni124D;
layers = (
{
layerId = "5B9FE6CD-9A20-4D75-8A4E-A5261DDE1CE6";
shapes = (
{
closed = 1;
nodes = (
(363,396,o),
(370,480,o),
(376,564,c),
(383,567,o),
(391,568,o),
(398,568,cs),
(443,568,o),
(446,509,o),
(446,477,cs),
(446,439,o),
(437,358,o),
(411,328,cs),
(398,313,o),
(374,312,o),
(355,312,c)
);
},
{
closed = 1;
nodes = (
(226,313,l),
(216,310,o),
(207,306,o),
(197,306,cs),
(153,306,o),
(148,359,o),
(148,392,cs),
(148,468,o),
(158,542,o),
(246,554,c)
);
},
{
closed = 1;
nodes = (
(925,309,o),
(911,340,o),
(911,368,cs),
(911,399,o),
(933,431,o),
(933,453,cs),
(933,462,o),
(925,464,o),
(918,464,cs),
(790,464,l),
(790,490.519,o),
(790.953,514.503,o),
(796,541,cs),
(799,558,o),
(812,590,o),
(812,604,cs),
(812,619,o),
(806,640,o),
(787,640,cs),
(742,640,o),
(697,634,o),
(652,634,cs),
(648,634,o),
(645,631,o),
(645,627,cs),
(645,616,o),
(654,607,o),
(662,600,c),
(664,595,o),
(665,589,o),
(665,584,cs),
(665,549,o),
(655,509,o),
(648,476,c),
(633,476,o),
(617,475,o),
(602,475,cs),
(592,475,l),
(587,554,o),
(553,607,o),
(469,607,cs),
(438,607,o),
(407,600,o),
(377,592,c),
(381,634,o),
(387,674,o),
(387,716,cs),
(387,755,o),
(373,760,o),
(336,760,cs),
(315,760,o),
(222,752,o),
(222,734,cs),
(222,725,o),
(240,725,o),
(244,702,cs),
(246,689,o),
(248,672,o),
(247,658,cs),
(245,635,o),
(243,612,o),
(243,589,c),
(220,583,o),
(196,581,o),
(173,576,cs),
(70,555,o),
(21,488,o),
(21,382,cs),
(21,304,o),
(63,268,o),
(139,268,cs),
(155,268,o),
(210,273,o),
(222,278,c),
(214,203,o),
(204,124,o),
(204,49,cs),
(204,12,o),
(215,0,o),
(253,0,cs),
(267,0,o),
(372,18,o),
(372,30,c),
(370,34,o),
(367,38,o),
(363,41,c),
(345,57,o),
(346,85,o),
(346,107,cs),
(346,165,o),
(342,230,o),
(350,288,c),
(456,288,o),
(573,326,o),
(592,445,c),
(591,445,l),
(591,445,o),
(591,445,o),
(592,445,c),
(595,446,l),
(663,451,ls),
(699,453,o),
(735,456,o),
(771,456,c),
(768,449,o),
(760,437,o),
(760,429,c),
(756,422,o),
(756,413,o),
(756,405,cs),
(756,321,o),
(841,280,o),
(915,280,cs),
(919,280,o),
(940,280,o),
(940,286,c)
);
}
);
width = 1025;
}
);
unicode = 4685;
},
{
glyphname = uni1250;
layers = (
{
layerId = "5B9FE6CD-9A20-4D75-8A4E-A5261DDE1CE6";
shapes = (
{
closed = 1;
nodes = (
(256,301,l),
(246,296,o),
(234,296,o),
(223,296,cs),
(176,296,o),
(162,334,o),
(162,374,cs),
(162,453,o),
(191,506,o),
(275,508,c)
);
},
{
closed = 1;
nodes = (
(416,542,l),
(478,540,o),
(507,507,o),
(507,445,cs),
(507,363,o),
(475,321,o),
(392,317,c)
);
},
{
closed = 1;
nodes = (
(405,45,o),
(384,31,o),
(377,56,c),
(372,72,o),
(373,89,o),
(373,105,cs),
(373,141,o),
(378,176,o),
(381,212,cs),
(383,242,o),
(384,272,o),
(386,302,c),
(388,302,o),
(439,310,o),
(450,312,cs),
(535,326,o),
(640,366,o),
(640,468,cs),
(640,551,o),
(603,584,o),
(521,584,cs),
(487,584,o),
(446,574,o),
(416,558,c),
(425,700,l),
(456,706,o),
(487,712,o),
(518,712,c),
(528,670,o),
(563,656,o),
(603,656,cs),
(637,656,o),
(665,666,o),
(697,675,c),
(704,683,l),
(694,715,o),
(670,712,o),
(670,765,cs),
(670,786,o),
(677,803,o),
(687,821,c),
(687,826,o),
(678,826,o),
(675,826,cs),
(666,826,o),
(657,824,o),
(648,823,cs),
(574,813,o),
(524,814,o),
(507,728,c),
(222,701,l),
(218,754,o),
(166,768,o),
(121,768,cs),
(110,768,o),
(42,764,o),
(41,749,c),
(56,729,o),
(70,703,o),
(70,677,cs),
(70,643,o),
(55,623,o),
(43,593,c),
(43,584,o),
(62,584,o),
(68,584,cs),
(126,584,o),
(214,605,o),
(218,676,c),
(293,683,l),
(293,632,o),
(287,576,o),
(277,526,c),
(256,526,o),
(232,520,o),
(212,516,cs),
(133,500,o),
(29,455,o),
(29,360,cs),
(29,287,o),
(68,256,o),
(139,256,cs),
(186,256,o),
(210,269,o),
(252,279,c),
(241,215,o),
(232,117,o),
(232,53,cs),
(232,13,o),
(256,0,o),
(293,0,cs),
(312,0,o),
(405,13,o),
(405,33,cs)
);
}
);
width = 763;
}
);
unicode = 4688;
},
{
glyphname = uni1251;
layers = (
{
layerId = "5B9FE6CD-9A20-4D75-8A4E-A5261DDE1CE6";
shapes = (
{
closed = 1;
nodes = (
(251,302,l),
(243,297,o),
(230,296,o),
(221,296,cs),
(175,296,o),
(162,335,o),
(162,374,cs),
(162,458,o),
(188,500,o),
(274,508,c)
);
},
{
closed = 1;
nodes = (
(416,541,l),
(478,535,o),
(507,509,o),
(507,444,cs),
(507,366,o),
(475,315,o),
(392,315,c)
);
},
{
closed = 1;
nodes = (
(641,154,o),
(624,168,o),
(624,208,cs),
(624,225,o),
(635,240,o),
(635,255,cs),
(635,263,o),
(615,264,o),
(609,264,cs),
(565,264,o),
(482,249,o),
(465,202,c),
(437,199,o),
(409,192,o),
(381,192,c),
(381,224,o),
(385,263,o),
(394,294,c),
(494,310,o),
(640,330,o),
(640,460,cs),
(640,544,o),
(601,576,o),
(519,576,cs),
(483,576,o),
(450,568,o),
(416,558,c),
(425,691,l),
(455,699,o),
(487,702,o),
(518,704,c),
(528,661,o),
(563,648,o),
(603,648,cs),
(617,648,o),
(704,660,o),
(704,677,c),
(690,711,o),
(670,716,o),
(670,761,cs),
(670,781,o),
(676,804,o),
(687,821,c),
(687,826,o),
(678,826,o),
(675,826,cs),
(653,826,o),
(629,821,o),
(607,819,cs),
(551,814,o),
(517,782,o),
(507,727,c),
(222,700,l),
(215,763,o),
(154,768,o),
(104,768,cs),
(98,768,o),
(64,762,o),
(60,760,c),
(54,759,o),
(41,755,o),
(41,748,c),
(56,728,o),
(70,702,o),
(70,677,cs),
(70,643,o),
(55,623,o),
(43,593,c),
(43,584,o),
(62,584,o),
(68,584,cs),
(128,584,o),
(208,603,o),
(217,674,c),
(292,682,l),
(292,643,o),
(287,597,o),
(280,559,cs),
(278,548,o),
(275,536,o),
(275,525,c),
(254,525,o),
(230,519,o),
(210,515,cs),
(129,498,o),
(29,456,o),
(29,359,cs),
(29,287,o),
(69,256,o),
(139,256,cs),
(179,256,o),
(214,268,o),
(251,280,c),
(250,274,o),
(249,267,o),
(249,261,c),
(248,259,l),
(241,192,o),
(232,123,o),
(232,55,cs),
(232,13,o),
(260,0,o),
(298,0,cs),
(314,0,o),
(405,10,o),
(405,28,cs),
(405,46,o),
(381,32,o),
(372,67,cs),
(368,84,o),
(366,99,o),
(366,116,cs),
(366,135,o),
(368,155,o),
(368,174,c),
(380,180,o),
(442,182,o),
(457,184,c),
(468,120,o),
(514,96,o),
(575,96,cs),
(589,96,o),
(653,99,o),
(654,120,c)
);
}
);
width = 744;
}
);
unicode = 4689;
},
{
glyphname = uni1252;
layers = (
{
layerId = "5B9FE6CD-9A20-4D75-8A4E-A5261DDE1CE6";
shapes = (
{
closed = 1;
nodes = (
(619,1,o),
(596,-1,o),
(596,49,cs),
(596,75,o),
(618,109,o),
(618,119,cs),
(618,128,o),
(596,128,o),
(590,128,cs),
(540,128,o),
(466,99,o),
(454,45,c),
(437,43,o),
(421,40,o),
(404,40,cs),
(358,40,o),
(358,52,o),
(358,96,cs),
(358,163,o),
(370,232,o),
(378,298,c),
(479,314,o),
(634,319,o),
(634,460,cs),
(634,540,o),
(582,568,o),
(509,568,cs),
(478,568,o),
(446,564,o),
(416,556,c),
(428,688,l),
(454,693,o),
(479,696,o),
(506,696,cs),
(513,696,l),
(522,650,o),
(568,640,o),
(608,640,cs),
(622,640,o),
(707,648,o),
(707,663,c),
(692,694,o),
(675,699,o),
(675,740,cs),
(675,761,o),
(682,772,o),
(689,791,c),
(693,797,l),
(693,802,o),
(683,802,o),
(680,802,cs),
(672,802,o),
(663,800,o),
(655,800,c),
(588,796,o),
(531,794,o),
(513,718,c),
(228,704,l),
(224,763,o),
(171,784,o),
(119,784,cs),
(98,784,o),
(75,782,o),
(55,775,c),
(53,772,o),
(50,770,o),
(48,767,c),
(59,742,o),
(74,725,o),
(74,695,cs),
(74,665,o),
(58,636,o),
(45,610,c),
(45,603,o),
(65,603,o),
(69,603,cs),
(122,603,o),
(218,611,o),
(222,680,c),
(298,680,l),
(298,654,o),
(286,544,o),
(277,525,c),
(177,525,o),
(21,478,o),
(21,356,cs),
(21,284,o),
(74,264,o),
(137,264,cs),
(163,264,o),
(191,267,o),
(217,273,cs),
(226,275,o),
(235,279,o),
(244,280,c),
(237,254,o),
(218,92,o),
(218,49,cs),
(218,10,o),
(251,2,o),
(284,2,cs),
(317,2,o),
(349,16,o),
(381,16,cs),
(451,16,l),
(459,-44,o),
(496,-64,o),
(553,-64,cs),
(569,-64,o),
(640,-55,o),
(640,-35,c)
);
},
{
closed = 1;
nodes = (
(411,536,l),
(471,529,o),
(493,495,o),
(493,436,cs),
(493,371,o),
(468,311,o),
(394,311,cs),
(391,311,o),
(387,311,o),
(384,312,c)
);
},
{
closed = 1;
nodes = (
(246,300,l),
(236,298,o),
(227,296,o),
(217,296,cs),
(166,296,o),
(148,332,o),
(148,378,cs),
(148,453,o),
(179,512,o),
(262,512,cs),
(266,512,o),
(270,511,o),
(275,511,c)
);
}
);
width = 746;
}
);
unicode = 4690;
},
{
glyphname = uni1253;
layers = (
{
layerId = "5B9FE6CD-9A20-4D75-8A4E-A5261DDE1CE6";
shapes = (
{
closed = 1;
nodes = (
(394,259,l),
(382,253,o),
(368,248,o),
(355,248,cs),
(300,248,o),
(288,276,o),
(288,326,cs),
(288,350,o),
(296,369,o),
(303,391,c),
(321,410,o),
(361,441,o),
(387,441,c)
);
},
{
closed = 1;
nodes = (
(531,323,o),
(520,384,o),
(520,443,cs),
(520,448,o),
(521,453,o),
(521,458,c),
(531,463,o),
(544,464,o),
(555,464,cs),
(607,464,o),
(619,416,o),
(619,374,cs),
(619,319,o),
(589,264,o),
(528,264,c)
);
},
{
closed = 1;
nodes = (
(753,491,o),
(704,520,o),
(623,520,cs),
(589,520,o),
(552,511,o),
(521,498,c),
(521,509,o),
(521,520,o),
(520,531,c),
(518,564,o),
(520,597,o),
(520,630,cs),
(520,634,o),
(521,639,o),
(521,643,c),
(533,647,o),
(549,648,o),
(561,648,cs),
(598,648,l),
(606,607,o),
(654,600,o),
(689,600,cs),
(699,600,o),
(786,609,o),
(786,624,cs),
(786,628,o),
(754,666,o),
(754,706,cs),
(754,724,o),
(761,749,o),
(770,765,c),
(770,771,o),
(758,770,o),
(754,770,cs),
(743,770,o),
(730,768,o),
(719,767,cs),
(647,762,o),
(606,751,o),
(592,672,c),
(306,656,l),
(295.491,729.56,o),
(240.666,735,o),
(180,735,c),
(165,729,o),
(137,736,o),
(127,718,c),
(133,706,o),
(140,695,o),
(148,685,c),
(152,672,o),
(155,659,o),
(155,646,cs),
(155,610,o),
(137,592,o),
(123,561,c),
(123,552,o),
(142,552,o),
(148,552,cs),
(203,552,o),
(293,563,o),
(302,632,c),
(378,632,l),
(390,584,o),
(387,526,o),
(387,477,cs),
(387,472,o),
(387,468,o),
(386,463,c),
(306,455,o),
(155,428,o),
(155,322,cs),
(155,246,o),
(207,218,o),
(275,218,cs),
(311,218,o),
(352,223,o),
(387,232,c),
(387,220,o),
(394,207,o),
(394,195,cs),
(394,174,o),
(391,151,o),
(384,131,cs),
(366,78,o),
(114,24,o),
(60,24,cs),
(53,24,o),
(41,23,o),
(41,14,cs),
(41,-32,o),
(43,-76,o),
(21,-119,c),
(20,-130,o),
(43,-128,o),
(50,-128,cs),
(152,-128,o),
(190,-83,o),
(190,20,c),
(380,71,ls),
(495,102,o),
(525,120,o),
(525,245,c),
(627,245,o),
(753,280,o),
(753,404,cs)
);
}
);
width = 813;
}
);
unicode = 4691;
},
{
glyphname = uni1254;
layers = (
{
layerId = "5B9FE6CD-9A20-4D75-8A4E-A5261DDE1CE6";
shapes = (
{
closed = 1;
nodes = (
(599,186,o),
(578,234,o),
(528,234,cs),
(482,234,o),
(437,216,o),
(390,216,c),
(390,236,o),
(395,296,o),
(394,309,c),
(506,322,o),
(640,356,o),
(640,494,cs),
(640,566,o),
(602,592,o),
(534,592,cs),
(495,592,o),
(457,585,o),
(420,575,c),
(429,730,l),
(453,737,o),
(485,736,o),
(510,736,cs),
(525,736,l),
(532,689,o),
(570,672,o),
(614,672,cs),
(628,672,o),
(707,680,o),
(707,696,cs),
(707,708,o),
(675,730,o),
(675,775,cs),
(675,794,o),
(683,817,o),
(693,833,c),
(690,843,o),
(664,840,o),
(655,840,cs),
(638,840,o),
(574,832,o),
(558,823,c),
(533,808,o),
(520,786,o),
(513,758,c),
(218,744,l),
(214,804,o),
(163,824,o),
(110,824,cs),
(94,824,o),
(47,822,o),
(40,807,c),
(51,777,o),
(66,769,o),
(66,733,cs),
(66,705,o),
(51,669,o),
(36,646,c),
(36,638,o),
(56,638,o),
(61,638,cs),
(116,638,o),
(209,649,o),
(213,720,c),
(296,728,l),
(288,674,o),
(286,614,o),
(286,560,c),
(186,560,o),
(29,509,o),
(29,388,cs),
(29,305,o),
(84,284,o),
(157,284,cs),
(190,284,o),
(224,291,o),
(257,295,c),
(257,280,o),
(254,266,o),
(252,252,cs),
(245,193,o),
(239,132,o),
(239,72,cs),
(239,32,o),
(245,0,o),
(293,0,cs),
(330,0,o),
(360,15,o),
(395,22,cs),
(404,24,o),
(417,22,o),
(426,22,c),
(512.062,24.968,o),
(599,32.101,o),
(599,143,cs)
);
},
{
closed = 1;
nodes = (
(385,56,o),
(381,77,o),
(381,101,cs),
(381,129,o),
(384,158,o),
(385,186,c),
(394,189,o),
(403,192,o),
(412,192,cs),
(457,192,o),
(472,162,o),
(472,121,cs),
(472,88,o),
(450,56,o),
(415,56,cs)
);
},
{
closed = 1;
nodes = (
(417,560,l),
(435,560,ls),
(485,560,o),
(500,521,o),
(500,476,cs),
(500,411,o),
(473,354,o),
(401,354,c)
);
},
{
closed = 1;
nodes = (
(262,327,l),
(252,324,o),
(241,323,o),
(230,323,cs),
(184,323,o),
(169,360,o),
(169,400,cs),
(169,465,o),
(199,524,o),
(271,524,cs),
(275,524,o),
(278,524,o),
(282,523,c)
);
}
);
width = 739;
}
);
unicode = 4692;
},
{
glyphname = uni1255;
layers = (
{
layerId = "5B9FE6CD-9A20-4D75-8A4E-A5261DDE1CE6";
shapes = (
{
closed = 1;
nodes = (
(557,396,o),
(560,461,o),
(569,526,c),
(577,525,o),
(591,529,o),
(600,529,cs),
(647,529,o),
(654,480,o),
(654,443,cs),
(654,394,o),
(631,328,o),
(573,328,cs),
(565,328,o),
(557,329,o),
(549,331,c)
);
},
{
closed = 1;
nodes = (
(412,294,l),
(404,292,o),
(394,289,o),
(385,289,cs),
(338,289,o),
(323,321,o),
(323,364,cs),
(323,430,o),
(349,496,o),
(425,496,cs),
(428,496,o),
(431,495,o),
(435,495,c)
);
},
{
closed = 1;
nodes = (
(788,552,o),
(731,570,o),
(663,570,cs),
(632,570,o),
(602,562,o),
(571,562,c),
(571,565,ls),
(571,584,o),
(578,603,o),
(580,622,cs),
(582,643,o),
(584,663,o),
(584,684,cs),
(584,727,o),
(584,736,o),
(539,736,cs),
(504,736,o),
(469,728,o),
(434,728,cs),
(428,728,o),
(421,728,o),
(416,731,c),
(422,766,o),
(424,806,o),
(420,841,c),
(445,847,o),
(465,848,o),
(491,848,c),
(499,802,o),
(541,792,o),
(581,792,cs),
(595,792,o),
(675,801,o),
(675,816,cs),
(675,819,o),
(644,858,o),
(644,898,cs),
(644,908,o),
(646,926,o),
(652,934,c),
(653,942,o),
(657,950,o),
(660,957,c),
(660,963,o),
(648,962,o),
(644,962,cs),
(637,962,o),
(629,960,o),
(622,960,c),
(551,957,o),
(499,952,o),
(482,871,c),
(197,856,l),
(192,917,o),
(142,936,o),
(88,936,cs),
(74,936,o),
(24,933,o),
(18,920,c),
(32,901,o),
(46,877,o),
(46,853,cs),
(46,820,o),
(33,794,o),
(14,767,c),
(14,760,o),
(35,760,o),
(39,760,cs),
(91,760,o),
(186,767,o),
(196,832,c),
(284,831,l),
(274,791,o),
(275,743,o),
(275,702,cs),
(275,678,o),
(297,680,o),
(315,680,cs),
(359,680,o),
(409,692,o),
(451,704,c),
(451,643,o),
(442,581,o),
(444,520,c),
(348,520,o),
(183,474,o),
(183,355,cs),
(183,276,o),
(243,256,o),
(311,256,cs),
(341,256,o),
(392,262,o),
(420,273,c),
(415,202,o),
(401,131,o),
(401,60,cs),
(401,23,o),
(407,0,o),
(449,0,cs),
(465,0,o),
(558,13,o),
(558,30,cs),
(558,40,o),
(532,53,o),
(535,116,cs),
(545,304,l),
(661,304,o),
(788,332,o),
(788,473,cs)
);
}
);
width = 835;
}
);
unicode = 4693;
},
{
glyphname = uni1256;
layers = (
{
layerId = "5B9FE6CD-9A20-4D75-8A4E-A5261DDE1CE6";
shapes = (
{
closed = 1;
nodes = (
(388,250,o),
(394,273,o),
(397,296,cs),
(403,339,o),
(406,382,o),
(416,424,c),
(496,424,o),
(493,374,o),
(493,309,cs),
(493,263,o),
(448,224,o),
(404,224,cs),
(398,224,o),
(392,225,o),
(386,226,c)
);
},
{
closed = 1;
nodes = (
(362,524,o),
(338,622,o),
(338,640,cs),
(338,672,o),
(348,720,o),
(388,720,cs),
(428,720,o),
(429,675,o),
(429,646,cs),
(429,595,o),
(415,557,o),
(380,520,c)
);
},
{
closed = 1;
nodes = (
(249,216,l),
(242,212,o),
(234,212,o),
(226,212,cs),
(179,212,o),
(155,239,o),
(155,284,cs),
(155,344,o),
(175,385,o),
(232,408,cs),
(247.308,413.74,o),
(260.05,418,o),
(276,418,c)
);
},
{
closed = 1;
nodes = (
(627,452,o),
(563,464,o),
(500,464,cs),
(467,464,o),
(427,448,o),
(404,448,c),
(401,480,l),
(468,514,o),
(528,573,o),
(528,653,cs),
(528,712,o),
(486,736,o),
(434,747,c),
(434,750,l),
(427,759,o),
(429,812,o),
(429,820,c),
(439,819,o),
(453,824,o),
(465,824,cs),
(504,824,l),
(513,779,o),
(555,770,o),
(595,770,cs),
(613,770,o),
(692,779,o),
(692,794,cs),
(692,800,o),
(662,830,o),
(662,873,cs),
(662,899,o),
(671,911,o),
(679,933,c),
(679,941,o),
(646,938,o),
(640,938,cs),
(568,938,o),
(513,931,o),
(496,850,c),
(249,840,l),
(248,900,o),
(195,920,o),
(143,920,cs),
(127,920,o),
(81,918,o),
(73,903,c),
(84,877,o),
(99,860,o),
(99,830,cs),
(99,801,o),
(83,769,o),
(69,744,c),
(69,736,o),
(90,736,o),
(95,736,cs),
(153,736,o),
(235,745,o),
(247,816,c),
(325,815,l),
(319,728,l),
(260,700,o),
(226,650,o),
(226,584,cs),
(226,553,o),
(247,495,o),
(267,472,c),
(267,458,ls),
(267,455,o),
(267,451,o),
(266,448,c),
(173,423,o),
(21,393,o),
(21,270,cs),
(21,192,o),
(84,176,o),
(149,176,cs),
(179,176,o),
(214,177,o),
(244,183,c),
(244,181,l),
(244,137,o),
(232,93,o),
(232,48,cs),
(232,10,o),
(246,0,o),
(284,0,cs),
(308,0,o),
(398,9,o),
(398,25,cs),
(398,41,o),
(378,35,o),
(371,54,cs),
(364,72,o),
(366,99,o),
(366,118,cs),
(366,144,o),
(369,175,o),
(374,200,c),
(483,200,o),
(627,244,o),
(627,375,cs)
);
}
);
width = 733;
}
);
unicode = 4694;
},
{
glyphname = uni1258;
layers = (
{
layerId = "5B9FE6CD-9A20-4D75-8A4E-A5261DDE1CE6";
shapes = (
{
closed = 1;
nodes = (
(689,135,o),
(687,119,o),
(682,103,cs),
(663,47,o),
(638,48,o),
(584,48,cs),
(527,48,ls),
(491,48,o),
(462,24,o),
(425,24,cs),
(388,24,o),
(381,80,o),
(381,106,cs),
(381,133,o),
(389,166,o),
(387,192,c),
(373,190,o),
(360,190,o),
(346,187,c),
(341,159,o),
(343,128,o),
(336,101,c),
(338,85,o),
(335,58,o),
(348,46,c),
(352,42,o),
(366,34,o),
(366,27,cs),
(366,12,o),
(276,0,o),
(262,0,cs),
(233,0,o),
(204,8,o),
(204,41,c),
(203,43,l),
(203,103,o),
(219,220,o),
(231,279,c),
(207,271,o),
(182,268,o),
(157,268,cs),
(76,268,o),
(21,301,o),
(21,389,cs),
(21,543,o),
(140,571,o),
(264,583,c),
(271,606,o),
(273,703,o),
(276,731,c),
(200,728,l),
(194,660,o),
(99,652,o),
(46,652,cs),
(41,652,o),
(21,652,o),
(21,660,c),
(34,680,o),
(50,720,o),
(50,744,cs),
(50,759,o),
(46,774,o),
(41,788,c),
(34,796,o),
(32,807,o),
(24,815,c),
(24,829,o),
(85,832,o),
(95,832,cs),
(147,832,o),
(203,813,o),
(204,752,c),
(490,766,l),
(506,849,o),
(590,848,o),
(658,848,cs),
(662,848,o),
(671,847,o),
(671,841,c),
(661,823,o),
(653,804,o),
(653,783,cs),
(653,739,o),
(684,713,o),
(684,704,cs),
(684,689,o),
(606,680,o),
(588,680,cs),
(543,680,o),
(504,696,o),
(495,744,c),
(487,744,ls),
(459,744,o),
(429,742,o),
(402,736,c),
(392,591,l),
(421,600,o),
(454,608,o),
(484,608,cs),
(575,608,o),
(592,530,o),
(592,454,cs),
(592,327,o),
(455,305,o),
(358,288,c),
(352,200,l),
(424,216,o),
(495,248,o),
(570,248,cs),
(635,248,o),
(689,225,o),
(689,152,cs)
);
},
{
closed = 1;
nodes = (
(262,562,l),
(171,546,o),
(155,478,o),
(155,395,cs),
(155,356,o),
(162,304,o),
(212,304,cs),
(219,304,o),
(228,306,o),
(234,308,c)
);
},
{
closed = 1;
nodes = (
(457,514,o),
(446,558,o),
(387,560,c),
(361,330,l),
(366,331,o),
(371,328,o),
(376,328,cs),
(439,328,o),
(457,415,o),
(457,464,cs)
);
},
{
closed = 1;
nodes = (
(570,188,o),
(567,224,o),
(541,224,cs),
(509,224,o),
(500,155,o),
(500,132,cs),
(500,116,o),
(504,72,o),
(526,72,cs),
(566,72,o),
(570,140,o),
(570,169,cs)
);
}
);
width = 737;
}
);
unicode = 4696;
},
{
glyphname = uni125A;
layers = (
{
layerId = "5B9FE6CD-9A20-4D75-8A4E-A5261DDE1CE6";
shapes = (
{
closed = 1;
nodes = (
(380,336,o),
(401,550,o),
(405,557,c),
(410,559,o),
(415,560,o),
(420,560,cs),
(461,560,o),
(464,506,o),
(464,477,cs),
(464,417,o),
(459,304,o),
(377,304,c)
);
},
{
closed = 1;
nodes = (
(239,309,l),
(232,307,o),
(226,304,o),
(218,304,cs),
(173,304,o),
(169,362,o),
(169,395,cs),
(169,469,o),
(181,546,o),
(269,553,c)
);
},
{
closed = 1;
nodes = (
(1003,250,l),
(981,291,o),
(972,307,o),
(972,355,c),
(969,358,o),
(969,362,o),
(969,366,cs),
(969,371,o),
(969,376,o),
(972,380,c),
(972,384,o),
(972,398,o),
(966,398,cs),
(929,398,o),
(893,386,o),
(855,386,cs),
(823,386,o),
(791,378,o),
(791,419,cs),
(791,445,o),
(814,546,o),
(825,570,c),
(827,574,o),
(829,578,o),
(829,582,cs),
(829,608,o),
(795,609,o),
(776,609,cs),
(745,609,o),
(712,604,o),
(681,600,c),
(677,599,o),
(651,596,o),
(651,590,cs),
(651,579,o),
(675,578,o),
(675,545,cs),
(675,519,o),
(668,493,o),
(660,469,c),
(642,465,o),
(627,465,o),
(609,465,c),
(602,535,o),
(582,600,o),
(500,600,cs),
(468,600,o),
(438,591,o),
(407,585,c),
(419,733,l),
(447,735,o),
(473,736,o),
(501,736,c),
(510,685,o),
(560,672,o),
(605,672,cs),
(618,672,o),
(676,677,o),
(683,684,c),
(688,690,l),
(672,712,o),
(659,739,o),
(659,766,cs),
(659,782,o),
(672,814,o),
(680,828,c),
(680,837,o),
(615,837,o),
(605,837,cs),
(549,837,o),
(513,815,o),
(496,760,c),
(232,761,l),
(232,842,o),
(155,848,o),
(93,848,cs),
(85,848,o),
(55,849,o),
(55,838,c),
(66,813,o),
(77,788,o),
(77,761,cs),
(77,729,o),
(63,701,o),
(46,674,c),
(46,667,o),
(65,667,o),
(69,667,cs),
(126,667,o),
(210,666,o),
(226,736,c),
(282,736,l),
(282,732,ls),
(282,681,o),
(275,630,o),
(275,579,c),
(155,562,o),
(66,558,o),
(33,421,cs),
(30,408,o),
(29,394,o),
(29,380,cs),
(29,293,o),
(93,267,o),
(169,267,cs),
(176,267,o),
(221,271,o),
(224,272,c),
(231,272,l),
(219,198,o),
(204,118,o),
(204,43,cs),
(204,2,o),
(238,0,o),
(271,0,cs),
(292,0,o),
(316,3,o),
(336,7,c),
(343,11,o),
(388,12,o),
(388,21,cs),
(388,26,o),
(367,42,o),
(362,50,c),
(351,69,o),
(352,79,o),
(352,100,cs),
(352,161,o),
(355,220,o),
(367,280,c),
(474,280,o),
(585,319,o),
(609,435,c),
(616,440,o),
(642,438,o),
(651,438,c),
(651,366,o),
(638,349,o),
(714,349,cs),
(740,349,o),
(805,363,o),
(819,361,c),
(831,284,o),
(898,238,o),
(974,238,cs),
(979,238,o),
(987,241,o),
(992,240,c),
(995,242,o),
(998,243,o),
(1001,244,c)
);
}
);
width = 1031;
}
);
unicode = 4698;
},
{
glyphname = uni125B;
layers = (
{
layerId = "5B9FE6CD-9A20-4D75-8A4E-A5261DDE1CE6";
shapes = (
{
closed = 1;
nodes = (
(504,34,o),
(486,30,o),
(482,53,cs),
(474,94,o),
(479,140,o),
(479,181,c),
(477,185,l),
(477,244,o),
(381,246,o),
(337,252,c),
(337,294,o),
(347,335,o),
(347,376,c),
(462,376,o),
(592,423,o),
(592,558,cs),
(592,637,o),
(549,696,o),
(466,696,cs),
(444,696,o),
(422,691,o),
(401,685,c),
(399,704,o),
(405,730,o),
(407,749,cs),
(409,769,o),
(408,788,o),
(408,808,c),
(433,815,o),
(461,816,o),
(487,816,cs),
(491,816,l),
(500,770,o),
(544,759,o),
(585,759,cs),
(601,759,o),
(684,768,o),
(684,782,cs),
(684,785,o),
(679,792,o),
(677,795,c),
(674,799,ls),
(662,815,o),
(653,838,o),
(653,859,cs),
(653,887,o),
(671,910,o),
(671,917,cs),
(671,922,o),
(662,922,o),
(659,922,cs),
(655,922,l),
(653,921,l),
(586.73,921,o),
(506.814,917.069,o),
(491,838,c),
(204,824,l),
(203,885,o),
(149,904,o),
(97,904,cs),
(86,904,o),
(26,901,o),
(26,887,c),
(40,856,o),
(51,856,o),
(51,817,cs),
(51,790,o),
(35,756,o),
(21,733,c),
(21,725,o),
(41,725,o),
(46,725,cs),
(100,725,o),
(192,732,o),
(202,800,c),
(282,804,l),
(278,779,o),
(280,754,o),
(276,729,cs),
(274,716,o),
(271,701,o),
(271,688,c),
(145,681,o),
(21,640,o),
(21,491,cs),
(21,407,o),
(81,376,o),
(157,376,cs),
(178,376,o),
(199,379,o),
(220,384,c),
(214,338,o),
(214,288,o),
(204,243,c),
(183,238,o),
(59,231,o),
(56,229,c),
(51,226,o),
(50,220,o),
(50,215,cs),
(50,170,o),
(53,128,o),
(29,87,c),
(29,80,o),
(53,79,o),
(60,79,cs),
(140,79,o),
(189,149,o),
(202,221,c),
(244,221,o),
(295,225,o),
(337,215,c),
(335,190,o),
(334,48,o),
(347,16,cs),
(354,-1,o),
(380,0,o),
(395,0,cs),
(410,0,o),
(504,8,o),
(504,24,cs)
);
},
{
closed = 1;
nodes = (
(365,440,o),
(370,481,o),
(374,521,cs),
(377,552,o),
(384,626,o),
(394,655,c),
(396,656,o),
(399,656,o),
(401,656,c),
(441,656,o),
(451,594,o),
(451,564,cs),
(451,496,o),
(432,420,o),
(358,401,c)
);
},
{
closed = 1;
nodes = (
(162,575,o),
(187,656,o),
(247,656,cs),
(251,656,o),
(259,653,o),
(262,654,c),
(262,653,o),
(249,572,o),
(248,564,c),
(231,460,l),
(230,451,o),
(226,420,o),
(223,416,c),
(154,416,o),
(162,474,o),
(162,527,cs)
);
}
);
width = 726;
}
);
unicode = 4699;
},
{
glyphname = uni125C;
layers = (
{
layerId = "5B9FE6CD-9A20-4D75-8A4E-A5261DDE1CE6";
shapes = (
{
closed = 1;
nodes = (
(634,239,o),
(590,256,o),
(536,256,cs),
(503,256,o),
(470,250,o),
(437,244,c),
(441,270,o),
(443,298,o),
(449,323,c),
(460,321,o),
(471,320,o),
(482,320,cs),
(559,320,o),
(698,356,o),
(698,453,cs),
(698,541,o),
(668,600,o),
(573,600,cs),
(549,600,o),
(518,600,o),
(495,593,c),
(496,605,o),
(507,699,o),
(507,702,c),
(538,708,o),
(570,712,o),
(602,712,c),
(611,669,o),
(657,658,o),
(695,658,cs),
(709,658,o),
(792,665,o),
(792,682,cs),
(792,691,o),
(761,717,o),
(761,760,cs),
(761,779,o),
(770,800,o),
(779,817,c),
(775,826,o),
(751,824,o),
(742,824,cs),
(728,824,o),
(656,814,o),
(643,806,cs),
(617,790,o),
(603,764,o),
(598,735,c),
(312,720,l),
(305,783,o),
(261,804,o),
(203,804,cs),
(192,804,o),
(133,802,o),
(133,787,c),
(146,759,o),
(159,753,o),
(159,717,cs),
(159,692,o),
(143,653,o),
(130,633,c),
(130,624,o),
(149,624,o),
(155,624,cs),
(208,624,o),
(296,630,o),
(308,696,c),
(383,696,l),
(383,671,o),
(381,625,o),
(372,601,c),
(363,602,o),
(313,593,o),
(302,591,c),
(201,576,o),
(120,530,o),
(120,416,cs),
(120,327,o),
(186,292,o),
(266,292,cs),
(281,292,o),
(296,294,o),
(311,297,c),
(273,78,l),
(213,42,o),
(67,52,o),
(55,45,cs),
(48,41,o),
(50,25,o),
(50,18,cs),
(50,9,o),
(53,0,o),
(53,-9,cs),
(53,-25,o),
(49,-44,o),
(43,-58,c),
(43,-59,l),
(41,-60,l),
(41,-64,l),
(39,-67,o),
(29,-89,o),
(29,-91,c),
(29,-96,o),
(46,-96,o),
(49,-96,cs),
(134,-96,o),
(191,-47,o),
(209,35,c),
(267,45,o),
(326,64,o),
(385,64,cs),
(402,64,o),
(462,40,o),
(505,40,cs),
(592,40,o),
(634,93,o),
(634,177,cs)
);
},
{
closed = 1;
nodes = (
(555,481,l),
(555,430,o),
(529,344,o),
(465,344,cs),
(462,344,o),
(460,344,o),
(457,345,c),
(473,415,o),
(477,489,o),
(495,559,c),
(498,559,o),
(501,560,o),
(504,560,cs),
(550,560,o),
(556,523,o),
(556,485,c),
(556,483,l)
);
},
{
closed = 1;
nodes = (
(423,80,o),
(408,102,o),
(408,123,cs),
(408,157,o),
(420,194,o),
(424,228,c),
(431,228,o),
(439,230,o),
(446,230,cs),
(489,230,o),
(493,196,o),
(493,161,cs),
(493,132,o),
(482,80,o),
(445,80,cs)
);
},
{
closed = 1;
nodes = (
(261,450,o),
(277,568,o),
(345,568,cs),
(351,568,o),
(357,567,o),
(362,565,c),
(350,486,o),
(336,407,o),
(323,328,c),
(273,328,o),
(261,355,o),
(261,401,cs)
);
}
);
width = 830;
}
);
unicode = 4700;
},
{
glyphname = uni125D;
layers = (
{
layerId = "5B9FE6CD-9A20-4D75-8A4E-A5261DDE1CE6";
shapes = (
{
closed = 1;
nodes = (
(993,310,o),
(988,317,o),
(983,324,c),
(983,325,l),
(967,345,o),
(957,371,o),
(957,397,cs),
(957,402,o),
(960,421,o),
(962,424,c),
(962,425,l),
(964,430,o),
(969,444,o),
(969,449,cs),
(969,455,o),
(964,456,o),
(959,456,cs),
(831,456,ls),
(819,456,o),
(816,466,o),
(816,476,cs),
(816,485,o),
(820,494,o),
(821,502,cs),
(825,529,o),
(831,558,o),
(831,585,cs),
(831,619,o),
(811,626,o),
(781,626,cs),
(750,626,o),
(714,619,o),
(683,614,c),
(679,613,o),
(662,611,o),
(662,605,c),
(667,596,o),
(674,593,o),
(680,586,c),
(689,582,o),
(689,558,o),
(689,550,cs),
(689,523,o),
(685,496,o),
(678,470,c),
(664,464,o),
(645,464,o),
(630,464,cs),
(623,464,o),
(616,464,o),
(609,465,c),
(602,535,o),
(582,600,o),
(500,600,cs),
(468,600,o),
(438,591,o),
(407,585,c),
(419,733,l),
(434,734,o),
(449,736,o),
(464,736,cs),
(501,736,l),
(510,685,o),
(560,672,o),
(605,672,cs),
(618,672,o),
(676,677,o),
(683,684,c),
(688,690,l),
(678,704,o),
(659,739,o),
(659,755,cs),
(659,780,o),
(667,807,o),
(680,828,c),
(680,836,o),
(633,837,o),
(623,837,cs),
(559,837,o),
(517,827,o),
(496,760,c),
(232,761,l),
(232,829,o),
(173,848,o),
(115,848,cs),
(108,848,o),
(55,851,o),
(55,838,c),
(66,813,o),
(77,788,o),
(77,761,cs),
(77,729,o),
(63,701,o),
(46,674,c),
(46,667,o),
(65,667,o),
(69,667,cs),
(126,667,o),
(210,666,o),
(226,736,c),
(282,736,l),
(283,722,o),
(279,707,o),
(279,693,c),
(278,655,o),
(275,617,o),
(275,579,c),
(155,562,o),
(66,558,o),
(33,421,cs),
(30,408,o),
(29,394,o),
(29,380,cs),
(29,293,o),
(93,267,o),
(169,267,cs),
(176,267,o),
(221,271,o),
(224,272,c),
(231,272,l),
(219,198,o),
(204,118,o),
(204,43,cs),
(204,3,o),
(238,0,o),
(271,0,cs),
(292,0,o),
(316,3,o),
(336,7,c),
(343,11,o),
(388,12,o),
(388,21,cs),
(388,32,o),
(352,40,o),
(352,84,cs),
(352,150,o),
(354,215,o),
(367,280,c),
(472,280,o),
(582,316,o),
(606,430,c),
(607,434,o),
(645,437,o),
(649,437,c),
(700,441,o),
(752,440,o),
(803,440,c),
(803,341,o),
(875,296,o),
(966,296,cs),
(974,296,o),
(993,296,o),
(998,303,c)
);
},
{
closed = 1;
nodes = (
(380,336,o),
(401,550,o),
(405,557,c),
(410,559,o),
(415,560,o),
(420,560,cs),
(461,560,o),
(464,506,o),
(464,477,cs),
(464,417,o),
(459,304,o),
(377,304,c)
);
},
{
closed = 1;
nodes = (
(239,309,l),
(232,307,o),
(226,304,o),
(218,304,cs),
(173,304,o),
(169,362,o),
(169,395,cs),
(169,469,o),
(181,546,o),
(269,553,c)
);
}
);
width = 1031;
}
);
unicode = 4701;
},
{
glyphname = uni1260;
layers = (
{
layerId = "5B9FE6CD-9A20-4D75-8A4E-A5261DDE1CE6";
shapes = (
{
closed = 1;
nodes = (
(501,41,o),
(477,27,o),
(470,69,cs),
(468,81,o),
(468,92,o),
(468,104,cs),
(468,204,o),
(475,304,o),
(475,404,cs),
(475,532,ls),
(475,595,o),
(466,700,o),
(396,726,cs),
(375,734,o),
(352,736,o),
(329,736,cs),
(217.396,736,o),
(103.479,688.645,o),
(58,580,cs),
(34.697,525.071,o),
(29,370.633,o),
(29,308,cs),
(29,218,ls),
(29,182,o),
(25,39,o),
(53,17,cs),
(62,10,o),
(73,8,o),
(84,8,cs),
(99,8,o),
(198,15,o),
(198,34,cs),
(198,53,o),
(173,38,o),
(168,87,cs),
(166,105,o),
(166,123,o),
(166,141,cs),
(166,385,ls),
(166,450,o),
(157,704,o),
(264,704,cs),
(342,704,o),
(338,575,o),
(338,523,cs),
(338,456,o),
(339,389,o),
(338,322,cs),
(336,241,o),
(331,159,o),
(331,78,cs),
(331,40,o),
(329,0,o),
(378,0,cs),
(403.471,0,o),
(501,8.475,o),
(501,27,cs)
);
}
);
width = 536;
}
);
unicode = 4704;
},
{
glyphname = uni1261;
layers = (
{
layerId = "5B9FE6CD-9A20-4D75-8A4E-A5261DDE1CE6";
shapes = (
{
closed = 1;
nodes = (
(736,386,o),
(712,406,o),
(712,434,cs),
(712,470,o),
(717,483,o),
(734,514,c),
(734,520,o),
(719,520,o),
(715,520,cs),
(661,520,o),
(593,512,o),
(562,461,c),
(545,460,o),
(517,453,o),
(502,453,cs),
(468,453,l),
(468,571,o),
(482,728,o),
(318,728,cs),
(294,728,o),
(272,724,o),
(248,719,cs),
(160,699,o),
(103,664,o),
(64,580,cs),
(40.541,530.15,o),
(29,370.478,o),
(29,312,cs),
(29,212,ls),
(29,173,o),
(24,56,o),
(57,31,cs),
(70,21,o),
(100,24,o),
(116,24,cs),
(123,24,o),
(201,20,o),
(201,37,cs),
(201,45,o),
(187,54,o),
(181,59,cs),
(164,73,o),
(166,125,o),
(166,146,cs),
(166,385,ls),
(166,462,o),
(163,557,o),
(184,631,cs),
(195,669,o),
(216,696,o),
(258,696,cs),
(336,696,o),
(331,547,o),
(331,496,cs),
(331,367,o),
(324,239,o),
(324,110,cs),
(324,48,o),
(316,0,o),
(395,0,cs),
(411,0,o),
(495,6,o),
(495,23,cs),
(495,32,o),
(484,35,o),
(478,37,cs),
(464,42,o),
(459,89,o),
(459,103,c),
(468,418,l),
(497,418,o),
(527,417,o),
(556,421,c),
(571,366,o),
(618,344,o),
(672,344,cs),
(691,344,o),
(739,347,o),
(749,365,c)
);
}
);
width = 797;
}
);
unicode = 4705;
},
{
glyphname = uni1262;
layers = (
{
layerId = "5B9FE6CD-9A20-4D75-8A4E-A5261DDE1CE6";
shapes = (
{
closed = 1;
nodes = (
(736,-16,o),
(716,-14,o),
(716,22,cs),
(716,58,o),
(723,79,o),
(740,111,c),
(740,122,o),
(718,120,o),
(712,120,cs),
(655,120,o),
(586,100,o),
(565,40,c),
(501,40,o),
(475,30,o),
(475,107,cs),
(475,216,o),
(490,324,o),
(490,433,cs),
(490,547,ls),
(490,661.32,o),
(449.329,728,o),
(334,728,cs),
(310,728,o),
(285,725,o),
(262,721,cs),
(97,694,o),
(59,599,o),
(43,447,cs),
(34,359,o),
(29,271,o),
(29,182,cs),
(29,105,o),
(25,16,o),
(128,16,cs),
(140,16,o),
(207,24,o),
(207,37,cs),
(207,46,o),
(180,48,o),
(171,78,cs),
(166,95,o),
(166,127,o),
(166,144,cs),
(166,240,o),
(180,335,o),
(180,431,cs),
(180,493,o),
(183,584,o),
(204,643,cs),
(217,679,o),
(240,704,o),
(280,704,cs),
(348,704,o),
(353,581,o),
(353,535,cs),
(353,437,ls),
(353,422,o),
(351,407,o),
(350,392,cs),
(345,293,o),
(338,194,o),
(338,95,cs),
(338,51,o),
(336,-2,o),
(394,-2,cs),
(404,-2,o),
(416,1,o),
(426,2,c),
(472,8,o),
(520,16,o),
(567,16,c),
(578,-43,o),
(617,-72,o),
(676,-72,cs),
(693,-72,o),
(749,-65,o),
(751,-42,c)
);
}
);
width = 804;
}
);
unicode = 4706;
},
{
glyphname = uni1263;
layers = (
{
layerId = "5B9FE6CD-9A20-4D75-8A4E-A5261DDE1CE6";
shapes = (
{
closed = 1;
nodes = (
(486,46,o),
(461,14,o),
(461,98,cs),
(461,157,o),
(467,216,o),
(472,275,cs),
(479,364,o),
(484,453,o),
(484,542,cs),
(484,650,o),
(456,728,o),
(332,728,cs),
(291.153,728,o),
(171.389,696.855,o),
(144,680,cs),
(46,618,o),
(29,433,o),
(29,329,cs),
(29,304,o),
(29,231,o),
(51,217,cs),
(62,210,o),
(76,209,o),
(88,209,cs),
(107,209,o),
(205,208,o),
(205,225,cs),
(205,231,o),
(178,252,o),
(171,282,cs),
(166,304,o),
(166,326,o),
(166,348,cs),
(166,403,o),
(184,610,o),
(209,655,cs),
(222,679,o),
(240,695,o),
(269,695,cs),
(346,695,o),
(353,603,o),
(353,546,cs),
(353,500,o),
(350,454,o),
(347,409,c),
(346,384,o),
(347,358,o),
(346,333,cs),
(345,313,o),
(341,293,o),
(339,273,cs),
(336,242,o),
(334,210,o),
(331,179,cs),
(327,141,o),
(324,104,o),
(324,66,cs),
(324,-9,o),
(349,-1,o),
(416,-1,cs),
(423,-1,o),
(499,-6,o),
(499,15,c)
);
}
);
width = 545;
}
);
unicode = 4707;
},
{
glyphname = uni1264;
layers = (
{
layerId = "5B9FE6CD-9A20-4D75-8A4E-A5261DDE1CE6";
shapes = (
{
closed = 1;
nodes = (
(698,202,o),
(665,220,o),
(608,220,cs),
(577,220,o),
(547,216,o),
(516,216,cs),
(500,216,o),
(483,216,o),
(468,221,c),
(468,288,o),
(480,355,o),
(486,422,cs),
(489,458,o),
(490,519,o),
(490,556,cs),
(490,654,o),
(456,744,o),
(343,744,cs),
(323,744,o),
(301,740,o),
(282,737,cs),
(104,707,o),
(73,617,o),
(50,452,cs),
(34.946,344.113,o),
(29,224.608,o),
(29,116,cs),
(29,44,o),
(40,22,o),
(113,22,cs),
(126,22,o),
(206,23,o),
(206,44,cs),
(206,55,o),
(184,56,o),
(177,76,cs),
(173,87,o),
(173,104,o),
(173,116,cs),
(173,264,o),
(180,448,o),
(203,592,cs),
(210,634,o),
(228,712,o),
(283,712,cs),
(343,712,o),
(346,616,o),
(346,575,cs),
(346,490,o),
(338,406,o),
(338,321,cs),
(338,271,o),
(328,214,o),
(323,164,cs),
(320,130,o),
(317,96,o),
(317,62,cs),
(317,19,o),
(326,0,o),
(372,0,cs),
(459,0,ls),
(484,0,o),
(510,3,o),
(535,3,c),
(633,5,o),
(698,26,o),
(698,140,cs)
);
},
{
closed = 1;
nodes = (
(472,24,o),
(461,43,o),
(461,71,cs),
(461,110,o),
(467,150,o),
(466,189,c),
(477,191,o),
(487,192,o),
(498,192,cs),
(558,192,o),
(562,147,o),
(562,98,cs),
(562,61,o),
(546,24,o),
(503,24,cs)
);
}
);
width = 738;
}
);
unicode = 4708;
},
{
glyphname = uni1265;
layers = (
{
layerId = "5B9FE6CD-9A20-4D75-8A4E-A5261DDE1CE6";
shapes = (
{
closed = 1;
nodes = (
(709,18,o),
(687,9,o),
(680,41,cs),
(677,55,o),
(677,71,o),
(677,85,cs),
(677,194,o),
(691,304,o),
(691,414,cs),
(691,458,o),
(698,501,o),
(698,544,cs),
(698,598,o),
(685,685,o),
(633,714,cs),
(613,725,o),
(582,728,o),
(560,728,cs),
(405,728,o),
(290,663,o),
(275,497,c),
(51,448,ls),
(46,447,o),
(34,448,o),
(34,439,c),
(45,417,o),
(58,382,o),
(58,357,cs),
(58,329,o),
(39,304,o),
(22,284,c),
(22,276,o),
(43,272,o),
(50,272,cs),
(156,272,o),
(216,360,o),
(216,459,c),
(230,467,o),
(250,470,o),
(266,470,c),
(262,416,o),
(261,363,o),
(259,309,cs),
(257,253,o),
(252,197,o),
(252,141,cs),
(252,97,o),
(240,3,o),
(304,3,cs),
(326,3,o),
(348,8,o),
(370,8,cs),
(382,8,o),
(417,8,o),
(417,27,cs),
(417,37,o),
(397,44,o),
(392,65,cs),
(387,87,o),
(389,116,o),
(389,138,cs),
(389,220,o),
(395,301,o),
(396,383,cs),
(397,444,o),
(383,704,o),
(485,704,cs),
(556,704,o),
(554,576,o),
(554,529,cs),
(554,317,ls),
(554,229,o),
(540,141,o),
(540,52,cs),
(540,4,o),
(544,-16,o),
(597,-16,cs),
(666,-16,ls),
(677,-16,o),
(709,-16,o),
(709,1,cs)
);
}
);
width = 752;
}
);
unicode = 4709;
},
{
glyphname = uni1266;
layers = (
{
layerId = "5B9FE6CD-9A20-4D75-8A4E-A5261DDE1CE6";
shapes = (
{
closed = 1;
nodes = (
(506,209,o),
(482,206,o),
(473,235,cs),
(469,248,o),
(468,264,o),
(468,278,cs),
(468,367,o),
(482,457,o),
(482,546,cs),
(482,632,o),
(440,728,o),
(342,728,cs),
(320,728,o),
(297,724,o),
(275,721,cs),
(31,687,o),
(32,460,o),
(32,264,cs),
(32,219,o),
(29,175,o),
(29,130,cs),
(29,66,o),
(16,0,o),
(99,0,cs),
(166,0,ls),
(177,0,o),
(206,5,o),
(206,20,cs),
(206,35,o),
(176,31,o),
(168,77,cs),
(165,94,o),
(166,113,o),
(166,130,cs),
(166,399,ls),
(166,459,o),
(165,688,o),
(261,688,cs),
(335,688,o),
(346,601,o),
(346,545,cs),
(346,516,o),
(342,485,o),
(340,456,cs),
(336,385,o),
(331,315,o),
(331,244,cs),
(331,190,o),
(338,176,o),
(395,176,cs),
(419,176,o),
(447,184,o),
(474,184,cs),
(482,184,o),
(506,184,o),
(506,196,cs)
);
}
);
width = 543;
}
);
unicode = 4710;
},
{
glyphname = uni1267;
layers = (
{
layerId = "5B9FE6CD-9A20-4D75-8A4E-A5261DDE1CE6";
shapes = (
{
closed = 1;
nodes = (
(664,11,o),
(648,37,o),
(648,67,cs),
(648,85,o),
(653,104,o),
(653,122,cs),
(653,137,o),
(628,136,o),
(618,136,cs),
(563,136,o),
(507,120,o),
(451,120,c),
(451,258,o),
(472,396,o),
(472,535,cs),
(472,645,o),
(468,776,o),
(323,776,cs),
(302,776,o),
(282,772,o),
(262,767,cs),
(115,728,o),
(73,685,o),
(43,535,cs),
(33,485,o),
(29,435,o),
(29,384,cs),
(29,359,o),
(28,277,o),
(53,264,cs),
(72,254,o),
(96,256,o),
(117,256,cs),
(127,256,o),
(202,251,o),
(202,273,cs),
(202,281,o),
(193,287,o),
(188,292,c),
(175,303,o),
(173,330,o),
(172,346,cs),
(169,387,o),
(169,428,o),
(169,469,cs),
(169,527,o),
(188,747,o),
(269,747,cs),
(328,747,o),
(331,637,o),
(331,596,cs),
(331,437,o),
(311,270,o),
(311,112,c),
(241,112,o),
(169,117,o),
(99,120,c),
(90,120,o),
(74,118,o),
(74,106,cs),
(74,90,o),
(81,74,o),
(81,58,cs),
(81,25,o),
(66,-3,o),
(48,-30,c),
(48,-36,o),
(62,-40,o),
(66,-40,cs),
(152,-40,o),
(218,2,o),
(241,88,c),
(325,88,o),
(409,96,o),
(493,96,c),
(493,5,o),
(562,-24,o),
(642,-24,cs),
(651,-24,o),
(664,-25,o),
(664,-13,cs)
);
}
);
width = 702;
}
);
unicode = 4711;
},
{
glyphname = uni1268;
layers = (
{
layerId = "5B9FE6CD-9A20-4D75-8A4E-A5261DDE1CE6";
shapes = (
{
closed = 1;
nodes = (
(676,762,o),
(660,767,o),
(660,809,cs),
(660,834,o),
(678,864,o),
(678,869,cs),
(678,876,o),
(644,874,o),
(639,874,cs),
(569,874,o),
(511,870,o),
(493,790,c),
(203,776,l),
(195,837,o),
(148,856,o),
(92,856,cs),
(75,856,o),
(25,852,o),
(17,838,c),
(31,812,o),
(44,797,o),
(44,766,cs),
(44,735,o),
(30,706,o),
(14,681,c),
(14,672,o),
(34,672,o),
(40,672,cs),
(96,672,o),
(190,681,o),
(199,752,c),
(499,768,l),
(505,719,o),
(554,706,o),
(596,706,cs),
(610,706,o),
(692,713,o),
(692,729,c)
);
},
{
closed = 1;
nodes = (
(546,36,o),
(519,29,o),
(515,54,cs),
(513,67,o),
(511,85,o),
(511,98,cs),
(511,144,o),
(522,198,o),
(526,245,cs),
(530,293,o),
(532,340,o),
(536,388,c),
(538,405,o),
(540,423,o),
(540,440,cs),
(540,589,o),
(451,592,o),
(330,592,cs),
(234,592,o),
(171,554,o),
(121,473,cs),
(80,408,o),
(79,206,o),
(79,124,cs),
(79,82,o),
(73,8,o),
(132,8,cs),
(195,8,ls),
(205,8,o),
(243,9,o),
(243,25,cs),
(243,39,o),
(221,34,o),
(213,61,c),
(207,79,o),
(209,113,o),
(209,132,cs),
(209,195,o),
(214,258,o),
(216,320,cs),
(218,389,o),
(215,568,o),
(319,568,cs),
(388,568,o),
(396,495,o),
(396,443,cs),
(396,381,o),
(392,318,o),
(389,256,cs),
(385,189,o),
(367,123,o),
(367,55,cs),
(367,11,o),
(376,-2,o),
(421,-2,cs),
(447,-2,o),
(474,5,o),
(501,5,cs),
(511,5,o),
(546,5,o),
(546,21,cs)
);
}
);
width = 732;
}
);
unicode = 4712;
},
{
glyphname = uni1269;
layers = (
{
layerId = "5B9FE6CD-9A20-4D75-8A4E-A5261DDE1CE6";
shapes = (
{
closed = 1;
nodes = (
(748,316,o),
(734,335,o),
(734,368,cs),
(734,387,o),
(743,411,o),
(759,422,c),
(750,425,o),
(733,424,o),
(723,424,cs),
(672,424,o),
(619,425,o),
(587,378,c),
(555,373,o),
(523,366,o),
(490,366,c),
(490,405,o),
(496,470,o),
(482,509,cs),
(476,526,o),
(454,550,o),
(442,564,cs),
(414,595,o),
(378,608,o),
(336,608,cs),
(315,608,o),
(293,605,o),
(272,600,cs),
(112,561,o),
(72,498,o),
(50,341,cs),
(44,296,o),
(36,249,o),
(36,204,c),
(33,201,o),
(33,197,o),
(33,194,cs),
(33,187,o),
(35,181,o),
(36,174,cs),
(40,141,o),
(34,54,o),
(63,33,cs),
(80,21,o),
(102,24,o),
(122,24,cs),
(129,24,o),
(208,19,o),
(208,37,cs),
(208,49,o),
(187,58,o),
(184,94,cs),
(181,137,o),
(181,181,o),
(173,223,cs),
(170,240,o),
(166,257,o),
(166,274,cs),
(166,338,o),
(168,446,o),
(194,505,cs),
(210,541,o),
(237,560,o),
(277,560,cs),
(343,560,o),
(346,473,o),
(346,425,cs),
(346,315,o),
(331,204,o),
(331,94,cs),
(331,31,o),
(334,0,o),
(404,0,cs),
(420,0,o),
(511,4,o),
(511,23,cs),
(511,32,o),
(505,34,o),
(498,37,cs),
(479,45,o),
(475,84,o),
(475,103,cs),
(475,123,o),
(479,146,o),
(481,167,cs),
(486,227,o),
(491,286,o),
(491,346,c),
(500,352,o),
(573,350,o),
(580,350,c),
(591,296,o),
(631,272,o),
(684,272,cs),
(695,272,o),
(769,282,o),
(770,294,c)
);
},
{
closed = 1;
nodes = (
(677,774,o),
(658,792,o),
(658,828,cs),
(658,848,o),
(666,867,o),
(675,885,c),
(675,890,o),
(667,890,o),
(664,890,cs),
(655,890,o),
(645,889,o),
(636,888,cs),
(570,882,o),
(508,876,o),
(494,800,c),
(204,775,l),
(198,831,o),
(151,848,o),
(101,848,cs),
(85,848,o),
(29,844,o),
(22,829,c),
(32,801,o),
(45,790,o),
(45,757,cs),
(45,723,o),
(35,703,o),
(22,673,c),
(22,664,o),
(42,664,o),
(48,664,cs),
(101,664,o),
(199,679,o),
(203,747,c),
(301,759,o),
(401,765,o),
(500,773,c),
(509,728,o),
(550,718,o),
(590,718,cs),
(605,718,o),
(693,729,o),
(693,745,c)
);
}
);
width = 808;
}
);
unicode = 4713;
},
{
glyphname = uni126A;
layers = (
{
layerId = "5B9FE6CD-9A20-4D75-8A4E-A5261DDE1CE6";
shapes = (
{
closed = 1;
nodes = (
(682,762,o),
(667,766,o),
(667,809,cs),
(667,834,o),
(685,864,o),
(685,869,cs),
(685,876,o),
(651,874,o),
(646,874,cs),
(577,874,o),
(518,869,o),
(500,790,c),
(210,776,l),
(204,837,o),
(153,856,o),
(99,856,cs),
(82,856,o),
(31,852,o),
(24,838,c),
(40,813,o),
(51,796,o),
(51,766,cs),
(51,735,o),
(36,707,o),
(22,681,c),
(22,672,o),
(41,672,o),
(47,672,cs),
(102,672,o),
(199,681,o),
(205,752,c),
(504,768,l),
(513,719,o),
(558,706,o),
(602,706,cs),
(616,706,o),
(699,712,o),
(699,729,c)
);
},
{
closed = 1;
nodes = (
(793,-16,o),
(776,20,o),
(776,45,cs),
(776,71,o),
(787,96,o),
(798,119,c),
(799,131,o),
(768,128,o),
(760,128,cs),
(707,128,o),
(639,92,o),
(622,40,c),
(578,40,o),
(518,38,o),
(518,96,cs),
(518,142,o),
(524,188,o),
(527,234,cs),
(530,270,o),
(531,308,o),
(537,344,cs),
(543,376,o),
(547,411,o),
(547,444,cs),
(547,487,o),
(539,520,o),
(513,554,cs),
(479,598,o),
(388,592,o),
(337,592,cs),
(243,592,o),
(173,559,o),
(124,478,cs),
(88,419,o),
(86,196,o),
(86,119,cs),
(86,74,o),
(80,2,o),
(140,2,cs),
(149,2,o),
(159,4,o),
(168,4,cs),
(179,4,o),
(250,-2,o),
(250,22,cs),
(250,33,o),
(229,32,o),
(221,58,cs),
(214,81,o),
(216,106,o),
(216,129,cs),
(216,192,o),
(221,255,o),
(223,318,cs),
(225,387,o),
(221,568,o),
(326,568,cs),
(397,568,o),
(403,489,o),
(403,436,cs),
(403,383.372,o),
(401.167,307.673,o),
(396,256,cs),
(390,189,o),
(374,123,o),
(374,55,cs),
(374,5,o),
(396,0,o),
(441,0,cs),
(464,0,o),
(515,6,o),
(536,15,c),
(540,23,o),
(550,24,o),
(558,24,cs),
(580,24,o),
(602,16,o),
(624,16,c),
(638,-39,o),
(678,-64,o),
(733,-64,cs),
(751,-64,o),
(813,-56,o),
(814,-31,c)
);
}
);
width = 853;
}
);
unicode = 4714;
},
{
glyphname = uni126B;
layers = (
{
layerId = "5B9FE6CD-9A20-4D75-8A4E-A5261DDE1CE6";
shapes = (
{
closed = 1;
nodes = (
(691,743,o),
(677,758,o),
(677,797,cs),
(677,823,o),
(686,843,o),
(698,865,c),
(693,876,o),
(679,868,o),
(670,872,c),
(643,872,ls),
(569,872,o),
(526,859,o),
(509,779,c),
(216,776,l),
(216,855,o),
(155,872,o),
(89,872,cs),
(76,872,o),
(43,869,o),
(36,857,c),
(47,832,o),
(58,807,o),
(58,779,cs),
(58,745,o),
(43,718,o),
(29,688,c),
(29,680,o),
(49,680,o),
(54,680,cs),
(106,680,o),
(204,682,o),
(215,749,c),
(315,749,o),
(415,752,o),
(515,752,c),
(521,701,o),
(576,688,o),
(619,688,cs),
(632,688,o),
(707,695,o),
(707,710,c)
);
},
{
closed = 1;
nodes = (
(539,23,o),
(533,25,o),
(527,28,c),
(512,35,o),
(511,79,o),
(511,94,cs),
(511,129,o),
(519,166,o),
(524,201,cs),
(530,245,o),
(535,290,o),
(538,334,cs),
(540,371,o),
(547,406,o),
(547,444,cs),
(547,586,o),
(460,600,o),
(342,600,cs),
(300,600,o),
(253,593,o),
(216,573,cs),
(148,536,o),
(102,456,o),
(96,380,cs),
(95,365,o),
(95,350,o),
(93,335,c),
(91,312,o),
(86,288,o),
(86,265,cs),
(86,227,o),
(120,228,o),
(149,228,cs),
(161,228,o),
(245,225,o),
(245,245,cs),
(245,259,o),
(222,255,o),
(214,276,cs),
(210,286,o),
(210,297,o),
(210,307,cs),
(210,353,o),
(227,433,o),
(237,477,cs),
(246,518,o),
(272,576,o),
(322,576,cs),
(394,576,o),
(410,514,o),
(410,455,cs),
(410,409,o),
(396,310,o),
(389,261,cs),
(379,188,o),
(367,116,o),
(367,42,cs),
(367,4,o),
(394,0,o),
(425,0,cs),
(495,0,ls),
(504,0,o),
(539,2,o),
(539,15,cs)
);
}
);
width = 745;
}
);
unicode = 4715;
},
{
glyphname = uni126C;
layers = (
{
layerId = "5B9FE6CD-9A20-4D75-8A4E-A5261DDE1CE6";
shapes = (
{
closed = 1;
nodes = (
(665,744,o),
(652,770,o),
(652,799,cs),
(652,819,o),
(661,842,o),
(671,860,c),
(672,872,o),
(628,868,o),
(619,868,cs),
(553,868,o),
(506,859,o),
(485,788,c),
(429,789,o),
(373,784,o),
(317,784,cs),
(197,784,l),
(197,853,o),
(130,868,o),
(74,868,cs),
(62,868,o),
(11,864,o),
(11,853,c),
(24,826,o),
(39,816,o),
(39,782,cs),
(39,750,o),
(20,725,o),
(3,699,c),
(3,692,o),
(24,692,o),
(28,692,cs),
(80,692,o),
(179,694,o),
(189,761,c),
(289,761,o),
(389,767,o),
(489,764,c),
(495,713,o),
(552,700,o),
(595,700,cs),
(607,700,o),
(681,706,o),
(681,720,c)
);
},
{
closed = 1;
nodes = (
(641,176,o),
(624,200,o),
(572,200,cs),
(537,200,o),
(503,192,o),
(468,192,c),
(468,273,o),
(477,354,o),
(477,436,cs),
(477,535,o),
(425,592,o),
(324,592,cs),
(302,592,o),
(281,590,o),
(259,585,cs),
(169,566,o),
(106,557,o),
(60,466,cs),
(43.443,432.886,o),
(29,290.801,o),
(29,250,cs),
(29,138,ls),
(29,105,o),
(24,41,o),
(57,23,cs),
(73,14,o),
(108,16,o),
(126,16,cs),
(135,16,o),
(209,14,o),
(209,33,cs),
(209,44,o),
(186,44,o),
(178,59,c),
(174,67,o),
(173,80,o),
(173,89,cs),
(173,304,ls),
(173,376,o),
(162,560,o),
(271,560,cs),
(342,560,o),
(346,474,o),
(346,422,cs),
(346,354,o),
(340,262,o),
(331,193,cs),
(325,147,o),
(317,101,o),
(317,55,cs),
(317,8,o),
(345,0,o),
(386,0,cs),
(539,0,ls),
(626,0,o),
(641,47,o),
(641,125,cs)
);
},
{
closed = 1;
nodes = (
(576,92,o),
(575,85,o),
(575,79,c),
(574,49,o),
(525,24,o),
(498,24,cs),
(480,24,o),
(461,31,o),
(461,52,cs),
(461,72,ls),
(461,99,o),
(465,127,o),
(464,154,c),
(483,158,o),
(504,160,o),
(523,160,cs),
(569,160,o),
(576,140,o),
(576,98,cs)
);
}
);
width = 750;
}
);
unicode = 4716;
},
{
glyphname = uni126D;
layers = (
{
layerId = "5B9FE6CD-9A20-4D75-8A4E-A5261DDE1CE6";
shapes = (
{
closed = 1;
nodes = (
(811,745,o),
(793,745,o),
(793,790,cs),
(793,812,o),
(801,829,o),
(811,848,c),
(804,855,o),
(782,855,o),
(772,855,cs),
(759,855,o),
(684,844,o),
(672,838,cs),
(647,825,o),
(633,799,o),
(627,773,c),
(337,759,l),
(329,821,o),
(279,839,o),
(223,839,cs),
(205,839,o),
(161,837,o),
(150,822,c),
(164,793,o),
(177,784,o),
(177,749,cs),
(177,721,o),
(160,688,o),
(148,663,c),
(148,655,o),
(168,655,o),
(173,655,cs),
(229,655,o),
(324,663,o),
(330,735,c),
(628,751,l),
(637,701,o),
(683,687,o),
(728,687,cs),
(743,687,o),
(824,693,o),
(824,711,c)
);
},
{
closed = 1;
nodes = (
(717,35,o),
(692,24,o),
(687,53,c),
(685,68,o),
(684,82,o),
(684,97,cs),
(684,133,o),
(692,169,o),
(695,205,cs),
(698,248,o),
(706,291,o),
(706,334,cs),
(706,350,o),
(707,368,o),
(709,384,cs),
(711,402,o),
(713,422,o),
(713,440,cs),
(713,589,o),
(624,592,o),
(503,592,cs),
(407,592,o),
(342,551,o),
(293,471,cs),
(278,447,o),
(277,421,o),
(270,394,c),
(50,344,ls),
(45,343,o),
(33,345,o),
(33,336,c),
(44,311,o),
(58,280,o),
(58,252,cs),
(58,227,o),
(38,198,o),
(22,179,c),
(22,171,o),
(43,168,o),
(49,168,cs),
(152,168,o),
(209,264,o),
(209,358,c),
(220,364,o),
(246,367,o),
(259,367,c),
(255,329,o),
(252,290,o),
(252,252,cs),
(252,119,ls),
(252,76,o),
(246,3,o),
(306,3,cs),
(315,3,o),
(325,6,o),
(334,7,c),
(349,8,o),
(415,4,o),
(415,25,cs),
(415,43,o),
(393,30,o),
(386,62,cs),
(381,85,o),
(382,109,o),
(382,132,cs),
(382,217,o),
(397,437,o),
(422,506,cs),
(434,539,o),
(454,568,o),
(492,568,cs),
(561,568,o),
(569,493,o),
(569,441,cs),
(569,409,o),
(566,378,o),
(565,346,cs),
(564,317,o),
(564,285,o),
(562,256,cs),
(556,189,o),
(540,128,o),
(540,57,cs),
(540,14,o),
(546,-2,o),
(592,-2,cs),
(602,-2,o),
(612,1,o),
(621,1,c),
(632,2,o),
(717,-3,o),
(717,19,cs)
);
}
);
width = 828;
}
);
unicode = 4717;
},
{
glyphname = uni126E;
layers = (
{
layerId = "5B9FE6CD-9A20-4D75-8A4E-A5261DDE1CE6";
shapes = (
{
closed = 1;
nodes = (
(682,763,o),
(667,766,o),
(667,809,cs),
(667,834,o),
(685,864,o),
(685,869,cs),
(685,876,o),
(651,874,o),
(646,874,cs),
(577,874,o),
(518,869,o),
(500,790,c),
(210,776,l),
(204,837,o),
(153,856,o),
(99,856,cs),
(82,856,o),
(31,852,o),
(24,838,c),
(40,813,o),
(51,796,o),
(51,766,cs),
(51,735,o),
(36,707,o),
(22,681,c),
(22,672,o),
(41,672,o),
(47,672,cs),
(102,672,o),
(199,681,o),
(205,752,c),
(503,768,l),
(512,719,o),
(558,706,o),
(602,706,cs),
(616,706,o),
(699,712,o),
(699,729,c)
);
},
{
closed = 1;
nodes = (
(560,254,o),
(552,258,o),
(546,260,c),
(533,265,o),
(533,281,o),
(533,293,cs),
(533,306,o),
(536,320,o),
(538,333,cs),
(543,368,o),
(547,405,o),
(547,440,cs),
(547,484,o),
(539,517,o),
(512,552,cs),
(480,595,o),
(386,592,o),
(337,592,cs),
(242,592,o),
(177,552,o),
(128,472,cs),
(88,406,o),
(86,201,o),
(86,117,cs),
(86,92,o),
(86,23,o),
(108,8,cs),
(117,2,o),
(129,0,o),
(140,0,cs),
(148,0,o),
(159,5,o),
(168,6,cs),
(183,8,o),
(250,4,o),
(250,25,cs),
(250,38,o),
(229,36,o),
(221,61,c),
(217,75,o),
(216,90,o),
(216,104,cs),
(216,320,ls),
(216,390,o),
(217,568,o),
(321,568,cs),
(391,568,o),
(410,511,o),
(410,452,cs),
(410,393,o),
(389,336,o),
(389,278,cs),
(389,232,o),
(417,230,o),
(456,230,cs),
(470,230,o),
(560,226,o),
(560,247,cs)
);
}
);
width = 743;
}
);
unicode = 4718;
},
{
glyphname = uni126F;
layers = (
{
layerId = "5B9FE6CD-9A20-4D75-8A4E-A5261DDE1CE6";
shapes = (
{
closed = 1;
nodes = (
(684,665,o),
(604,658,o),
(590,658,cs),
(552,658,o),
(504,669,o),
(495,712,c),
(204,696,l),
(192,624,o),
(105,616,o),
(46,616,cs),
(40,616,o),
(21,616,o),
(21,625,c),
(33,655,o),
(50,676,o),
(50,710,cs),
(50,739,o),
(35,757,o),
(24,782,c),
(31,795,o),
(78,800,o),
(95,800,cs),
(150,800,o),
(196,781,o),
(203,720,c),
(489,735,l),
(509,828,o),
(569,826,o),
(648,826,cs),
(652,826,o),
(670,828,o),
(670,821,c),
(663,800,o),
(653,785,o),
(653,761,cs),
(653,722,o),
(667,713,o),
(684,681,c)
);
},
{
closed = 1;
nodes = (
(681,-42,o),
(669,-40,o),
(658,-40,cs),
(578,-40,o),
(507,-12,o),
(507,80,c),
(257,80,l),
(233,-6,o),
(171,-48,o),
(84,-48,cs),
(80,-48,o),
(65,-44,o),
(65,-38,c),
(84,-9,o),
(99,15,o),
(99,50,cs),
(99,62,o),
(96,72,o),
(95,84,c),
(93,88,o),
(93,96,o),
(91,98,c),
(91,111,o),
(108,112,o),
(117,112,cs),
(183,112,o),
(249,104,o),
(315,104,c),
(326,209,o),
(346,318,o),
(346,424,cs),
(346,475,o),
(344,600,o),
(271,600,cs),
(199,600,o),
(189,484,o),
(181,432,cs),
(177,407,o),
(169,378,o),
(169,352,cs),
(169,334,o),
(168,314,o),
(174,297,cs),
(182,275,o),
(204,281,o),
(204,266,cs),
(204,243,o),
(136,248,o),
(125,248,cs),
(91,248,o),
(50,239,o),
(50,284,c),
(48,289,l),
(50,292,l),
(50,335,o),
(47,383,o),
(55,425,cs),
(60,453,o),
(72,480,o),
(86,505,cs),
(133,586,o),
(192,624,o),
(287,624,cs),
(335,624,o),
(429,626,o),
(457,581,cs),
(485,536,o),
(490,506,o),
(490,453,cs),
(490,438,o),
(487,422,o),
(487,407,c),
(486,358,o),
(484,310,o),
(480,262,cs),
(476,213,o),
(466,156,o),
(466,108,cs),
(466,104,o),
(483,104,o),
(485,104,c),
(535,104,o),
(586,120,o),
(635,120,cs),
(645,120,o),
(671,121,o),
(671,106,cs),
(671,88,o),
(662,70,o),
(662,51,cs),
(662,22,o),
(674,-2,o),
(682,-29,c)
);
}
);
width = 722;
}
);
unicode = 4719;
},
{
glyphname = uni1270;
layers = (
{
layerId = "5B9FE6CD-9A20-4D75-8A4E-A5261DDE1CE6";
shapes = (
{
closed = 1;
nodes = (
(719,386,o),
(698,421,o),
(698,439,cs),
(698,461,o),
(707,486,o),
(712,507,cs),
(715,520,o),
(697,520,o),
(690,520,cs),
(664,520,o),
(634,512,o),
(608,506,cs),
(557,495,o),
(507,496,o),
(455,493,c),
(461,541,o),
(468,589,o),
(468,638,cs),
(468,676,o),
(467,712,o),
(419,712,cs),
(403,712,o),
(286,697,o),
(286,681,cs),
(286,674,o),
(305,666,o),
(310,663,c),
(330,653,o),
(331,623,o),
(331,604,cs),
(331,561,o),
(320,518,o),
(320,475,c),
(235,462,o),
(135,440,o),
(51,440,cs),
(45,440,o),
(26,440,o),
(26,431,cs),
(26,421,o),
(43,393,o),
(43,367,cs),
(43,343,o),
(24,303,o),
(14,281,c),
(14,273,o),
(26,272,o),
(32,272,cs),
(136,272,o),
(194,327,o),
(194,434,c),
(310,449,l),
(301,323,o),
(274,199,o),
(274,71,cs),
(274,40,o),
(277,0,o),
(317,0,cs),
(350,0,o),
(393,9,o),
(428,13,cs),
(439,14,o),
(455,18,o),
(455,32,cs),
(455,49,o),
(433,42,o),
(428,69,cs),
(425,85,o),
(425,101,o),
(425,117,cs),
(425,165,o),
(431,212,o),
(435,260,cs),
(438,303,o),
(444,347,o),
(446,390,cs),
(447,417,o),
(448,447,o),
(452,473,c),
(562,480,l),
(562,413,o),
(582,352,o),
(659,352,cs),
(668,352,o),
(729,359,o),
(729,370,c)
);
}
);
width = 765;
}
);
unicode = 4720;
},
{
glyphname = uni1271;
layers = (
{
layerId = "5B9FE6CD-9A20-4D75-8A4E-A5261DDE1CE6";
shapes = (
{
closed = 1;
nodes = (
(682,138,o),
(669,161,o),
(669,194,cs),
(669,215,o),
(683,239,o),
(683,245,cs),
(683,255,o),
(657,256,o),
(650,256,cs),
(610,256,o),
(523,247,o),
(504,206,c),
(476,207,o),
(447,200,o),
(418,200,c),
(454,454,l),
(562,462,l),
(562,393,o),
(563,328,o),
(651,328,cs),
(663,328,o),
(725,337,o),
(725,350,c),
(704,381,o),
(698,388,o),
(698,426,cs),
(698,450,o),
(707,476,o),
(707,498,cs),
(707,503,o),
(701,504,o),
(697,504,cs),
(668,504,o),
(635,498,o),
(606,495,cs),
(561,490,o),
(513,486,o),
(467,486,cs),
(456,486,l),
(461,534,o),
(468,583,o),
(468,632,cs),
(468,671,o),
(468,712,o),
(418,712,cs),
(402,712,o),
(295,699,o),
(295,684,cs),
(295,676,o),
(309,667,o),
(316,664,cs),
(332,657,o),
(331,639,o),
(331,624,cs),
(331,572,o),
(317,522,o),
(317,470,c),
(63,448,l),
(60,448,o),
(39,448,o),
(39,443,c),
(50,421,o),
(58,413,o),
(58,387,cs),
(58,348,o),
(38,314,o),
(14,285,c),
(14,280,o),
(28,280,o),
(31,280,cs),
(142,280,o),
(201,325,o),
(201,444,c),
(317,446,l),
(298,333,o),
(266,173,o),
(266,63,cs),
(266,20,o),
(281,0,o),
(326,0,cs),
(346,0,o),
(443,8,o),
(443,28,cs),
(443,38,o),
(429,44,o),
(422,48,cs),
(409,55,o),
(410,99,o),
(410,112,cs),
(410,134,o),
(413,155,o),
(413,177,c),
(439,184,o),
(470,184,o),
(497,184,c),
(497,111,o),
(561,88,o),
(623,88,cs),
(636,88,o),
(698,93,o),
(698,110,c)
);
}
);
width = 768;
}
);
unicode = 4721;
},
{
glyphname = uni1272;
layers = (
{
layerId = "5B9FE6CD-9A20-4D75-8A4E-A5261DDE1CE6";
shapes = (
{
closed = 1;
nodes = (
(681,-46,l),
(665,-24,o),
(649,-9,o),
(649,20,cs),
(649,50,o),
(663,77,o),
(675,103,c),
(675,112,o),
(649,112,o),
(644,112,cs),
(595,112,o),
(511,99,o),
(495,43,c),
(483,45,o),
(466,40,o),
(453,40,cs),
(403,40,o),
(403,55,o),
(403,102,cs),
(403,186,o),
(427,303,o),
(440,387,cs),
(444,415,o),
(448,443,o),
(454,470,c),
(554,472,l),
(554,399,o),
(580,340,o),
(661,340,cs),
(670,340,o),
(727,346,o),
(727,355,c),
(708,385,o),
(691,389,o),
(691,430,cs),
(691,453,o),
(703,480,o),
(712,501,c),
(712,513,o),
(687,514,o),
(680,513,c),
(457,496,l),
(465,546,o),
(475,598,o),
(475,649,cs),
(475,715,o),
(445,704,o),
(388,704,cs),
(370,704,o),
(294,709,o),
(294,688,cs),
(294,673,o),
(320,674,o),
(328,654,cs),
(332,644,o),
(331,625,o),
(331,614,cs),
(331,569,o),
(318,525,o),
(318,481,c),
(277,475,o),
(236,474,o),
(195,471,cs),
(166,469,o),
(78,465,o),
(52,459,c),
(46,458,o),
(38,455,o),
(38,447,cs),
(38,438,o),
(50,414,o),
(50,392,cs),
(50,355,o),
(33,324,o),
(14,293,c),
(14,288,o),
(30,288,o),
(33,288,cs),
(140,288,o),
(202,331,o),
(202,447,c),
(238,447,o),
(274,451,o),
(310,453,c),
(306,445,o),
(295,373,o),
(293,359,cs),
(277,264,o),
(252,148,o),
(252,52,cs),
(252,18,o),
(268,-1,o),
(302,-1,cs),
(335,-1,o),
(368,8,o),
(401,10,cs),
(487,16,l),
(495,-46,o),
(538,-72,o),
(597,-72,cs),
(619,-72,o),
(662,-66,o),
(679,-51,c)
);
}
);
width = 770;
}
);
unicode = 4722;
},
{
glyphname = uni1273;
layers = (
{
layerId = "5B9FE6CD-9A20-4D75-8A4E-A5261DDE1CE6";
shapes = (
{
closed = 1;
nodes = (
(842,362,o),
(828,386,o),
(828,411,cs),
(828,441,o),
(838,464,o),
(849,491,c),
(849,497,o),
(840,498,o),
(836,498,cs),
(744,498,o),
(651,496,o),
(559,496,c),
(559,527,o),
(562,557,o),
(562,588,cs),
(562,615,o),
(566,700,o),
(545,718,cs),
(536,726,o),
(524,728,o),
(512,728,cs),
(499,728,o),
(407,720,o),
(407,706,cs),
(407,702,o),
(408,699,o),
(410,696,c),
(432,685,o),
(432,657,o),
(432,636,cs),
(432,582,o),
(426,528,o),
(426,474,c),
(347,466,o),
(264,456,o),
(185,456,cs),
(175,456,o),
(150,456,o),
(150,441,cs),
(150,426,o),
(166,393,o),
(166,368,cs),
(166,341,o),
(142,317,o),
(124,299,c),
(124,290,o),
(159,288,o),
(166,288,cs),
(262,288,o),
(317,353,o),
(317,447,c),
(353,450,o),
(389,450,o),
(425,452,c),
(425,385,o),
(418,310,o),
(405,244,cs),
(385.73,147.648,o),
(249.519,114.553,o),
(167,103,cs),
(137,99,o),
(63,99,o),
(47,95,c),
(42,94,o),
(38,92,o),
(38,86,cs),
(38,69,o),
(50,50,o),
(50,30,cs),
(50,-14,o),
(22,-52,o),
(22,-74,cs),
(22,-90,o),
(46,-88,o),
(56,-88,cs),
(161,-88,o),
(223,-11,o),
(223,91,c),
(286.817,91,o),
(457.526,130.409,o),
(508,177,cs),
(571,236,o),
(562,394,o),
(562,472,c),
(691,472,l),
(691,398,o),
(714,328,o),
(800,328,cs),
(808,328,o),
(853,331,o),
(853,340,c)
);
}
);
width = 891;
}
);
unicode = 4723;
},
{
glyphname = uni1274;
layers = (
{
layerId = "5B9FE6CD-9A20-4D75-8A4E-A5261DDE1CE6";
shapes = (
{
closed = 1;
nodes = (
(719,388,o),
(706,411,o),
(706,436,cs),
(706,467,o),
(718,498,o),
(718,516,cs),
(718,527,o),
(703,528,o),
(695,528,cs),
(668,528,o),
(644,517,o),
(617,514,cs),
(463,497,l),
(465,545,o),
(475,593,o),
(475,641,cs),
(475,677,o),
(478,720,o),
(430,720,cs),
(417,720,o),
(400,715,o),
(387,713,c),
(369,711,o),
(352,711,o),
(334,710,c),
(325,710,o),
(296,707,o),
(296,694,cs),
(296,685,o),
(308,678,o),
(314,674,cs),
(329,664,o),
(333,629,o),
(331,612,cs),
(316,477,l),
(62,448,l),
(55,447,o),
(39,448,o),
(39,437,cs),
(39,429,o),
(58,397,o),
(58,375,cs),
(58,341,o),
(35,303,o),
(14,278,c),
(14,271,o),
(35,272,o),
(40,272,cs),
(149,272,o),
(209,315,o),
(209,432,c),
(310,444,l),
(310,441,ls),
(310,415,o),
(295,326,o),
(290,291,cs),
(280,219,o),
(266,143,o),
(266,70,cs),
(266,25,o),
(287,0,o),
(334,0,cs),
(366,0,o),
(393,13,o),
(424,16,cs),
(470,21,o),
(518,14,o),
(563,30,cs),
(616,49,o),
(641,90,o),
(641,145,cs),
(641,198,o),
(625,235,o),
(567,235,cs),
(521,235,o),
(474,224,o),
(428,224,c),
(443,303,o),
(446,384,o),
(459,464,c),
(562,476,l),
(562,399,o),
(574,344,o),
(665,344,cs),
(677,344,o),
(728,349,o),
(728,365,c)
);
},
{
closed = 1;
nodes = (
(446,192,ls),
(497,192,o),
(497,170,o),
(497,125,cs),
(497,95,o),
(485,48,o),
(447,48,cs),
(411,48,o),
(410,98,o),
(410,123,cs),
(410,137,o),
(412,182,o),
(420,192,c)
);
}
);
width = 772;
}
);
unicode = 4724;
},
{
glyphname = uni1275;
layers = (
{
layerId = "5B9FE6CD-9A20-4D75-8A4E-A5261DDE1CE6";
shapes = (
{
closed = 1;
nodes = (
(724,359,l),
(712,381,o),
(698,409,o),
(698,435,cs),
(698,458,o),
(713,485,o),
(713,501,cs),
(713,509,o),
(701,510,o),
(695,510,c),
(455,496,l),
(463,551,o),
(475,606,o),
(475,661,cs),
(475,696,o),
(471,720,o),
(431,720,cs),
(396,720,o),
(360,712,o),
(324,712,c),
(328,729,o),
(331,746,o),
(331,763,cs),
(331,826,o),
(307,832,o),
(251,832,cs),
(224,832,o),
(197,824,o),
(170,824,cs),
(166,824,o),
(147,824,o),
(147,817,c),
(158,795,o),
(173,773,o),
(173,748,cs),
(173,722,o),
(164,697,o),
(148,677,c),
(148,672,o),
(164,672,o),
(167,672,cs),
(199,672,o),
(275,681,o),
(300,700,c),
(328,698,o),
(338,659,o),
(338,636,cs),
(338,584,o),
(329,532,o),
(324,481,c),
(239,474,o),
(153,456,o),
(67,456,cs),
(58,456,o),
(49,453,o),
(49,443,cs),
(49,423,o),
(58,403,o),
(58,382,cs),
(58,364,o),
(29,298,o),
(22,294,c),
(22,280,o),
(50,280,o),
(59,280,cs),
(157,280,o),
(209,348,o),
(209,443,c),
(247,446,o),
(287,446,o),
(324,453,c),
(311,364,o),
(292,277,o),
(280,188,cs),
(274,145,o),
(266,100,o),
(266,56,cs),
(266,25,o),
(282,0,o),
(315,0,cs),
(337,0,o),
(437,11,o),
(437,26,cs),
(437,37,o),
(417,32,o),
(413,67,cs),
(411,85,o),
(410,103,o),
(410,121,cs),
(410,166,o),
(419,212,o),
(424,256,cs),
(431,327,o),
(440,398,o),
(451,468,c),
(562,472,l),
(562,401,o),
(567,340,o),
(655,340,cs),
(665,340,o),
(716,348,o),
(722,354,c)
);
}
);
width = 761;
}
);
unicode = 4725;
},
{
glyphname = uni1276;
layers = (
{
layerId = "5B9FE6CD-9A20-4D75-8A4E-A5261DDE1CE6";
shapes = (
{
closed = 1;
nodes = (
(685,308,o),
(670,321,o),
(670,355,cs),
(670,386,o),
(685,427,o),
(685,432,cs),
(685,440,o),
(667,440,o),
(662,440,cs),
(620,440,o),
(577,432,o),
(535,428,cs),
(503,425,o),
(471,422,o),
(439,417,c),
(424,425,o),
(425,469,o),
(425,483,c),
(494,514,o),
(562,578,o),
(562,659,cs),
(562,743,o),
(472,752,o),
(408,752,cs),
(321,752,o),
(238,680,o),
(238,590,cs),
(238,551,o),
(269,500,o),
(288,466,c),
(289,460,l),
(288,456,l),
(206,443,o),
(126,432,o),
(43,432,c),
(41,431,o),
(40,429,o),
(40,427,c),
(40,410,o),
(50,392,o),
(50,373,cs),
(50,333,o),
(33,309,o),
(14,275,c),
(14,266,o),
(45,264,o),
(53,264,cs),
(143,264,o),
(197,320,o),
(204,408,c),
(235,416,o),
(267,420,o),
(299,424,c),
(289,362,o),
(279,300,o),
(271,238,cs),
(263,179,o),
(252,122,o),
(252,62,cs),
(252,56,o),
(253,39,o),
(256,35,c),
(263,12,o),
(276,0,o),
(301,0,cs),
(331,0,o),
(439,10,o),
(439,27,cs),
(439,36,o),
(417,43,o),
(410,46,cs),
(395,52,o),
(396,95,o),
(396,108,cs),
(396,158,o),
(410,210,o),
(418,259,cs),
(425,302,o),
(432,346,o),
(439,389,c),
(533,397,l),
(533,324,o),
(540,264,o),
(630,264,cs),
(639,264,o),
(698,269,o),
(698,280,c)
);
},
{
closed = 1;
nodes = (
(383,538,o),
(360,630,o),
(360,649,cs),
(360,675,o),
(368,728,o),
(403,728,cs),
(437,728,o),
(439,682,o),
(439,657,cs),
(439,612,o),
(432,571,o),
(401,536,c)
);
}
);
width = 743;
}
);
unicode = 4726;
},
{
glyphname = uni1277;
layers = (
{
layerId = "5B9FE6CD-9A20-4D75-8A4E-A5261DDE1CE6";
shapes = (
{
closed = 1;
nodes = (
(742,453,o),
(719,467,o),
(719,502,cs),
(719,526,o),
(727,552,o),
(731,576,cs),
(734,593,o),
(709,592,o),
(699,592,cs),
(621,592,o),
(542,586,o),
(464,580,c),
(472,620,o),
(479,665,o),
(479,706,cs),
(479,743,o),
(478,760,o),
(437,760,cs),
(423,760,o),
(309,765,o),
(309,747,cs),
(309,734,o),
(333,729,o),
(336,710,cs),
(339,693,o),
(338,675,o),
(338,658,cs),
(338,624,o),
(328,594,o),
(328,562,c),
(293,555,o),
(258,554,o),
(223,552,cs),
(179,549,o),
(134,544,o),
(90,544,cs),
(82,544,o),
(56,547,o),
(56,534,c),
(64,514,o),
(70,499,o),
(70,477,cs),
(70,442,o),
(60,422,o),
(35,396,c),
(35,392,o),
(47,392,o),
(49,392,c),
(136,392,o),
(226,428,o),
(226,528,c),
(258,528,o),
(291,530,o),
(323,533,c),
(320,494,o),
(317,451,o),
(311,412,cs),
(301,355,o),
(288,294,o),
(284,236,cs),
(281,200,o),
(264,136,o),
(266,104,c),
(200,104,o),
(134,112,o),
(68,112,cs),
(62,112,o),
(43,112,o),
(43,102,cs),
(43,87,o),
(50,72,o),
(50,56,cs),
(50,18,o),
(32,-7,o),
(14,-40,c),
(14,-48,o),
(27,-48,o),
(32,-48,cs),
(115,-48,o),
(212,-19,o),
(212,80,c),
(299,80,o),
(387,81,o),
(474,88,c),
(492,12,o),
(552,-32,o),
(629,-32,cs),
(636,-32,o),
(663,-31,o),
(663,-22,c),
(648,4,o),
(635,20,o),
(635,51,cs),
(635,71,o),
(638,94,o),
(643,114,c),
(641,122,o),
(630,120,o),
(624,120,cs),
(411,120,l),
(426,262,o),
(438,407,o),
(464,548,c),
(556,552,l),
(567,460,o),
(642,424,o),
(726,424,cs),
(731,424,o),
(743,426,o),
(746,432,c)
);
}
);
width = 788;
}
);
unicode = 4727;
},
{
glyphname = uni1278;
layers = (
{
layerId = "5B9FE6CD-9A20-4D75-8A4E-A5261DDE1CE6";
shapes = (
{
closed = 1;
nodes = (
(694,418,o),
(655,448,o),
(655,490,cs),
(655,507,o),
(668,531,o),
(676,546,c),
(674,549,o),
(668,552,o),
(665,552,cs),
(605,552,o),
(472,529,o),
(408,516,c),
(408,562,o),
(416,685,o),
(426,725,c),
(483,737,l),
(499,692,o),
(538,672,o),
(584,672,cs),
(609,672,o),
(672,691,o),
(686,712,c),
(665,741,o),
(648,749,o),
(648,789,cs),
(648,815,o),
(667,842,o),
(667,848,cs),
(667,854,o),
(657,856,o),
(652,856,cs),
(576,856,o),
(475,852,o),
(475,750,c),
(219,713,l),
(209,763,o),
(160,781,o),
(115,781,cs),
(101,781,o),
(32,771,o),
(32,754,c),
(46,732,o),
(64,697,o),
(64,671,cs),
(64,644,o),
(47,621,o),
(33,599,c),
(33,594,o),
(43,594,o),
(46,594,cs),
(64,594,o),
(83,598,o),
(101,600,cs),
(165,608,o),
(197,627,o),
(223,688,c),
(278,698,l),
(266,498,l),
(192,482,o),
(110,474,o),
(35,465,cs),
(27,464,o),
(18,462,o),
(18,452,cs),
(18,435,o),
(36,404,o),
(36,377,cs),
(36,338,o),
(7,299,o),
(7,295,cs),
(7,289,o),
(14,288,o),
(19,288,cs),
(29,288,o),
(41,291,o),
(51,293,c),
(153,317,o),
(167,360,o),
(177,457,c),
(204,463,o),
(235,469,o),
(263,469,c),
(262,339,o),
(238,210,o),
(238,80,cs),
(238,42,o),
(237,0,o),
(287,0,cs),
(307,0,o),
(415,15,o),
(415,34,cs),
(415,50,o),
(389,46,o),
(380,65,c),
(373,78,o),
(374,88,o),
(374,102,cs),
(374,149,o),
(379,195,o),
(382,242,cs),
(387,329,o),
(388,418,o),
(399,504,c),
(518,515,l),
(518,445,o),
(520,384,o),
(608,384,cs),
(621,384,o),
(694,390,o),
(694,405,cs)
);
}
);
width = 736;
}
);
unicode = 4728;
},
{
glyphname = uni1279;
layers = (
{
layerId = "5B9FE6CD-9A20-4D75-8A4E-A5261DDE1CE6";
shapes = (
{
closed = 1;
nodes = (
(652,156,o),
(633,174,o),
(633,206,cs),
(633,227,o),
(641,254,o),
(651,272,c),
(651,280,o),
(632,280,o),
(627,280,cs),
(572,280,o),
(507,268,o),
(477,215,c),
(397,209,l),
(416,483,l),
(526,495,l),
(526,425,o),
(535,368,o),
(620,368,cs),
(634,368,o),
(697,374,o),
(697,390,cs),
(697,404,o),
(662,427,o),
(662,472,cs),
(662,491,o),
(673,515,o),
(683,531,c),
(683,536,o),
(669,536,o),
(666,536,cs),
(625,536,o),
(583,530,o),
(543,527,cs),
(502,524,o),
(460,522,o),
(420,515,c),
(441,720,l),
(497,727,l),
(515,687,o),
(552,672,o),
(594,672,cs),
(612,672,o),
(696,685,o),
(697,708,c),
(678,729,o),
(655,752,o),
(655,783,cs),
(655,802,o),
(665,831,o),
(673,848,c),
(673,856,o),
(661,856,o),
(656,856,cs),
(590,856,o),
(490,836,o),
(490,752,c),
(244,713,l),
(231,765,o),
(190,784,o),
(140,784,cs),
(123,784,o),
(55,779,o),
(55,759,c),
(67,737,o),
(83,708,o),
(83,683,cs),
(83,653,o),
(69,633,o),
(57,607,c),
(57,600,o),
(74,600,o),
(78,600,cs),
(142,600,o),
(225,618,o),
(245,689,c),
(294,691,l),
(285,500,l),
(251,493,o),
(214,491,o),
(179,488,cs),
(136,484,o),
(93,479,o),
(50,473,c),
(44,472,o),
(30,472,o),
(30,463,cs),
(30,451,o),
(50,420,o),
(50,389,cs),
(50,363,o),
(35,330,o),
(22,308,c),
(22,299,o),
(54,299,o),
(59,299,cs),
(156,299,o),
(202,373,o),
(202,463,c),
(281,471,l),
(281,435,o),
(276,399,o),
(273,363,cs),
(265,268,o),
(252,174,o),
(252,79,cs),
(252,42,o),
(254,0,o),
(302,0,cs),
(319,0,o),
(427,15,o),
(427,34,cs),
(427,45,o),
(403,42,o),
(394,61,cs),
(387,76,o),
(389,102,o),
(389,118,cs),
(389,133,o),
(387,171,o),
(391,185,c),
(417,191,o),
(444,192,o),
(470,192,c),
(480,132,o),
(515,104,o),
(575,104,cs),
(590,104,o),
(671,113,o),
(671,133,c)
);
}
);
width = 734;
}
);
unicode = 4729;
},
{
glyphname = uni127A;
layers = (
{
layerId = "5B9FE6CD-9A20-4D75-8A4E-A5261DDE1CE6";
shapes = (
{
closed = 1;
nodes = (
(653,-1,o),
(636,20,o),
(636,58,cs),
(636,81,o),
(651,103,o),
(651,124,cs),
(651,136,o),
(627,136,o),
(619,136,cs),
(563,136,o),
(493,121,o),
(478,58,c),
(460,52,o),
(440,48,o),
(421,48,cs),
(394,48,o),
(389,67,o),
(389,90,c),
(388,92,o),
(387,94,o),
(387,96,c),
(387,98,o),
(388,103,o),
(389,104,c),
(390,232,o),
(410,360,o),
(410,488,c),
(518,499,l),
(518,422,o),
(550,360,o),
(634,360,cs),
(645,360,o),
(701,368,o),
(701,382,cs),
(701,390,o),
(670,423,o),
(670,467,cs),
(670,492,o),
(684,518,o),
(684,530,cs),
(684,538,o),
(670,539,o),
(665,538,c),
(420,513,l),
(420,583,o),
(433,652,o),
(438,721,c),
(497,730,l),
(513,686,o),
(556,672,o),
(599,672,cs),
(613,672,o),
(698,682,o),
(698,701,c),
(681,725,o),
(662,744,o),
(662,775,cs),
(662,800,o),
(675,824,o),
(684,847,c),
(684,858,o),
(658,856,o),
(652,856,cs),
(585,856,o),
(482,836,o),
(482,751,c),
(244,723,l),
(235,780,o),
(181,792,o),
(132,792,cs),
(116,792,o),
(43,790,o),
(43,775,c),
(60,747,o),
(79,728,o),
(79,693,cs),
(79,665,o),
(68,639,o),
(52,616,c),
(52,606,o),
(81,608,o),
(87,608,cs),
(150,608,o),
(222,630,o),
(248,693,c),
(296,700,l),
(274,498,l),
(206,485,o),
(133,482,o),
(65,476,c),
(57,475,o),
(30,477,o),
(30,465,cs),
(30,455,o),
(37,440,o),
(40,430,c),
(43,418,o),
(43,402,o),
(43,390,cs),
(43,349,o),
(36,341,o),
(14,308,c),
(14,298,o),
(41,298,o),
(47,298,cs),
(148,298,o),
(194,366,o),
(194,463,c),
(219,469,o),
(248,471,o),
(274,471,c),
(274,436,o),
(270,401,o),
(268,366,cs),
(262,268,o),
(252,170,o),
(252,72,cs),
(252,34,o),
(253,-2,o),
(302,-2,cs),
(339,-2,o),
(382,6,o),
(418,13,cs),
(437,17,o),
(459,24,o),
(479,24,cs),
(482,24,l),
(482,-37,o),
(533,-56,o),
(586,-56,cs),
(600,-56,o),
(676,-48,o),
(677,-28,c)
);
}
);
width = 750;
}
);
unicode = 4730;
},
{
glyphname = uni127B;
layers = (
{
layerId = "5B9FE6CD-9A20-4D75-8A4E-A5261DDE1CE6";
shapes = (
{
closed = 1;
nodes = (
(713,344,o),
(684,368,o),
(684,410,cs),
(684,434,o),
(698,455,o),
(698,477,cs),
(698,484,o),
(694,488,o),
(687,488,cs),
(624,488,o),
(529,481,o),
(467,471,c),
(467,518,o),
(473,631,o),
(482,673,c),
(547,682,l),
(560,646,o),
(591,632,o),
(628,632,cs),
(642,632,o),
(729,646,o),
(730,661,c),
(711,689,o),
(698,699,o),
(698,734,cs),
(698,758,o),
(713,783,o),
(713,800,cs),
(713,808,o),
(694,808,o),
(689,808,cs),
(623,808,o),
(540,793,o),
(540,710,c),
(292,676,l),
(279,728,o),
(221,744,o),
(173,744,cs),
(159,744,o),
(99,738,o),
(98,719,c),
(110,695,o),
(120,679,o),
(120,651,cs),
(120,623,o),
(104,597,o),
(95,572,c),
(95,558,o),
(117,560,o),
(126,560,cs),
(198,560,o),
(265,573,o),
(289,651,c),
(347,656,l),
(324,456,l),
(266,442,o),
(138,432,o),
(77,432,cs),
(70,432,o),
(62,430,o),
(62,422,cs),
(62,402,o),
(76,380,o),
(76,357,cs),
(76,323,o),
(53,294,o),
(53,278,cs),
(53,266,o),
(67,264,o),
(76,264,cs),
(82,264,o),
(89,265,o),
(95,266,cs),
(192,280,o),
(218,318,o),
(228,413,c),
(324,425,l),
(316,368,o),
(313,229,o),
(296,188,cs),
(263,108,o),
(139,52,o),
(59,33,cs),
(46,30,o),
(36,20,o),
(36,6,c),
(35,-62,o),
(38,-43,o),
(14,-98,c),
(14,-106,o),
(44,-104,o),
(50,-104,cs),
(162,-104,o),
(180,-41,o),
(180,61,c),
(258,83,o),
(406,110,o),
(428,202,cs),
(446.699,278.664,o),
(461,360.833,o),
(461,440,c),
(547,445,l),
(547,374,o),
(569,312,o),
(651,312,cs),
(661,312,o),
(700,316,o),
(707,321,c),
(711,322,o),
(713,327,o),
(713,331,cs)
);
}
);
width = 768;
}
);
unicode = 4731;
},
{
glyphname = uni127C;
layers = (
{
layerId = "5B9FE6CD-9A20-4D75-8A4E-A5261DDE1CE6";
shapes = (
{
closed = 1;
nodes = (
(686,386,o),
(655,411,o),
(655,455,cs),
(655,471,o),
(664,509,o),
(670,521,c),
(670,526,o),
(665,528,o),
(661,528,cs),
(581,528,o),
(499,512,o),
(419,512,c),
(419,579,o),
(431,650,o),
(440,717,c),
(492,726,l),
(505,679,o),
(542,664,o),
(587,664,cs),
(607,664,o),
(689,673,o),
(689,700,c),
(670,727,o),
(655,738,o),
(655,774,cs),
(655,797,o),
(670,826,o),
(670,840,cs),
(670,851,o),
(644,848,o),
(637,848,cs),
(573,848,o),
(482,825,o),
(482,746,c),
(237,715,l),
(227,766,o),
(180,781,o),
(134,781,cs),
(115,781,o),
(51,775,o),
(44,754,c),
(58,726,o),
(73,720,o),
(73,684,cs),
(73,651,o),
(61,629,o),
(49,600,c),
(49,592,o),
(67,592,o),
(72,592,cs),
(136,592,o),
(222,610,o),
(240,682,c),
(293,688,l),
(272,490,l),
(201,475,o),
(115,464,o),
(43,464,cs),
(38,464,o),
(30,463,o),
(30,456,cs),
(30,438,o),
(43,420,o),
(43,397,cs),
(43,359,o),
(29,336,o),
(14,303,c),
(14,295,o),
(33,296,o),
(39,296,cs),
(42,296,o),
(44,297,o),
(47,297,c),
(144,311,o),
(194,337,o),
(194,448,c),
(219,454,o),
(249,458,o),
(274,458,c),
(274,424,o),
(269,388,o),
(265,354,cs),
(256,268,o),
(238,154,o),
(238,68,cs),
(238,32,o),
(238,0,o),
(284,0,cs),
(323,0,o),
(362,10,o),
(401,16,cs),
(441,22,o),
(485,12,o),
(525,27,cs),
(571,44,o),
(590,91,o),
(590,137,cs),
(590,176,o),
(575,234,o),
(526,234,cs),
(485,234,o),
(444,216,o),
(401,216,cs),
(398,216,o),
(395,216,o),
(392,217,c),
(392,259,o),
(398,302,o),
(401,344,cs),
(404,392,o),
(407,440,o),
(413,488,c),
(511,488,l),
(511,419,o),
(532,352,o),
(613,352,cs),
(628,352,o),
(686,361,o),
(686,376,cs)
);
},
{
closed = 1;
nodes = (
(419,192,ls),
(465,192,o),
(461,158,o),
(461,122,cs),
(461,97,o),
(453,40,o),
(418,40,cs),
(382,40,o),
(382,88,o),
(382,113,cs),
(382,130,o),
(383,181,o),
(392,192,c)
);
}
);
width = 729;
}
);
unicode = 4732;
},
{
glyphname = uni127D;
layers = (
{
layerId = "5B9FE6CD-9A20-4D75-8A4E-A5261DDE1CE6";
shapes = (
{
closed = 1;
nodes = (
(726,381,o),
(713,404,o),
(713,436,cs),
(713,458,o),
(722,479,o),
(733,497,c),
(733,505,o),
(711,504,o),
(706,504,cs),
(632,504,o),
(558,496,o),
(484,496,c),
(493,543,o),
(504,594,o),
(504,642,cs),
(504,667,o),
(505,672,o),
(478,672,cs),
(449,672,o),
(420,665,o),
(391,665,cs),
(386,665,o),
(377,665,o),
(374,670,c),
(374,711,o),
(383,746,o),
(390,786,c),
(445,792,l),
(457,756,o),
(507,752,o),
(539,752,cs),
(562,752,o),
(611,757,o),
(626,774,c),
(612,794,o),
(608,819,o),
(608,843,cs),
(608,862,o),
(616,889,o),
(625,905,c),
(625,912,o),
(610,912,o),
(606,912,cs),
(534,912,o),
(473,896,o),
(437,827,c),
(180,807,l),
(180,871.216,o),
(175.373,912,o),
(99,912,cs),
(86,912,o),
(23,904,o),
(23,890,cs),
(23,869,o),
(29,848,o),
(29,826,cs),
(29,805,o),
(22,785,o),
(22,765,cs),
(22,753,o),
(35,751,o),
(44,751,cs),
(86,751,o),
(201,774,o),
(251,782,c),
(245,743,o),
(238,704,o),
(238,665,cs),
(238,655,o),
(235,643,o),
(249,643,cs),
(273,643,o),
(299,653,o),
(324,653,cs),
(338,653,o),
(354,652,o),
(367,648,c),
(342,496,l),
(271,481,o),
(182,472,o),
(110,472,cs),
(102,472,o),
(93,470,o),
(93,460,cs),
(93,440,o),
(102,420,o),
(102,400,cs),
(102,379,o),
(95,342,o),
(80,327,c),
(79,324,o),
(78,320,o),
(78,317,cs),
(78,306,o),
(92,304,o),
(100,304,cs),
(110,304,o),
(121,305,o),
(131,307,c),
(223,322,o),
(249,370,o),
(258,457,c),
(284,457,o),
(310,461,o),
(336,461,c),
(336,426,o),
(331,388,o),
(326,354,cs),
(313,261,o),
(295,162,o),
(295,68,cs),
(295,30,o),
(305,0,o),
(349,0,cs),
(366,0,o),
(463,6,o),
(463,27,cs),
(463,42,o),
(445,27,o),
(437,63,cs),
(434,78,o),
(432,93,o),
(432,109,cs),
(432,150,o),
(439,189,o),
(445,230,cs),
(457,311,o),
(468,391,o),
(480,472,c),
(576,472,l),
(576,402,o),
(600,336,o),
(680,336,cs),
(690,336,o),
(742,342,o),
(742,354,c)
);
}
);
width = 781;
}
);
unicode = 4733;
},
{
glyphname = uni127E;
layers = (
{
layerId = "5B9FE6CD-9A20-4D75-8A4E-A5261DDE1CE6";
shapes = (
{
closed = 1;
nodes = (
(647,330,o),
(634,342,o),
(634,374,cs),
(634,403.34,o),
(638.505,425.892,o),
(646,454,c),
(646,463,o),
(633,464,o),
(626,464,cs),
(567,464,o),
(478,455,o),
(418,448,c),
(406,455,o),
(404,489,o),
(403,502,c),
(478,529,o),
(547,603,o),
(547,686,cs),
(547,710,o),
(543,735,o),
(533,757,c),
(533,776,l),
(610,776,o),
(706,804,o),
(706,897,cs),
(706,935,o),
(696,936,o),
(660,936,cs),
(628,936,o),
(593,932,o),
(562,922,c),
(564,911,o),
(563,900,o),
(562,889,c),
(559,837,o),
(558,819,o),
(517,782,c),
(431,777,o),
(343,776,o),
(259,758,c),
(265,773,o),
(274,792,o),
(274,808,cs),
(274,859,o),
(239,880,o),
(193,880,cs),
(161,880,o),
(137,876,o),
(109,862,c),
(120,841,o),
(122,827,o),
(122,804,cs),
(122,778,o),
(112,757,o),
(102,734,c),
(102,722,o),
(145,720,o),
(153,720,cs),
(183,720,o),
(212,731,o),
(238,744,c),
(241,738,o),
(240,727,o),
(245,723,c),
(218,685,o),
(212,659,o),
(212,613,cs),
(212,566,o),
(238,525,o),
(266,489,c),
(266,488,l),
(266,484,o),
(267,477,o),
(265,473,c),
(203,459,o),
(141,448,o),
(77,448,cs),
(70,448,o),
(59,447,o),
(59,438,cs),
(59,426,o),
(72,404,o),
(72,384,cs),
(72,352,o),
(47,311,o),
(29,287,c),
(29,280,o),
(40,280,o),
(44,280,cs),
(140,280,o),
(202,332,o),
(202,431,c),
(274,442,l),
(265,377,o),
(256,313,o),
(248,248,cs),
(241,188,o),
(230,128,o),
(230,67,cs),
(230,27,o),
(243,0,o),
(287,0,cs),
(314,0,o),
(418,12,o),
(418,31,cs),
(418,39,o),
(408,45,o),
(402,48,c),
(378,63,o),
(374,95,o),
(374,121,cs),
(374,137,o),
(380,155,o),
(382,171,cs),
(391,239,o),
(401,307,o),
(412,375,cs),
(414,388,o),
(418,403,o),
(418,417,c),
(497,420,l),
(497,340,o),
(513,288,o),
(604,288,cs),
(613,288,o),
(661,292,o),
(661,304,c)
);
},
{
closed = 1;
nodes = (
(360,546,o),
(331,648,o),
(331,665,cs),
(331,689,o),
(343,747,o),
(375,747,cs),
(414,747,o),
(425,704,o),
(425,672,cs),
(425,615,o),
(417,583,o),
(374,544,c)
);
}
);
width = 756;
}
);
unicode = 4734;
},
{
glyphname = uni127F;
layers = (
{
layerId = "5B9FE6CD-9A20-4D75-8A4E-A5261DDE1CE6";
shapes = (
{
closed = 1;
nodes = (
(675,-11,o),
(674,-8,o),
(673,-5,c),
(673,-4,l),
(665,21,o),
(659,32,o),
(659,58,cs),
(659,76,o),
(668,94,o),
(668,111,cs),
(668,125,o),
(612,120,o),
(603,120,cs),
(439,120,l),
(450,182,o),
(455,245,o),
(464,308,cs),
(473,368,o),
(483,428,o),
(491,488,c),
(556,488,l),
(571,420,o),
(616,369,o),
(689,369,cs),
(700,369,o),
(710,370,o),
(721,372,c),
(728,377,l),
(727,383,o),
(723,392,o),
(719,397,c),
(714,411,o),
(711,426,o),
(711,441,cs),
(711,465,o),
(727,499,o),
(727,505,cs),
(727,512,o),
(702,512,o),
(698,512,cs),
(500,512,l),
(527,696,l),
(589,696,l),
(594,662,o),
(608,628,o),
(635,606,cs),
(656,589,o),
(702,568,o),
(729,568,cs),
(739,568,o),
(768,566,o),
(768,581,c),
(768,583,o),
(765,589,o),
(764,590,c),
(764,591,l),
(756,611,o),
(751,630,o),
(751,652,cs),
(751,679,o),
(764,698,o),
(764,711,cs),
(764,720,o),
(744,720,o),
(738,720,cs),
(464,720,ls),
(369,720,o),
(274,704,o),
(179,704,cs),
(169,704,o),
(155,704,o),
(155,691,cs),
(155,687,o),
(155,682,o),
(157,678,c),
(157,673,o),
(158,669,o),
(158,664,cs),
(158,613,o),
(121,576,o),
(121,565,cs),
(121,552,o),
(149,552,o),
(157,552,cs),
(224,552,o),
(305,619,o),
(307,688,c),
(386,696,l),
(376,633,o),
(370,570,o),
(358,508,c),
(290,490,o),
(188,505,o),
(123,494,c),
(121,493,o),
(120,490,o),
(120,488,c),
(120,471,o),
(122,451,o),
(119,434,cs),
(117,424,o),
(113,412,o),
(113,402,c),
(109,395,o),
(87,362,o),
(87,357,cs),
(87,344,o),
(119,344,o),
(127,344,cs),
(201,344,o),
(275,396,o),
(275,475,c),
(300,475,o),
(325,480,o),
(349,480,cs),
(352,480,l),
(349,448,o),
(340,417,o),
(335,385,cs),
(323,316,o),
(309,247,o),
(295,178,cs),
(291,158,o),
(286,137,o),
(284,117,c),
(271.63,112.877,o),
(82.521,104,o),
(59,104,cs),
(51,104,o),
(48,99,o),
(48,92,cs),
(48,69,o),
(48,52,o),
(43,29,c),
(39,14,o),
(14,-36,o),
(14,-36,c),
(14,-48,o),
(29,-48,o),
(38,-48,cs),
(114,-48,o),
(202,5,o),
(214,86,c),
(500,96,l),
(513,19,o),
(566,-24,o),
(643,-24,cs),
(651,-24,o),
(675,-27,o),
(675,-14,cs)
);
}
);
width = 807;
}
);
unicode = 4735;
},
{
glyphname = uni1280;
layers = (
{
layerId = "5B9FE6CD-9A20-4D75-8A4E-A5261DDE1CE6";
shapes = (
{
closed = 1;
nodes = (
(570,30,o),
(560,36,o),
(555,40,cs),
(549,45,o),
(549,64,o),
(549,71,cs),
(549,114,o),
(558,160,o),
(566,202,cs),
(573,239,o),
(582,276,o),
(588,313,c),
(592,334,o),
(594,357,o),
(600,377,cs),
(610,412,o),
(619,456,o),
(619,493,cs),
(619,509,o),
(593,512,o),
(582,512,cs),
(554,512,o),
(527,503,o),
(499,503,cs),
(491,503,o),
(472,505,o),
(472,516,cs),
(472,566,o),
(500,615,o),
(500,667,cs),
(500,709,o),
(486,720,o),
(446,720,cs),
(431,720,o),
(327,721,o),
(327,706,cs),
(327,693,o),
(353,692,o),
(356,675,c),
(358,667,o),
(358,658,o),
(358,650,cs),
(358,635,o),
(353,590,o),
(347,576,c),
(85,576,ls),
(59,576,o),
(69,496,o),
(60,483,c),
(54,459,o),
(36,436,o),
(21,417,c),
(21,406,o),
(72,408,o),
(79,408,cs),
(157,408,o),
(232,471,o),
(232,552,c),
(346,557,l),
(336,547,o),
(331,525,o),
(331,511,c),
(330,509,l),
(330,491,o),
(349,488,o),
(363,488,cs),
(390,488,o),
(417,497,o),
(444,497,cs),
(453,497,o),
(464,495,o),
(464,484,cs),
(464,446,o),
(454,402,o),
(446,365,cs),
(433,304,o),
(421,244,o),
(411,182,cs),
(404,140,o),
(394,97,o),
(394,54,cs),
(394,12,o),
(415,0,o),
(455,0,cs),
(468.201,0,o),
(570,6.256,o),
(570,23,cs)
);
}
);
width = 655;
}
);
unicode = 4736;
},
{
glyphname = uni1281;
layers = (
{
layerId = "5B9FE6CD-9A20-4D75-8A4E-A5261DDE1CE6";
shapes = (
{
closed = 1;
nodes = (
(769,209,o),
(746,224,o),
(746,270,cs),
(746,289,o),
(753,307,o),
(753,326,cs),
(753,333,o),
(752,338,o),
(743,338,cs),
(699,338,o),
(637,296,o),
(590,296,c),
(588,296,o),
(584,298,o),
(582,298,c),
(591,354,o),
(613,429,o),
(613,484,c),
(607,499,o),
(593,502,o),
(578,502,cs),
(552,502,o),
(526,494,o),
(500,494,cs),
(491,494,o),
(478,495,o),
(473,504,c),
(472,509,o),
(472,513,o),
(472,518,cs),
(472,566,o),
(486,614,o),
(486,662,cs),
(486,707,o),
(476,722,o),
(430,722,cs),
(410,722,o),
(323,723,o),
(323,710,cs),
(323,702,o),
(346,693,o),
(346,652,cs),
(346,630,o),
(341,603,o),
(336,581,c),
(312,581,o),
(287,577,o),
(263,576,cs),
(204,573,o),
(144,568,o),
(85,568,cs),
(64,568,o),
(66,534,o),
(66,519,c),
(64,471,o),
(53,446,o),
(21,409,c),
(21,402,o),
(75,400,o),
(81,400,cs),
(177,400,o),
(221,460,o),
(229,552,c),
(341,558,l),
(331,513,ls),
(326,489,o),
(345,486,o),
(363,486,cs),
(372,486,o),
(413,489,o),
(421,492,c),
(428,491,o),
(437,494,o),
(444,494,cs),
(454,494,o),
(472,494,o),
(472,480,cs),
(472,432,o),
(416,208,o),
(418,198,c),
(409,180,o),
(394,78,o),
(394,53,cs),
(394,11,o),
(414,0,o),
(454,0,cs),
(476,0,o),
(566,10,o),
(566,22,cs),
(566,39,o),
(543,26,o),
(543,70,cs),
(543,134,o),
(561,197,o),
(571,260,c),
(580,269,o),
(592,273,o),
(605,273,cs),
(608,273,o),
(610,272,o),
(613,272,c),
(613,213,o),
(635,160,o),
(702,160,cs),
(715,160,o),
(731,163,o),
(743,167,c),
(744,168,l),
(753,171,o),
(770,174,o),
(772,184,c)
);
}
);
width = 814;
}
);
unicode = 4737;
},
{
glyphname = uni1282;
layers = (
{
layerId = "5B9FE6CD-9A20-4D75-8A4E-A5261DDE1CE6";
shapes = (
{
closed = 1;
nodes = (
(788,-41,o),
(754,-1,o),
(754,40,cs),
(754,64,o),
(764,85,o),
(772,108,c),
(777,121,o),
(740,120,o),
(734,120,cs),
(693,120,o),
(644,79,o),
(634,40,c),
(611,40,o),
(580,55,o),
(566,73,cs),
(563,77,o),
(563,91,o),
(563,96,cs),
(563,165,o),
(579,235,o),
(589,303,cs),
(593,330,o),
(596,358,o),
(600,385,cs),
(605,420,o),
(613,458,o),
(613,494,c),
(605,514,o),
(598,523,o),
(575,523,cs),
(546,523,o),
(510,507,o),
(486,507,cs),
(472,507,o),
(472,523,o),
(472,533,cs),
(472,580,o),
(486,626,o),
(486,674,cs),
(486,720,o),
(482,728,o),
(434,728,cs),
(401,728,o),
(368,720,o),
(335,718,c),
(328,718,o),
(313,717,o),
(313,707,cs),
(313,690,o),
(346,694,o),
(346,643,cs),
(346,622,o),
(341,593,o),
(337,572,c),
(314,573,o),
(291,568,o),
(268,569,c),
(266,568,l),
(200,568,o),
(134,560,o),
(68,560,cs),
(63,560,o),
(58,558,o),
(58,552,cs),
(58,536,o),
(64,521,o),
(64,506,cs),
(64,497,o),
(61,487,o),
(61,478,c),
(60,476,l),
(58,453,o),
(34,416,o),
(21,396,c),
(21,383,o),
(69,384,o),
(77,384,cs),
(173,384,o),
(226,454,o),
(226,545,c),
(331,554,l),
(331,522,o),
(319,488,o),
(362,488,cs),
(387,488,o),
(412,496,o),
(437,496,cs),
(446,496,o),
(457,494,o),
(457,483,cs),
(457,446,o),
(451,406,o),
(446,370,cs),
(431,272,o),
(408,165,o),
(408,66,cs),
(408,57,o),
(408,48,o),
(410,39,cs),
(417,7,o),
(509,0,o),
(535,0,cs),
(568,0,o),
(601,5,o),
(633,16,c),
(638,-41,o),
(681,-80,o),
(738,-80,cs),
(750,-80,o),
(788,-74,o),
(788,-58,cs)
);
}
);
width = 833;
}
);
unicode = 4738;
},
{
glyphname = uni1283;
layers = (
{
layerId = "5B9FE6CD-9A20-4D75-8A4E-A5261DDE1CE6";
shapes = (
{
closed = 1;
nodes = (
(619,376,o),
(616,467,o),
(595,473,cs),
(588,475,o),
(580,475,o),
(573,475,cs),
(542,475,o),
(512,461,o),
(481,461,cs),
(457,461,o),
(457,474,o),
(457,494,cs),
(457,532,o),
(464,571,o),
(464,609,cs),
(464,639,o),
(465,680,o),
(425,680,cs),
(407,680,o),
(292,671,o),
(292,652,cs),
(292,642,o),
(315,631,o),
(320,610,cs),
(324,594,o),
(323,575,o),
(323,558,cs),
(323,547,o),
(323,538,o),
(320,527,c),
(260,516,o),
(136,496,o),
(81,496,cs),
(74,496,o),
(73,487,o),
(73,482,cs),
(73,466,o),
(77,451,o),
(77,435,cs),
(77,424,o),
(77,420,o),
(74,409,c),
(74,408,l),
(64,391,o),
(58,373,o),
(46,356,c),
(43,352,o),
(30,335,o),
(30,330,cs),
(30,320,o),
(60,320,o),
(66,320,cs),
(135,320,o),
(226,390,o),
(226,462,cs),
(226,482,l),
(317,496,l),
(317,478,o),
(308,422,o),
(338,422,cs),
(373,422,o),
(413,439,o),
(449,439,cs),
(467,439,o),
(464,422,o),
(464,408,cs),
(464,180,o),
(455,140,o),
(223,88,cs),
(176,77,o),
(124,64,o),
(75,64,cs),
(67,64,o),
(51,63,o),
(44,59,c),
(38,55,o),
(35,47,o),
(35,40,cs),
(35,21,o),
(41,2,o),
(41,-18,cs),
(41,-52,o),
(21,-81,o),
(21,-97,cs),
(21,-113,o),
(49,-112,o),
(60,-112,cs),
(140,-112,o),
(190,-64,o),
(190,17,cs),
(190,27,o),
(187,46,o),
(183,55,c),
(230,62,o),
(277,77,o),
(323,89,cs),
(479,130,o),
(619,156,o),
(619,356,cs)
);
}
);
width = 658;
}
);
unicode = 4739;
},
{
glyphname = uni1284;
layers = (
{
layerId = "5B9FE6CD-9A20-4D75-8A4E-A5261DDE1CE6";
shapes = (
{
closed = 1;
nodes = (
(761,227,o),
(622,216,o),
(556,216,c),
(579,285,o),
(627,445,o),
(627,510,c),
(607,521,o),
(590,523,o),
(568,523,cs),
(546,523,o),
(525,520,o),
(503,520,cs),
(494,520,o),
(479,520,o),
(479,533,cs),
(479,573,o),
(514,633,o),
(514,683,cs),
(514,695,o),
(512,714,o),
(504,724,c),
(486,748,o),
(406,744,o),
(378,744,cs),
(370,744,o),
(345,744,o),
(345,731,cs),
(345,715,o),
(373,725,o),
(373,685,cs),
(373,667,o),
(363,633,o),
(356,616,c),
(91,620,l),
(85,620,o),
(83,591,o),
(83,587,c),
(82,573,o),
(81,551,o),
(75,538,cs),
(61,509,o),
(43,501,o),
(21,479,c),
(36,457,o),
(59,456,o),
(83,456,cs),
(165,456,o),
(247,501,o),
(247,592,c),
(358,586,l),
(358,559,o),
(338,547,o),
(338,534,cs),
(338,516,o),
(378,517,o),
(390,517,cs),
(402,517,o),
(462,520,o),
(472,513,c),
(473,507,o),
(465,474,o),
(464,466,cs),
(451,373,o),
(416,276,o),
(394,184,cs),
(387,153,o),
(381,119,o),
(381,88,cs),
(381,81,o),
(381,70,o),
(384,64,cs),
(415,3,o),
(450,0,o),
(513,0,cs),
(600,0,o),
(761,5,o),
(761,128,cs)
);
},
{
closed = 1;
nodes = (
(552,39,o),
(535,71,o),
(535,85,cs),
(535,103,o),
(546,188,o),
(563,191,c),
(567,192,o),
(571,192,o),
(575,192,cs),
(624,192,o),
(634,165,o),
(634,121,cs),
(634,93,o),
(597,39,o),
(568,39,cs)
);
}
);
width = 798;
}
);
unicode = 4740;
},
{
glyphname = uni1285;
layers = (
{
layerId = "5B9FE6CD-9A20-4D75-8A4E-A5261DDE1CE6";
shapes = (
{
closed = 1;
nodes = (
(504,29,o),
(495,35,o),
(491,38,c),
(484,44,o),
(486,79,o),
(486,87,cs),
(486,219,o),
(521,352,o),
(549,480,c),
(542,499,o),
(522,500,o),
(505,500,cs),
(480,500,o),
(454,492,o),
(429,492,cs),
(423,492,o),
(416,493,o),
(411,497,c),
(409,502,o),
(408,507,o),
(408,512,cs),
(408,556,o),
(429,609,o),
(429,663,cs),
(429,710,o),
(417,720,o),
(371,720,cs),
(343,720,o),
(315,713,o),
(286,713,cs),
(278,713,o),
(257,713,o),
(257,700,cs),
(257,682,o),
(288,686,o),
(288,644,cs),
(288,637,o),
(287,630,o),
(284,624,c),
(185,624,o),
(92,602,o),
(51,503,cs),
(40,477,o),
(29,437,o),
(29,408,cs),
(29,401,o),
(34,398,o),
(41,398,cs),
(56,398,o),
(134,412,o),
(149,418,c),
(160,422,o),
(169,431,o),
(169,443,cs),
(169,507,o),
(201,600,o),
(279,600,c),
(276,566,o),
(267,530,o),
(267,496,cs),
(267,478,o),
(287,472,o),
(302,472,cs),
(326,472,o),
(350,481,o),
(374,481,cs),
(384,481,o),
(394,478,o),
(394,467,cs),
(394,431,o),
(383,391,o),
(377,356,cs),
(360,263,o),
(331,161,o),
(331,66,cs),
(331,22,o),
(343,0,o),
(390,0,cs),
(406,0,o),
(504,9,o),
(504,23,cs)
);
}
);
width = 588;
}
);
unicode = 4741;
},
{
glyphname = uni1286;
layers = (
{
layerId = "5B9FE6CD-9A20-4D75-8A4E-A5261DDE1CE6";
shapes = (
{
closed = 1;
nodes = (
(605,45,o),
(578,46,o),
(578,78,cs),
(578,156,o),
(599,240,o),
(599,314,cs),
(599,319,o),
(598,325,o),
(598,330,c),
(588,349,o),
(602,368,o),
(553,368,cs),
(522,368,o),
(491,359,o),
(460,359,cs),
(404,359,o),
(401,393,o),
(401,441,cs),
(401,499,o),
(423,656,o),
(503,656,cs),
(508,656,o),
(513,655,o),
(518,655,c),
(509,630,o),
(500,603,o),
(500,576,cs),
(500,533,o),
(529,488,o),
(576,488,cs),
(618,488,o),
(660,504,o),
(702,504,cs),
(787,504,o),
(873,527,o),
(873,630,cs),
(873,695,o),
(808,720,o),
(752,720,cs),
(662,720,o),
(626,721,o),
(548,680,c),
(500,680,ls),
(413,680,o),
(327,623,o),
(284,549,c),
(213,528,o),
(133,531,o),
(59,528,c),
(54,528,o),
(50,527,o),
(46,524,c),
(37,516,o),
(45,436,o),
(33,410,cs),
(27,397,o),
(22,386,o),
(14,374,c),
(14,362,o),
(44,360,o),
(53,360,cs),
(144,360,o),
(197,419,o),
(197,510,c),
(212,516,o),
(236,516,o),
(252,516,cs),
(257,516,o),
(262,515,o),
(267,515,c),
(259,486,o),
(253,457,o),
(253,427,cs),
(253,385,o),
(264,315,o),
(318,315,cs),
(349,315,o),
(380,327,o),
(412,327,cs),
(434,327,o),
(457,328,o),
(457,300,cs),
(457,264,o),
(447,228,o),
(446,192,cs),
(445,152,o),
(437,115,o),
(437,73,cs),
(437,34,o),
(441,0,o),
(490,0,cs),
(506,0,o),
(605,10,o),
(605,28,cs)
);
},
{
closed = 1;
nodes = (
(647,528,o),
(640,559,o),
(640,576,cs),
(640,614,o),
(656,696,o),
(707,696,cs),
(733,696,o),
(733,654,o),
(733,635,c),
(729,630,l),
(733,622,l),
(733,583,o),
(716,528,o),
(669,528,cs)
);
}
);
width = 913;
}
);
unicode = 4742;
},
{
glyphname = uni1288;
layers = (
{
layerId = "5B9FE6CD-9A20-4D75-8A4E-A5261DDE1CE6";
shapes = (
{
closed = 1;
nodes = (
(965,427,o),
(924,464,o),
(853,464,cs),
(759,464,o),
(661,437,o),
(570,416,c),
(570,417,l),
(571,419,l),
(571,435,o),
(579,452,o),
(579,469,cs),
(579,500,o),
(574,492,o),
(571,509,c),
(563,518,o),
(554,520,o),
(543,520,cs),
(513,520,o),
(484,508,o),
(454,508,cs),
(430,508,o),
(429,529,o),
(429,548,cs),
(429,580,o),
(437,613,o),
(437,646,cs),
(437,682,o),
(438,720,o),
(392,720,cs),
(362,720,o),
(332,712,o),
(302,712,cs),
(292,712,o),
(262,712,o),
(262,697,cs),
(262,683,o),
(287,689,o),
(293,665,cs),
(296,653,o),
(296,641,o),
(296,629,cs),
(296,610,o),
(292,592,o),
(288,573,c),
(59,544,ls),
(45,542,o),
(50,486,o),
(49,469,cs),
(47,427,o),
(14,393,o),
(14,385,cs),
(14,376,o),
(37,376,o),
(43,376,cs),
(140,376,o),
(218,440,o),
(218,541,c),
(282,549,l),
(282,526,o),
(272,479,o),
(308,479,cs),
(340,479,o),
(369,498,o),
(401,498,cs),
(418,498,o),
(429,489,o),
(429,472,cs),
(429,435,o),
(420,394,o),
(412,358,cs),
(407,335,o),
(406,311,o),
(401,289,cs),
(385,223,o),
(366,136,o),
(366,67,cs),
(366,33,o),
(376,0,o),
(416,0,cs),
(434,0,o),
(538,14,o),
(538,30,cs),
(538,46,o),
(507,39,o),
(507,84,cs),
(507,122,o),
(520,162,o),
(528,199,cs),
(542,263,o),
(556,327,o),
(563,392,c),
(581,392,o),
(617,403,o),
(634,408,c),
(625,386,o),
(619,349,o),
(619,325,cs),
(619,273,o),
(632,215,o),
(695,215,cs),
(730,215,o),
(763,232,o),
(798,232,cs),
(861,232,o),
(927,224,o),
(954,294,cs),
(961,313,o),
(965,333,o),
(965,354,cs)
);
},
{
closed = 1;
nodes = (
(760,256,o),
(761,307,o),
(761,330,cs),
(761,349,l),
(761,376,o),
(765,440,o),
(804,440,cs),
(841,440,o),
(838,381,o),
(838,355,cs),
(838,324,o),
(835,256,o),
(792,256,cs)
);
}
);
width = 1001;
}
);
unicode = 4744;
},
{
glyphname = uni128A;
layers = (
{
layerId = "5B9FE6CD-9A20-4D75-8A4E-A5261DDE1CE6";
shapes = (
{
closed = 1;
nodes = (
(950,137,l),
(934,168,o),
(919,192,o),
(919,228,cs),
(919,242,o),
(922,256,o),
(922,270,cs),
(922,275,o),
(923,285,o),
(915,285,cs),
(873,285,o),
(826,273,o),
(779,273,cs),
(759,273,o),
(720,269,o),
(720,298,cs),
(720,339,o),
(771,451,o),
(769,462,c),
(770,464,l),
(770,465,l),
(770,489,o),
(737,490,o),
(720,490,cs),
(685,490,o),
(651,483,o),
(617,483,cs),
(611,483,o),
(593,483,o),
(593,473,cs),
(593,468,o),
(596,464,o),
(599,460,c),
(599,459,l),
(605,454,o),
(608,448,o),
(608,440,cs),
(608,411,o),
(594,383,o),
(592,355,c),
(509,349,l),
(516,391,o),
(528,438,o),
(528,481,cs),
(528,487,o),
(527,492,o),
(526,498,c),
(517,507,o),
(502,509,o),
(490,509,cs),
(459,509,o),
(429,496,o),
(398,496,c),
(396,496,o),
(393,497,o),
(391,498,c),
(387,505,o),
(387,514,o),
(387,522,cs),
(387,566,o),
(394,609,o),
(394,653,cs),
(394,686,o),
(395,720,o),
(355,720,cs),
(323,720,o),
(293,707,o),
(262,707,cs),
(252,707,o),
(222,707,o),
(222,692,cs),
(222,678,o),
(246,682,o),
(251,656,c),
(255,638,o),
(253,616,o),
(253,598,cs),
(253,589,o),
(252,579,o),
(252,570,c),
(199,555,o),
(125,536,o),
(71,536,cs),
(58,536,o),
(55,508,o),
(55,499,c),
(54,477,o),
(56,451,o),
(49,430,c),
(45,419,o),
(21,384,o),
(21,382,c),
(21,373,o),
(44,373,o),
(50,373,cs),
(137,373,o),
(197,448,o),
(197,532,c),
(247,541,l),
(247,508,ls),
(247,490,o),
(248,473,o),
(271,473,cs),
(295,473,o),
(325,493,o),
(351,493,cs),
(367,493,o),
(373,482,o),
(373,467,cs),
(373,430,o),
(364,392,o),
(357,356,cs),
(340,264,o),
(311,157,o),
(311,64,cs),
(311,26,o),
(319,0,o),
(363,0,cs),
(383,0,o),
(493,12,o),
(493,30,cs),
(493,47,o),
(451,37,o),
(451,89,cs),
(451,106,o),
(456,127,o),
(460,144,cs),
(500,320,l),
(579,325,l),
(578,322,o),
(578,318,o),
(578,315,cs),
(578,256,o),
(583,235,o),
(647,237,cs),
(768,241,l),
(777,161,o),
(840,125,o),
(915,125,cs),
(922,125,o),
(942,126,o),
(946,132,c)
);
}
);
width = 950;
}
);
unicode = 4746;
},
